ISO-10303-21;
HEADER;
/* Generated by software containing ST-Developer
 * from STEP Tools, Inc. (www.steptools.com) 
 */

FILE_DESCRIPTION(
/* description */ (''),
/* implementation_level */ '2;1');

FILE_NAME(
/* name */ 'Assembly_Y2.stp',
/* time_stamp */ '2026-02-19T19:08:15+09:00',
/* author */ ('Hirotaka-Honda'),
/* organization */ (''),
/* preprocessor_version */ 'ST-DEVELOPER v20.1',
/* originating_system */ 'Autodesk Inventor 2026',
/* authorisation */ '');

FILE_SCHEMA (('AUTOMOTIVE_DESIGN { 1 0 10303 214 3 1 1 }'));
ENDSEC;

DATA;
#10=MECHANICAL_DESIGN_GEOMETRIC_PRESENTATION_REPRESENTATION('',(#17),#820);
#11=ITEM_DEFINED_TRANSFORMATION($,$,#445,#480);
#12=(
REPRESENTATION_RELATIONSHIP($,$,#831,#830)
REPRESENTATION_RELATIONSHIP_WITH_TRANSFORMATION(#11)
SHAPE_REPRESENTATION_RELATIONSHIP()
);
#13=CONTEXT_DEPENDENT_SHAPE_REPRESENTATION(#12,#829);
#14=NEXT_ASSEMBLY_USAGE_OCCURRENCE('Part3_A_Y:1','Part3_A_Y:1',
'Part3_A_Y:1',#833,#834,'Part3_A_Y:1');
#15=SHAPE_REPRESENTATION_RELATIONSHIP('SRR','None',#831,#16);
#16=ADVANCED_BREP_SHAPE_REPRESENTATION('',(#18),#819);
#17=STYLED_ITEM('',(#423),#18);
#18=MANIFOLD_SOLID_BREP('\X2\30BD30EA30C330C9\X0\1',#407);
#19=CONICAL_SURFACE('',#457,1.22925,1.02974425867665);
#20=CONICAL_SURFACE('',#461,1.22925,1.02974425867665);
#21=FACE_BOUND('',#64,.T.);
#22=FACE_BOUND('',#68,.T.);
#23=FACE_BOUND('',#77,.T.);
#24=FACE_BOUND('',#78,.T.);
#25=FACE_BOUND('',#82,.T.);
#26=FACE_BOUND('',#88,.T.);
#27=FACE_BOUND('',#89,.T.);
#28=FACE_BOUND('',#90,.T.);
#29=PLANE('',#448);
#30=PLANE('',#450);
#31=PLANE('',#454);
#32=PLANE('',#456);
#33=PLANE('',#465);
#34=PLANE('',#473);
#35=PLANE('',#474);
#36=PLANE('',#475);
#37=PLANE('',#476);
#38=PLANE('',#477);
#39=PLANE('',#478);
#40=PLANE('',#479);
#41=FACE_OUTER_BOUND('',#62,.T.);
#42=FACE_OUTER_BOUND('',#63,.T.);
#43=FACE_OUTER_BOUND('',#65,.T.);
#44=FACE_OUTER_BOUND('',#66,.T.);
#45=FACE_OUTER_BOUND('',#67,.T.);
#46=FACE_OUTER_BOUND('',#69,.T.);
#47=FACE_OUTER_BOUND('',#70,.T.);
#48=FACE_OUTER_BOUND('',#71,.T.);
#49=FACE_OUTER_BOUND('',#72,.T.);
#50=FACE_OUTER_BOUND('',#73,.T.);
#51=FACE_OUTER_BOUND('',#74,.T.);
#52=FACE_OUTER_BOUND('',#75,.T.);
#53=FACE_OUTER_BOUND('',#76,.T.);
#54=FACE_OUTER_BOUND('',#79,.T.);
#55=FACE_OUTER_BOUND('',#80,.T.);
#56=FACE_OUTER_BOUND('',#81,.T.);
#57=FACE_OUTER_BOUND('',#83,.T.);
#58=FACE_OUTER_BOUND('',#84,.T.);
#59=FACE_OUTER_BOUND('',#85,.T.);
#60=FACE_OUTER_BOUND('',#86,.T.);
#61=FACE_OUTER_BOUND('',#87,.T.);
#62=EDGE_LOOP('',(#271,#272,#273,#274));
#63=EDGE_LOOP('',(#275,#276,#277,#278,#279));
#64=EDGE_LOOP('',(#280));
#65=EDGE_LOOP('',(#281,#282,#283));
#66=EDGE_LOOP('',(#284,#285,#286,#287));
#67=EDGE_LOOP('',(#288,#289,#290,#291,#292));
#68=EDGE_LOOP('',(#293));
#69=EDGE_LOOP('',(#294,#295,#296,#297));
#70=EDGE_LOOP('',(#298,#299,#300));
#71=EDGE_LOOP('',(#301,#302,#303,#304));
#72=EDGE_LOOP('',(#305,#306,#307));
#73=EDGE_LOOP('',(#308,#309,#310,#311));
#74=EDGE_LOOP('',(#312,#313,#314,#315));
#75=EDGE_LOOP('',(#316,#317,#318,#319,#320));
#76=EDGE_LOOP('',(#321,#322,#323,#324,#325,#326,#327,#328,#329,#330,#331,
#332,#333));
#77=EDGE_LOOP('',(#334,#335));
#78=EDGE_LOOP('',(#336,#337));
#79=EDGE_LOOP('',(#338,#339,#340,#341,#342));
#80=EDGE_LOOP('',(#343,#344,#345));
#81=EDGE_LOOP('',(#346,#347,#348,#349,#350,#351));
#82=EDGE_LOOP('',(#352,#353,#354,#355));
#83=EDGE_LOOP('',(#356,#357,#358,#359));
#84=EDGE_LOOP('',(#360,#361,#362,#363));
#85=EDGE_LOOP('',(#364,#365,#366,#367));
#86=EDGE_LOOP('',(#368,#369,#370,#371));
#87=EDGE_LOOP('',(#372));
#88=EDGE_LOOP('',(#373));
#89=EDGE_LOOP('',(#374));
#90=EDGE_LOOP('',(#375,#376,#377,#378));
#91=B_SPLINE_CURVE_WITH_KNOTS('',3,(#599,#600,#601,#602,#603,#604,#605,
#606,#607,#608,#609,#610,#611,#612),.UNSPECIFIED.,.F.,.F.,(4,2,2,2,2,2,
4),(3.31759264240955,3.4443575349231,3.57112242743665,3.76239386455944,
3.95366530168223,4.38199591594025,4.39181723640886),.UNSPECIFIED.);
#92=B_SPLINE_CURVE_WITH_KNOTS('',3,(#633,#634,#635,#636,#637,#638,#639,
#640,#641,#642,#643,#644,#645,#646),.UNSPECIFIED.,.F.,.F.,(4,2,2,2,2,2,
4),(2.24336804840954,2.25318936887886,2.68151998313688,2.87279142025966,
3.06406285738245,3.190827749896,3.31759264240955),.UNSPECIFIED.);
#93=B_SPLINE_CURVE_WITH_KNOTS('',3,(#688,#689,#690,#691,#692,#693,#694,
#695,#696,#697,#698,#699,#700,#701,#702,#703,#704,#705,#706,#707,#708,#709),
 .UNSPECIFIED.,.F.,.F.,(4,2,2,2,2,2,2,2,2,2,4),(0.,0.0227825198439813,0.0455650396879625,
0.122864116372873,0.259031392854429,0.395198669335984,0.511215896570595,
0.627233123805206,0.686584990069578,0.716260923201765,0.745936856333951),
 .UNSPECIFIED.);
#94=B_SPLINE_CURVE_WITH_KNOTS('',3,(#710,#711,#712,#713,#714,#715,#716,
#717,#718,#719,#720,#721,#722,#723,#724,#725,#726,#727,#728,#729,#730,#731),
 .UNSPECIFIED.,.F.,.F.,(4,2,2,2,2,2,2,2,2,2,4),(0.745936856333951,0.775612789466137,
0.805288722598323,0.864640588862696,0.980657816097307,1.09667504333192,
1.23284231981347,1.36900959629503,1.44630867297994,1.46909119282392,1.4918737126679),
 .UNSPECIFIED.);
#95=B_SPLINE_CURVE_WITH_KNOTS('',3,(#741,#742,#743,#744,#745,#746,#747,
#748,#749,#750,#751,#752,#753,#754,#755,#756,#757,#758,#759,#760,#761,#762),
 .UNSPECIFIED.,.F.,.F.,(4,2,2,2,2,2,2,2,2,2,4),(0.,0.0227825198439813,0.0455650396879625,
0.122864116372873,0.259031392854429,0.395198669335984,0.511215896570595,
0.627233123805206,0.686584990069578,0.716260923201765,0.745936856333951),
 .UNSPECIFIED.);
#96=B_SPLINE_CURVE_WITH_KNOTS('',3,(#763,#764,#765,#766,#767,#768,#769,
#770,#771,#772,#773,#774,#775,#776,#777,#778,#779,#780,#781,#782,#783,#784),
 .UNSPECIFIED.,.F.,.F.,(4,2,2,2,2,2,2,2,2,2,4),(0.745936856333951,0.775612789466137,
0.805288722598323,0.864640588862696,0.980657816097307,1.09667504333192,
1.23284231981347,1.36900959629503,1.44630867297994,1.46909119282392,1.4918737126679),
 .UNSPECIFIED.);
#97=LINE('',#597,#132);
#98=LINE('',#613,#133);
#99=LINE('',#616,#134);
#100=LINE('',#618,#135);
#101=LINE('',#620,#136);
#102=LINE('',#621,#137);
#103=LINE('',#631,#138);
#104=LINE('',#647,#139);
#105=LINE('',#650,#140);
#106=LINE('',#652,#141);
#107=LINE('',#654,#142);
#108=LINE('',#655,#143);
#109=LINE('',#660,#144);
#110=LINE('',#661,#145);
#111=LINE('',#666,#146);
#112=LINE('',#670,#147);
#113=LINE('',#675,#148);
#114=LINE('',#679,#149);
#115=LINE('',#682,#150);
#116=LINE('',#683,#151);
#117=LINE('',#686,#152);
#118=LINE('',#735,#153);
#119=LINE('',#786,#154);
#120=LINE('',#791,#155);
#121=LINE('',#793,#156);
#122=LINE('',#795,#157);
#123=LINE('',#796,#158);
#124=LINE('',#799,#159);
#125=LINE('',#801,#160);
#126=LINE('',#802,#161);
#127=LINE('',#805,#162);
#128=LINE('',#806,#163);
#129=LINE('',#809,#164);
#130=LINE('',#810,#165);
#131=LINE('',#812,#166);
#132=VECTOR('',#489,10.);
#133=VECTOR('',#490,10.);
#134=VECTOR('',#493,10.);
#135=VECTOR('',#494,10.);
#136=VECTOR('',#495,10.);
#137=VECTOR('',#496,10.);
#138=VECTOR('',#507,10.);
#139=VECTOR('',#508,10.);
#140=VECTOR('',#511,10.);
#141=VECTOR('',#512,10.);
#142=VECTOR('',#513,10.);
#143=VECTOR('',#514,10.);
#144=VECTOR('',#519,10.);
#145=VECTOR('',#520,10.);
#146=VECTOR('',#525,1.22925);
#147=VECTOR('',#530,2.4585);
#148=VECTOR('',#535,1.22925);
#149=VECTOR('',#540,2.4585);
#150=VECTOR('',#543,10.);
#151=VECTOR('',#544,10.);
#152=VECTOR('',#547,1.621);
#153=VECTOR('',#552,28.25);
#154=VECTOR('',#561,1.621);
#155=VECTOR('',#566,10.);
#156=VECTOR('',#567,10.);
#157=VECTOR('',#568,10.);
#158=VECTOR('',#569,10.);
#159=VECTOR('',#572,10.);
#160=VECTOR('',#573,10.);
#161=VECTOR('',#574,10.);
#162=VECTOR('',#577,10.);
#163=VECTOR('',#578,10.);
#164=VECTOR('',#581,10.);
#165=VECTOR('',#582,10.);
#166=VECTOR('',#585,10.);
#167=CIRCLE('',#447,5.);
#168=CIRCLE('',#449,1.621);
#169=CIRCLE('',#451,28.25);
#170=CIRCLE('',#453,5.);
#171=CIRCLE('',#455,1.621);
#172=CIRCLE('',#458,2.4585);
#173=CIRCLE('',#460,2.4585);
#174=CIRCLE('',#462,2.4585);
#175=CIRCLE('',#464,2.4585);
#176=CIRCLE('',#468,28.25);
#177=CIRCLE('',#469,28.25);
#178=CIRCLE('',#470,28.25);
#179=CIRCLE('',#471,28.25);
#180=VERTEX_POINT('',#593);
#181=VERTEX_POINT('',#594);
#182=VERTEX_POINT('',#596);
#183=VERTEX_POINT('',#598);
#184=VERTEX_POINT('',#615);
#185=VERTEX_POINT('',#617);
#186=VERTEX_POINT('',#619);
#187=VERTEX_POINT('',#622);
#188=VERTEX_POINT('',#627);
#189=VERTEX_POINT('',#628);
#190=VERTEX_POINT('',#630);
#191=VERTEX_POINT('',#632);
#192=VERTEX_POINT('',#649);
#193=VERTEX_POINT('',#651);
#194=VERTEX_POINT('',#653);
#195=VERTEX_POINT('',#656);
#196=VERTEX_POINT('',#659);
#197=VERTEX_POINT('',#663);
#198=VERTEX_POINT('',#665);
#199=VERTEX_POINT('',#668);
#200=VERTEX_POINT('',#672);
#201=VERTEX_POINT('',#674);
#202=VERTEX_POINT('',#677);
#203=VERTEX_POINT('',#681);
#204=VERTEX_POINT('',#685);
#205=VERTEX_POINT('',#687);
#206=VERTEX_POINT('',#733);
#207=VERTEX_POINT('',#739);
#208=VERTEX_POINT('',#740);
#209=VERTEX_POINT('',#789);
#210=VERTEX_POINT('',#790);
#211=VERTEX_POINT('',#792);
#212=VERTEX_POINT('',#794);
#213=VERTEX_POINT('',#798);
#214=VERTEX_POINT('',#800);
#215=VERTEX_POINT('',#804);
#216=VERTEX_POINT('',#808);
#217=EDGE_CURVE('',#180,#181,#167,.T.);
#218=EDGE_CURVE('',#180,#182,#97,.T.);
#219=EDGE_CURVE('',#182,#183,#91,.T.);
#220=EDGE_CURVE('',#183,#181,#98,.T.);
#221=EDGE_CURVE('',#184,#181,#99,.T.);
#222=EDGE_CURVE('',#185,#184,#100,.T.);
#223=EDGE_CURVE('',#186,#185,#101,.T.);
#224=EDGE_CURVE('',#186,#180,#102,.T.);
#225=EDGE_CURVE('',#187,#187,#168,.T.);
#226=EDGE_CURVE('',#184,#183,#169,.T.);
#227=EDGE_CURVE('',#188,#189,#170,.T.);
#228=EDGE_CURVE('',#188,#190,#103,.T.);
#229=EDGE_CURVE('',#190,#191,#92,.T.);
#230=EDGE_CURVE('',#191,#189,#104,.T.);
#231=EDGE_CURVE('',#192,#189,#105,.T.);
#232=EDGE_CURVE('',#193,#192,#106,.T.);
#233=EDGE_CURVE('',#193,#194,#107,.T.);
#234=EDGE_CURVE('',#194,#188,#108,.T.);
#235=EDGE_CURVE('',#195,#195,#171,.T.);
#236=EDGE_CURVE('',#196,#191,#109,.T.);
#237=EDGE_CURVE('',#192,#196,#110,.T.);
#238=EDGE_CURVE('',#197,#197,#172,.T.);
#239=EDGE_CURVE('',#197,#198,#111,.T.);
#240=EDGE_CURVE('',#199,#199,#173,.T.);
#241=EDGE_CURVE('',#199,#197,#112,.T.);
#242=EDGE_CURVE('',#200,#200,#174,.T.);
#243=EDGE_CURVE('',#200,#201,#113,.T.);
#244=EDGE_CURVE('',#202,#202,#175,.T.);
#245=EDGE_CURVE('',#202,#200,#114,.T.);
#246=EDGE_CURVE('',#203,#186,#115,.T.);
#247=EDGE_CURVE('',#182,#203,#116,.T.);
#248=EDGE_CURVE('',#187,#204,#117,.T.);
#249=EDGE_CURVE('',#205,#204,#93,.T.);
#250=EDGE_CURVE('',#204,#205,#94,.T.);
#251=EDGE_CURVE('',#206,#206,#176,.T.);
#252=EDGE_CURVE('',#206,#184,#118,.T.);
#253=EDGE_CURVE('',#196,#203,#177,.T.);
#254=EDGE_CURVE('',#190,#194,#178,.T.);
#255=EDGE_CURVE('',#185,#193,#179,.T.);
#256=EDGE_CURVE('',#207,#208,#95,.T.);
#257=EDGE_CURVE('',#208,#207,#96,.T.);
#258=EDGE_CURVE('',#195,#208,#119,.T.);
#259=EDGE_CURVE('',#209,#210,#120,.T.);
#260=EDGE_CURVE('',#210,#211,#121,.T.);
#261=EDGE_CURVE('',#211,#212,#122,.T.);
#262=EDGE_CURVE('',#212,#209,#123,.T.);
#263=EDGE_CURVE('',#210,#213,#124,.T.);
#264=EDGE_CURVE('',#214,#213,#125,.T.);
#265=EDGE_CURVE('',#211,#214,#126,.T.);
#266=EDGE_CURVE('',#215,#214,#127,.T.);
#267=EDGE_CURVE('',#212,#215,#128,.T.);
#268=EDGE_CURVE('',#216,#215,#129,.T.);
#269=EDGE_CURVE('',#209,#216,#130,.T.);
#270=EDGE_CURVE('',#213,#216,#131,.T.);
#271=ORIENTED_EDGE('',*,*,#217,.F.);
#272=ORIENTED_EDGE('',*,*,#218,.T.);
#273=ORIENTED_EDGE('',*,*,#219,.T.);
#274=ORIENTED_EDGE('',*,*,#220,.T.);
#275=ORIENTED_EDGE('',*,*,#217,.T.);
#276=ORIENTED_EDGE('',*,*,#221,.F.);
#277=ORIENTED_EDGE('',*,*,#222,.F.);
#278=ORIENTED_EDGE('',*,*,#223,.F.);
#279=ORIENTED_EDGE('',*,*,#224,.T.);
#280=ORIENTED_EDGE('',*,*,#225,.T.);
#281=ORIENTED_EDGE('',*,*,#220,.F.);
#282=ORIENTED_EDGE('',*,*,#226,.F.);
#283=ORIENTED_EDGE('',*,*,#221,.T.);
#284=ORIENTED_EDGE('',*,*,#227,.F.);
#285=ORIENTED_EDGE('',*,*,#228,.T.);
#286=ORIENTED_EDGE('',*,*,#229,.T.);
#287=ORIENTED_EDGE('',*,*,#230,.T.);
#288=ORIENTED_EDGE('',*,*,#227,.T.);
#289=ORIENTED_EDGE('',*,*,#231,.F.);
#290=ORIENTED_EDGE('',*,*,#232,.F.);
#291=ORIENTED_EDGE('',*,*,#233,.T.);
#292=ORIENTED_EDGE('',*,*,#234,.T.);
#293=ORIENTED_EDGE('',*,*,#235,.T.);
#294=ORIENTED_EDGE('',*,*,#230,.F.);
#295=ORIENTED_EDGE('',*,*,#236,.F.);
#296=ORIENTED_EDGE('',*,*,#237,.F.);
#297=ORIENTED_EDGE('',*,*,#231,.T.);
#298=ORIENTED_EDGE('',*,*,#238,.T.);
#299=ORIENTED_EDGE('',*,*,#239,.T.);
#300=ORIENTED_EDGE('',*,*,#239,.F.);
#301=ORIENTED_EDGE('',*,*,#240,.F.);
#302=ORIENTED_EDGE('',*,*,#241,.T.);
#303=ORIENTED_EDGE('',*,*,#238,.F.);
#304=ORIENTED_EDGE('',*,*,#241,.F.);
#305=ORIENTED_EDGE('',*,*,#242,.T.);
#306=ORIENTED_EDGE('',*,*,#243,.T.);
#307=ORIENTED_EDGE('',*,*,#243,.F.);
#308=ORIENTED_EDGE('',*,*,#244,.F.);
#309=ORIENTED_EDGE('',*,*,#245,.T.);
#310=ORIENTED_EDGE('',*,*,#242,.F.);
#311=ORIENTED_EDGE('',*,*,#245,.F.);
#312=ORIENTED_EDGE('',*,*,#218,.F.);
#313=ORIENTED_EDGE('',*,*,#224,.F.);
#314=ORIENTED_EDGE('',*,*,#246,.F.);
#315=ORIENTED_EDGE('',*,*,#247,.F.);
#316=ORIENTED_EDGE('',*,*,#225,.F.);
#317=ORIENTED_EDGE('',*,*,#248,.T.);
#318=ORIENTED_EDGE('',*,*,#249,.F.);
#319=ORIENTED_EDGE('',*,*,#250,.F.);
#320=ORIENTED_EDGE('',*,*,#248,.F.);
#321=ORIENTED_EDGE('',*,*,#251,.F.);
#322=ORIENTED_EDGE('',*,*,#252,.T.);
#323=ORIENTED_EDGE('',*,*,#226,.T.);
#324=ORIENTED_EDGE('',*,*,#219,.F.);
#325=ORIENTED_EDGE('',*,*,#247,.T.);
#326=ORIENTED_EDGE('',*,*,#253,.F.);
#327=ORIENTED_EDGE('',*,*,#236,.T.);
#328=ORIENTED_EDGE('',*,*,#229,.F.);
#329=ORIENTED_EDGE('',*,*,#254,.T.);
#330=ORIENTED_EDGE('',*,*,#233,.F.);
#331=ORIENTED_EDGE('',*,*,#255,.F.);
#332=ORIENTED_EDGE('',*,*,#222,.T.);
#333=ORIENTED_EDGE('',*,*,#252,.F.);
#334=ORIENTED_EDGE('',*,*,#256,.T.);
#335=ORIENTED_EDGE('',*,*,#257,.T.);
#336=ORIENTED_EDGE('',*,*,#249,.T.);
#337=ORIENTED_EDGE('',*,*,#250,.T.);
#338=ORIENTED_EDGE('',*,*,#235,.F.);
#339=ORIENTED_EDGE('',*,*,#258,.T.);
#340=ORIENTED_EDGE('',*,*,#256,.F.);
#341=ORIENTED_EDGE('',*,*,#257,.F.);
#342=ORIENTED_EDGE('',*,*,#258,.F.);
#343=ORIENTED_EDGE('',*,*,#228,.F.);
#344=ORIENTED_EDGE('',*,*,#234,.F.);
#345=ORIENTED_EDGE('',*,*,#254,.F.);
#346=ORIENTED_EDGE('',*,*,#223,.T.);
#347=ORIENTED_EDGE('',*,*,#255,.T.);
#348=ORIENTED_EDGE('',*,*,#232,.T.);
#349=ORIENTED_EDGE('',*,*,#237,.T.);
#350=ORIENTED_EDGE('',*,*,#253,.T.);
#351=ORIENTED_EDGE('',*,*,#246,.T.);
#352=ORIENTED_EDGE('',*,*,#259,.T.);
#353=ORIENTED_EDGE('',*,*,#260,.T.);
#354=ORIENTED_EDGE('',*,*,#261,.T.);
#355=ORIENTED_EDGE('',*,*,#262,.T.);
#356=ORIENTED_EDGE('',*,*,#260,.F.);
#357=ORIENTED_EDGE('',*,*,#263,.T.);
#358=ORIENTED_EDGE('',*,*,#264,.F.);
#359=ORIENTED_EDGE('',*,*,#265,.F.);
#360=ORIENTED_EDGE('',*,*,#261,.F.);
#361=ORIENTED_EDGE('',*,*,#265,.T.);
#362=ORIENTED_EDGE('',*,*,#266,.F.);
#363=ORIENTED_EDGE('',*,*,#267,.F.);
#364=ORIENTED_EDGE('',*,*,#262,.F.);
#365=ORIENTED_EDGE('',*,*,#267,.T.);
#366=ORIENTED_EDGE('',*,*,#268,.F.);
#367=ORIENTED_EDGE('',*,*,#269,.F.);
#368=ORIENTED_EDGE('',*,*,#259,.F.);
#369=ORIENTED_EDGE('',*,*,#269,.T.);
#370=ORIENTED_EDGE('',*,*,#270,.F.);
#371=ORIENTED_EDGE('',*,*,#263,.F.);
#372=ORIENTED_EDGE('',*,*,#251,.T.);
#373=ORIENTED_EDGE('',*,*,#240,.T.);
#374=ORIENTED_EDGE('',*,*,#244,.T.);
#375=ORIENTED_EDGE('',*,*,#270,.T.);
#376=ORIENTED_EDGE('',*,*,#268,.T.);
#377=ORIENTED_EDGE('',*,*,#266,.T.);
#378=ORIENTED_EDGE('',*,*,#264,.T.);
#379=CYLINDRICAL_SURFACE('',#446,5.);
#380=CYLINDRICAL_SURFACE('',#452,5.);
#381=CYLINDRICAL_SURFACE('',#459,2.4585);
#382=CYLINDRICAL_SURFACE('',#463,2.4585);
#383=CYLINDRICAL_SURFACE('',#466,1.621);
#384=CYLINDRICAL_SURFACE('',#467,28.25);
#385=CYLINDRICAL_SURFACE('',#472,1.621);
#386=ADVANCED_FACE('',(#41),#379,.F.);
#387=ADVANCED_FACE('',(#42,#21),#29,.T.);
#388=ADVANCED_FACE('',(#43),#30,.T.);
#389=ADVANCED_FACE('',(#44),#380,.F.);
#390=ADVANCED_FACE('',(#45,#22),#31,.F.);
#391=ADVANCED_FACE('',(#46),#32,.F.);
#392=ADVANCED_FACE('',(#47),#19,.F.);
#393=ADVANCED_FACE('',(#48),#381,.F.);
#394=ADVANCED_FACE('',(#49),#20,.F.);
#395=ADVANCED_FACE('',(#50),#382,.F.);
#396=ADVANCED_FACE('',(#51),#33,.T.);
#397=ADVANCED_FACE('',(#52),#383,.F.);
#398=ADVANCED_FACE('',(#53,#23,#24),#384,.T.);
#399=ADVANCED_FACE('',(#54),#385,.F.);
#400=ADVANCED_FACE('',(#55),#34,.F.);
#401=ADVANCED_FACE('',(#56,#25),#35,.T.);
#402=ADVANCED_FACE('',(#57),#36,.T.);
#403=ADVANCED_FACE('',(#58),#37,.T.);
#404=ADVANCED_FACE('',(#59),#38,.T.);
#405=ADVANCED_FACE('',(#60),#39,.T.);
#406=ADVANCED_FACE('',(#61,#26,#27,#28),#40,.F.);
#407=CLOSED_SHELL('',(#386,#387,#388,#389,#390,#391,#392,#393,#394,#395,
#396,#397,#398,#399,#400,#401,#402,#403,#404,#405,#406));
#408=DERIVED_UNIT_ELEMENT(#411,1.);
#409=DERIVED_UNIT_ELEMENT(#822,-3.);
#410=DIMENSIONAL_EXPONENTS(0.,1.,0.,0.,0.,0.,0.);
#411=(
CONVERSION_BASED_UNIT('gram',#413)
MASS_UNIT()
NAMED_UNIT(#410)
);
#412=(
MASS_UNIT()
NAMED_UNIT(*)
SI_UNIT(.KILO.,.GRAM.)
);
#413=MASS_MEASURE_WITH_UNIT(MASS_MEASURE(0.001),#412);
#414=DERIVED_UNIT((#408,#409));
#415=MEASURE_REPRESENTATION_ITEM('density measure',
POSITIVE_RATIO_MEASURE(7.85),#414);
#416=PROPERTY_DEFINITION_REPRESENTATION(#421,#418);
#417=PROPERTY_DEFINITION_REPRESENTATION(#422,#419);
#418=REPRESENTATION('material name',(#420),#819);
#419=REPRESENTATION('density',(#415),#819);
#420=DESCRIPTIVE_REPRESENTATION_ITEM('\X2\92FC30018EDF92FC\X0\',
'\X2\92FC30018EDF92FC\X0\');
#421=PROPERTY_DEFINITION('material property','material name',#834);
#422=PROPERTY_DEFINITION('material property','density of part',#834);
#423=PRESENTATION_STYLE_ASSIGNMENT((#424));
#424=SURFACE_STYLE_USAGE(.BOTH.,#427);
#425=SURFACE_STYLE_RENDERING_WITH_PROPERTIES($,#431,(#426));
#426=SURFACE_STYLE_TRANSPARENT(0.);
#427=SURFACE_SIDE_STYLE('',(#428,#425));
#428=SURFACE_STYLE_FILL_AREA(#429);
#429=FILL_AREA_STYLE('',(#430));
#430=FILL_AREA_STYLE_COLOUR('',#431);
#431=COLOUR_RGB('',0.745098039215686,0.737254901960784,0.729411764705882);
#432=DATE_TIME_ROLE('creation_date');
#433=DATE_TIME_ROLE('creation_date');
#434=APPLIED_DATE_AND_TIME_ASSIGNMENT(#436,#432,(#833));
#435=APPLIED_DATE_AND_TIME_ASSIGNMENT(#437,#433,(#834));
#436=DATE_AND_TIME(#438,#440);
#437=DATE_AND_TIME(#439,#441);
#438=CALENDAR_DATE(2026,19,2);
#439=CALENDAR_DATE(2026,8,1);
#440=LOCAL_TIME(0,0,0.,#442);
#441=LOCAL_TIME(0,0,0.,#443);
#442=COORDINATED_UNIVERSAL_TIME_OFFSET(0,0,.BEHIND.);
#443=COORDINATED_UNIVERSAL_TIME_OFFSET(0,0,.BEHIND.);
#444=AXIS2_PLACEMENT_3D('',#590,#481,#482);
#445=AXIS2_PLACEMENT_3D('',#591,#483,#484);
#446=AXIS2_PLACEMENT_3D('',#592,#485,#486);
#447=AXIS2_PLACEMENT_3D('',#595,#487,#488);
#448=AXIS2_PLACEMENT_3D('',#614,#491,#492);
#449=AXIS2_PLACEMENT_3D('',#623,#497,#498);
#450=AXIS2_PLACEMENT_3D('',#624,#499,#500);
#451=AXIS2_PLACEMENT_3D('',#625,#501,#502);
#452=AXIS2_PLACEMENT_3D('',#626,#503,#504);
#453=AXIS2_PLACEMENT_3D('',#629,#505,#506);
#454=AXIS2_PLACEMENT_3D('',#648,#509,#510);
#455=AXIS2_PLACEMENT_3D('',#657,#515,#516);
#456=AXIS2_PLACEMENT_3D('',#658,#517,#518);
#457=AXIS2_PLACEMENT_3D('',#662,#521,#522);
#458=AXIS2_PLACEMENT_3D('',#664,#523,#524);
#459=AXIS2_PLACEMENT_3D('',#667,#526,#527);
#460=AXIS2_PLACEMENT_3D('',#669,#528,#529);
#461=AXIS2_PLACEMENT_3D('',#671,#531,#532);
#462=AXIS2_PLACEMENT_3D('',#673,#533,#534);
#463=AXIS2_PLACEMENT_3D('',#676,#536,#537);
#464=AXIS2_PLACEMENT_3D('',#678,#538,#539);
#465=AXIS2_PLACEMENT_3D('',#680,#541,#542);
#466=AXIS2_PLACEMENT_3D('',#684,#545,#546);
#467=AXIS2_PLACEMENT_3D('',#732,#548,#549);
#468=AXIS2_PLACEMENT_3D('',#734,#550,#551);
#469=AXIS2_PLACEMENT_3D('',#736,#553,#554);
#470=AXIS2_PLACEMENT_3D('',#737,#555,#556);
#471=AXIS2_PLACEMENT_3D('',#738,#557,#558);
#472=AXIS2_PLACEMENT_3D('',#785,#559,#560);
#473=AXIS2_PLACEMENT_3D('',#787,#562,#563);
#474=AXIS2_PLACEMENT_3D('',#788,#564,#565);
#475=AXIS2_PLACEMENT_3D('',#797,#570,#571);
#476=AXIS2_PLACEMENT_3D('',#803,#575,#576);
#477=AXIS2_PLACEMENT_3D('',#807,#579,#580);
#478=AXIS2_PLACEMENT_3D('',#811,#583,#584);
#479=AXIS2_PLACEMENT_3D('',#813,#586,#587);
#480=AXIS2_PLACEMENT_3D('',#814,#588,#589);
#481=DIRECTION('axis',(0.,0.,1.));
#482=DIRECTION('refdir',(1.,0.,0.));
#483=DIRECTION('axis',(0.,0.,1.));
#484=DIRECTION('refdir',(1.,0.,0.));
#485=DIRECTION('center_axis',(2.66453525910038E-16,1.,0.));
#486=DIRECTION('ref_axis',(0.707106781186548,-3.14018491736755E-16,-0.707106781186547));
#487=DIRECTION('center_axis',(1.22681520349232E-16,1.,0.));
#488=DIRECTION('ref_axis',(0.707106781186548,-3.14018491736755E-16,-0.707106781186547));
#489=DIRECTION('',(2.66453525910038E-16,1.,0.));
#490=DIRECTION('',(-2.66453525910038E-16,-1.,0.));
#491=DIRECTION('center_axis',(1.22681520349232E-16,1.,0.));
#492=DIRECTION('ref_axis',(1.,-1.22681520349232E-16,0.));
#493=DIRECTION('',(1.,-1.22681520349232E-16,0.));
#494=DIRECTION('',(0.,0.,-1.));
#495=DIRECTION('',(-1.,1.22681520349232E-16,0.));
#496=DIRECTION('',(0.,0.,-1.));
#497=DIRECTION('center_axis',(-1.22681520349232E-16,-1.,0.));
#498=DIRECTION('ref_axis',(-1.,1.22681520349232E-16,0.));
#499=DIRECTION('center_axis',(0.,0.,1.));
#500=DIRECTION('ref_axis',(1.,0.,0.));
#501=DIRECTION('center_axis',(0.,0.,-1.));
#502=DIRECTION('ref_axis',(1.,0.,0.));
#503=DIRECTION('center_axis',(-2.66453525910038E-16,1.,0.));
#504=DIRECTION('ref_axis',(-0.707106781186547,-3.14018491736755E-16,-0.707106781186547));
#505=DIRECTION('center_axis',(-1.22681520349232E-16,1.,0.));
#506=DIRECTION('ref_axis',(-0.707106781186547,-3.14018491736755E-16,-0.707106781186547));
#507=DIRECTION('',(-2.66453525910038E-16,1.,0.));
#508=DIRECTION('',(2.66453525910038E-16,-1.,0.));
#509=DIRECTION('center_axis',(1.22681520349232E-16,-1.,0.));
#510=DIRECTION('ref_axis',(-1.,-1.22681520349232E-16,0.));
#511=DIRECTION('',(0.,0.,-1.));
#512=DIRECTION('',(-1.,-1.22681520349232E-16,0.));
#513=DIRECTION('',(0.,0.,-1.));
#514=DIRECTION('',(-1.,-1.22681520349232E-16,0.));
#515=DIRECTION('center_axis',(1.22681520349232E-16,-1.,0.));
#516=DIRECTION('ref_axis',(1.,1.22681520349232E-16,0.));
#517=DIRECTION('center_axis',(-1.,-2.66453525910038E-16,0.));
#518=DIRECTION('ref_axis',(-2.66453525910038E-16,1.,0.));
#519=DIRECTION('',(0.,0.,-1.));
#520=DIRECTION('',(-2.66453525910038E-16,1.,0.));
#521=DIRECTION('center_axis',(0.,0.,-1.));
#522=DIRECTION('ref_axis',(-1.,0.,0.));
#523=DIRECTION('center_axis',(0.,0.,-1.));
#524=DIRECTION('ref_axis',(-1.,0.,0.));
#525=DIRECTION('',(-0.857167300702112,1.04972719113862E-16,0.515038074910054));
#526=DIRECTION('center_axis',(0.,0.,-1.));
#527=DIRECTION('ref_axis',(-1.,0.,0.));
#528=DIRECTION('center_axis',(0.,0.,1.));
#529=DIRECTION('ref_axis',(-1.,0.,0.));
#530=DIRECTION('',(0.,0.,1.));
#531=DIRECTION('center_axis',(0.,0.,-1.));
#532=DIRECTION('ref_axis',(-1.,0.,0.));
#533=DIRECTION('center_axis',(0.,0.,-1.));
#534=DIRECTION('ref_axis',(-1.,0.,0.));
#535=DIRECTION('',(-0.857167300702112,1.04972719113862E-16,0.515038074910054));
#536=DIRECTION('center_axis',(0.,0.,-1.));
#537=DIRECTION('ref_axis',(-1.,0.,0.));
#538=DIRECTION('center_axis',(0.,0.,1.));
#539=DIRECTION('ref_axis',(-1.,0.,0.));
#540=DIRECTION('',(0.,0.,1.));
#541=DIRECTION('center_axis',(-1.,2.66453525910038E-16,0.));
#542=DIRECTION('ref_axis',(2.66453525910038E-16,1.,0.));
#543=DIRECTION('',(-2.66453525910038E-16,-1.,0.));
#544=DIRECTION('',(0.,0.,1.));
#545=DIRECTION('center_axis',(-1.22681520349232E-16,-1.,0.));
#546=DIRECTION('ref_axis',(-1.,1.22681520349232E-16,0.));
#547=DIRECTION('',(-1.22681520349232E-16,-1.,0.));
#548=DIRECTION('center_axis',(0.,0.,-1.));
#549=DIRECTION('ref_axis',(1.,0.,0.));
#550=DIRECTION('center_axis',(0.,0.,-1.));
#551=DIRECTION('ref_axis',(1.,0.,0.));
#552=DIRECTION('',(0.,0.,1.));
#553=DIRECTION('center_axis',(0.,0.,1.));
#554=DIRECTION('ref_axis',(1.,0.,0.));
#555=DIRECTION('center_axis',(0.,0.,-1.));
#556=DIRECTION('ref_axis',(1.,0.,0.));
#557=DIRECTION('center_axis',(0.,0.,1.));
#558=DIRECTION('ref_axis',(1.,0.,0.));
#559=DIRECTION('center_axis',(-1.22681520349232E-16,1.,0.));
#560=DIRECTION('ref_axis',(1.,1.22681520349232E-16,0.));
#561=DIRECTION('',(1.22681520349232E-16,-1.,0.));
#562=DIRECTION('center_axis',(0.,0.,-1.));
#563=DIRECTION('ref_axis',(-1.,0.,0.));
#564=DIRECTION('center_axis',(0.,0.,1.));
#565=DIRECTION('ref_axis',(1.,0.,0.));
#566=DIRECTION('',(4.80096443081149E-16,-1.,0.));
#567=DIRECTION('',(-1.,-2.40048221540574E-16,0.));
#568=DIRECTION('',(-3.00060276925718E-16,1.,0.));
#569=DIRECTION('',(1.,1.20024110770287E-16,0.));
#570=DIRECTION('center_axis',(-2.40048221540574E-16,1.,0.));
#571=DIRECTION('ref_axis',(1.,2.40048221540574E-16,0.));
#572=DIRECTION('',(0.,0.,-1.));
#573=DIRECTION('',(1.,2.40048221540574E-16,0.));
#574=DIRECTION('',(0.,0.,-1.));
#575=DIRECTION('center_axis',(1.,3.00060276925718E-16,0.));
#576=DIRECTION('ref_axis',(3.00060276925718E-16,-1.,0.));
#577=DIRECTION('',(3.00060276925718E-16,-1.,0.));
#578=DIRECTION('',(0.,0.,-1.));
#579=DIRECTION('center_axis',(1.20024110770287E-16,-1.,0.));
#580=DIRECTION('ref_axis',(-1.,-1.20024110770287E-16,0.));
#581=DIRECTION('',(-1.,-1.20024110770287E-16,0.));
#582=DIRECTION('',(0.,0.,-1.));
#583=DIRECTION('center_axis',(-1.,-4.80096443081149E-16,0.));
#584=DIRECTION('ref_axis',(-4.80096443081149E-16,1.,0.));
#585=DIRECTION('',(-4.80096443081149E-16,1.,0.));
#586=DIRECTION('center_axis',(0.,0.,1.));
#587=DIRECTION('ref_axis',(1.,0.,0.));
#588=DIRECTION('',(0.,0.,1.));
#589=DIRECTION('',(1.,0.,0.));
#590=CARTESIAN_POINT('',(0.,0.,0.));
#591=CARTESIAN_POINT('',(0.,0.,0.));
#592=CARTESIAN_POINT('Origin',(-25.25,6.25000000000001,-5.));
#593=CARTESIAN_POINT('',(-20.25,4.44089209850063E-15,-5.));
#594=CARTESIAN_POINT('',(-25.25,3.10469078598122E-15,-10.));
#595=CARTESIAN_POINT('Origin',(-25.25,2.22044604925031E-15,-5.));
#596=CARTESIAN_POINT('',(-20.25,19.6977156035922,-5.));
#597=CARTESIAN_POINT('',(-20.25,6.25000000000001,-5.));
#598=CARTESIAN_POINT('',(-25.25,12.6688594593199,-10.));
#599=CARTESIAN_POINT('Ctrl Pts',(-20.25,19.6977156035922,-5.));
#600=CARTESIAN_POINT('Ctrl Pts',(-20.25,19.6977156035922,-5.42254964171183));
#601=CARTESIAN_POINT('Ctrl Pts',(-20.3076333972117,19.638973994443,-5.87378425646489));
#602=CARTESIAN_POINT('Ctrl Pts',(-20.5337704319523,19.4024108844674,-6.71687589274786));
#603=CARTESIAN_POINT('Ctrl Pts',(-20.7012864786961,19.2247713123796,-7.10904852821222));
#604=CARTESIAN_POINT('Ctrl Pts',(-21.1565341719982,18.7250857135255,-7.92570058639614));
#605=CARTESIAN_POINT('Ctrl Pts',(-21.5108769101392,18.3220702168688,-8.35813925145599));
#606=CARTESIAN_POINT('Ctrl Pts',(-22.2628015699925,17.4006826490303,-9.04163093493412));
#607=CARTESIAN_POINT('Ctrl Pts',(-22.658802094669,16.8824214993316,-9.29457099108397));
#608=CARTESIAN_POINT('Ctrl Pts',(-23.8092050774713,15.2664554586896,-9.86977248248514));
#609=CARTESIAN_POINT('Ctrl Pts',(-24.5512355278669,14.0497691045316,-9.99393374332545));
#610=CARTESIAN_POINT('Ctrl Pts',(-25.220149645881,12.7282227421477,-9.99993337877612));
#611=CARTESIAN_POINT('Ctrl Pts',(-25.2350978531665,12.6985605708332,-10.));
#612=CARTESIAN_POINT('Ctrl Pts',(-25.25,12.6688594593199,-10.));
#613=CARTESIAN_POINT('',(-25.25,6.25000000000001,-10.));
#614=CARTESIAN_POINT('Origin',(-28.25,3.47273534702891E-15,0.));
#615=CARTESIAN_POINT('',(-28.25,0.,-10.));
#616=CARTESIAN_POINT('',(41.9961770582235,-5.1451724531953E-15,-10.));
#617=CARTESIAN_POINT('',(-28.25,0.,0.));
#618=CARTESIAN_POINT('',(-28.25,2.22044604925031E-15,0.));
#619=CARTESIAN_POINT('',(-20.25,4.44089209850063E-15,0.));
#620=CARTESIAN_POINT('',(-14.125,1.73985887209601E-15,0.));
#621=CARTESIAN_POINT('',(-20.25,4.44089209850063E-15,0.));
#622=CARTESIAN_POINT('',(-22.629,0.,-5.));
#623=CARTESIAN_POINT('Origin',(-24.25,0.,-5.));
#624=CARTESIAN_POINT('Origin',(-24.25,12.5,-10.));
#625=CARTESIAN_POINT('Origin',(0.,0.,-10.));
#626=CARTESIAN_POINT('Origin',(25.25,6.25000000000001,-5.));
#627=CARTESIAN_POINT('',(25.25,3.10469078598122E-15,-10.));
#628=CARTESIAN_POINT('',(20.25,4.44089209850063E-15,-5.));
#629=CARTESIAN_POINT('Origin',(25.25,2.22044604925031E-15,-5.));
#630=CARTESIAN_POINT('',(25.25,12.6688594593199,-10.));
#631=CARTESIAN_POINT('',(25.25,6.25000000000001,-10.));
#632=CARTESIAN_POINT('',(20.25,19.6977156035922,-5.));
#633=CARTESIAN_POINT('Ctrl Pts',(25.2500000000032,12.6688594593135,-10.));
#634=CARTESIAN_POINT('Ctrl Pts',(25.2350978531686,12.6985605708289,-10.));
#635=CARTESIAN_POINT('Ctrl Pts',(25.2201496458821,12.7282227421456,-9.99993337877613));
#636=CARTESIAN_POINT('Ctrl Pts',(24.5512355278669,14.0497691045316,-9.99393374332545));
#637=CARTESIAN_POINT('Ctrl Pts',(23.8092050774713,15.2664554586896,-9.86977248248514));
#638=CARTESIAN_POINT('Ctrl Pts',(22.658802094669,16.8824214993316,-9.29457099108397));
#639=CARTESIAN_POINT('Ctrl Pts',(22.2628015699925,17.4006826490303,-9.04163093493412));
#640=CARTESIAN_POINT('Ctrl Pts',(21.5108769101392,18.3220702168688,-8.35813925145599));
#641=CARTESIAN_POINT('Ctrl Pts',(21.1565341719982,18.7250857135255,-7.92570058639614));
#642=CARTESIAN_POINT('Ctrl Pts',(20.7012864786961,19.2247713123796,-7.10904852821222));
#643=CARTESIAN_POINT('Ctrl Pts',(20.5337704319523,19.4024108844674,-6.71687589274786));
#644=CARTESIAN_POINT('Ctrl Pts',(20.3076333972116,19.638973994443,-5.87378425646489));
#645=CARTESIAN_POINT('Ctrl Pts',(20.25,19.6977156035922,-5.42254964171184));
#646=CARTESIAN_POINT('Ctrl Pts',(20.25,19.6977156035922,-5.));
#647=CARTESIAN_POINT('',(20.25,6.25000000000001,-5.));
#648=CARTESIAN_POINT('Origin',(28.25,3.47273534702891E-15,0.));
#649=CARTESIAN_POINT('',(20.25,4.44089209850063E-15,0.));
#650=CARTESIAN_POINT('',(20.25,4.44089209850063E-15,0.));
#651=CARTESIAN_POINT('',(28.25,0.,0.));
#652=CARTESIAN_POINT('',(14.125,1.73985887209601E-15,0.));
#653=CARTESIAN_POINT('',(28.25,0.,-10.));
#654=CARTESIAN_POINT('',(28.25,2.22044604925031E-15,0.));
#655=CARTESIAN_POINT('',(-41.9961770582235,-5.1451724531953E-15,-10.));
#656=CARTESIAN_POINT('',(22.629,0.,-5.));
#657=CARTESIAN_POINT('Origin',(24.25,0.,-5.));
#658=CARTESIAN_POINT('Origin',(20.25,4.44089209850063E-15,0.));
#659=CARTESIAN_POINT('',(20.25,19.6977156035922,0.));
#660=CARTESIAN_POINT('',(20.25,19.6977156035922,0.));
#661=CARTESIAN_POINT('',(20.25,4.91828799908944E-15,0.));
#662=CARTESIAN_POINT('Origin',(-2.75590759652528E-15,-23.375,-64.2613920840604));
#663=CARTESIAN_POINT('',(2.4585,-23.375,-65.));
#664=CARTESIAN_POINT('Origin',(-2.75590759652528E-15,-23.375,-65.));
#665=CARTESIAN_POINT('',(-2.75590759652528E-15,-23.375,-63.5227841681208));
#666=CARTESIAN_POINT('',(1.22925,-23.375,-64.2613920840604));
#667=CARTESIAN_POINT('Origin',(-2.75590759652528E-15,-23.375,-72.5));
#668=CARTESIAN_POINT('',(2.4585,-23.375,-80.));
#669=CARTESIAN_POINT('Origin',(-2.75590759652528E-15,-23.375,-80.));
#670=CARTESIAN_POINT('',(2.4585,-23.375,-72.5));
#671=CARTESIAN_POINT('Origin',(2.77555756156289E-15,23.375,-64.2613920840604));
#672=CARTESIAN_POINT('',(2.4585,23.375,-65.));
#673=CARTESIAN_POINT('Origin',(2.77555756156289E-15,23.375,-65.));
#674=CARTESIAN_POINT('',(2.77555756156289E-15,23.375,-63.5227841681208));
#675=CARTESIAN_POINT('',(1.22925,23.375,-64.2613920840604));
#676=CARTESIAN_POINT('Origin',(2.77555756156289E-15,23.375,-72.5));
#677=CARTESIAN_POINT('',(2.4585,23.375,-80.));
#678=CARTESIAN_POINT('Origin',(2.77555756156289E-15,23.375,-80.));
#679=CARTESIAN_POINT('',(2.4585,23.375,-72.5));
#680=CARTESIAN_POINT('Origin',(-20.25,4.44089209850063E-15,0.));
#681=CARTESIAN_POINT('',(-20.25,19.6977156035922,0.));
#682=CARTESIAN_POINT('',(-20.25,4.91828799908944E-15,0.));
#683=CARTESIAN_POINT('',(-20.25,19.6977156035922,0.));
#684=CARTESIAN_POINT('Origin',(-24.25,-113.068563270257,-5.));
#685=CARTESIAN_POINT('',(-22.629,-16.9112642637977,-5.));
#686=CARTESIAN_POINT('',(-22.629,-113.068563270257,-5.));
#687=CARTESIAN_POINT('',(-25.871,-11.3469757644934,-5.));
#688=CARTESIAN_POINT('Ctrl Pts',(-25.871,-11.3469757644934,-5.));
#689=CARTESIAN_POINT('Ctrl Pts',(-25.871,-11.3469757644934,-4.92405826718673));
#690=CARTESIAN_POINT('Ctrl Pts',(-25.8652329951489,-11.3601494502922,-4.8428591784842));
#691=CARTESIAN_POINT('Ctrl Pts',(-25.8428159117016,-11.4110533779898,-4.68918119584769));
#692=CARTESIAN_POINT('Ctrl Pts',(-25.8263191961999,-11.4483904674372,-4.61655003131523));
#693=CARTESIAN_POINT('Ctrl Pts',(-25.748295975676,-11.6236703936123,-4.34363642731629));
#694=CARTESIAN_POINT('Ctrl Pts',(-25.6454480235743,-11.8500414776536,-4.15984092367181));
#695=CARTESIAN_POINT('Ctrl Pts',(-25.3820363978856,-12.4084585846758,-3.80615395539627));
#696=CARTESIAN_POINT('Ctrl Pts',(-25.1754671602103,-12.8252832792427,-3.64602840833867));
#697=CARTESIAN_POINT('Ctrl Pts',(-24.7260974548343,-13.6715816102218,-3.43058645968535));
#698=CARTESIAN_POINT('Ctrl Pts',(-24.482832012271,-14.1017535656965,-3.379));
#699=CARTESIAN_POINT('Ctrl Pts',(-24.0516224957044,-14.8233434435864,-3.379));
#700=CARTESIAN_POINT('Ctrl Pts',(-23.8275458397277,-15.1813463983306,-3.41649788114308));
#701=CARTESIAN_POINT('Ctrl Pts',(-23.3843678879043,-15.8554898156689,-3.60837224691223));
#702=CARTESIAN_POINT('Ctrl Pts',(-23.1651378046117,-16.172094197837,-3.76081613482873));
#703=CARTESIAN_POINT('Ctrl Pts',(-22.8903531931838,-16.5565639701321,-4.10489616413225));
#704=CARTESIAN_POINT('Ctrl Pts',(-22.7983189990254,-16.6826656119306,-4.25508801595552));
#705=CARTESIAN_POINT('Ctrl Pts',(-22.7000365654227,-16.8158819191411,-4.51635512229446));
#706=CARTESIAN_POINT('Ctrl Pts',(-22.6737198697025,-16.8512841306266,-4.6093980323202));
#707=CARTESIAN_POINT('Ctrl Pts',(-22.638203577266,-16.8989691260313,-4.80176248139334));
#708=CARTESIAN_POINT('Ctrl Pts',(-22.629,-16.9112642637977,-4.90108022289271));
#709=CARTESIAN_POINT('Ctrl Pts',(-22.629,-16.9112642637977,-5.));
#710=CARTESIAN_POINT('Ctrl Pts',(-22.629,-16.9112642637977,-5.));
#711=CARTESIAN_POINT('Ctrl Pts',(-22.629,-16.9112642637977,-5.09891977710729));
#712=CARTESIAN_POINT('Ctrl Pts',(-22.638203577266,-16.8989691260313,-5.19823751860665));
#713=CARTESIAN_POINT('Ctrl Pts',(-22.6737198697025,-16.8512841306266,-5.39060196767979));
#714=CARTESIAN_POINT('Ctrl Pts',(-22.7000365654227,-16.8158819191411,-5.48364487770553));
#715=CARTESIAN_POINT('Ctrl Pts',(-22.7983189990254,-16.6826656119306,-5.74491198404447));
#716=CARTESIAN_POINT('Ctrl Pts',(-22.8903531931838,-16.5565639701321,-5.89510383586775));
#717=CARTESIAN_POINT('Ctrl Pts',(-23.1651378046117,-16.172094197837,-6.23918386517126));
#718=CARTESIAN_POINT('Ctrl Pts',(-23.3843678879043,-15.8554898156689,-6.39162775308777));
#719=CARTESIAN_POINT('Ctrl Pts',(-23.8275458397277,-15.1813463983306,-6.58350211885692));
#720=CARTESIAN_POINT('Ctrl Pts',(-24.0516224957044,-14.8233434435864,-6.621));
#721=CARTESIAN_POINT('Ctrl Pts',(-24.482832012271,-14.1017535656965,-6.621));
#722=CARTESIAN_POINT('Ctrl Pts',(-24.7260974548343,-13.6715816102218,-6.56941354031465));
#723=CARTESIAN_POINT('Ctrl Pts',(-25.1754671602102,-12.8252832792427,-6.35397159166133));
#724=CARTESIAN_POINT('Ctrl Pts',(-25.3820363978856,-12.4084585846758,-6.19384604460372));
#725=CARTESIAN_POINT('Ctrl Pts',(-25.6454480235743,-11.8500414776536,-5.84015907632819));
#726=CARTESIAN_POINT('Ctrl Pts',(-25.748295975676,-11.6236703936123,-5.65636357268371));
#727=CARTESIAN_POINT('Ctrl Pts',(-25.8263191961999,-11.4483904674372,-5.38344996868477));
#728=CARTESIAN_POINT('Ctrl Pts',(-25.8428159117016,-11.4110533779898,-5.3108188041523));
#729=CARTESIAN_POINT('Ctrl Pts',(-25.8652329951489,-11.3601494502922,-5.1571408215158));
#730=CARTESIAN_POINT('Ctrl Pts',(-25.871,-11.3469757644934,-5.07594173281327));
#731=CARTESIAN_POINT('Ctrl Pts',(-25.871,-11.3469757644934,-5.));
#732=CARTESIAN_POINT('Origin',(0.,0.,0.));
#733=CARTESIAN_POINT('',(-28.25,3.45962720759127E-15,-80.));
#734=CARTESIAN_POINT('Origin',(0.,0.,-80.));
#735=CARTESIAN_POINT('',(-28.25,3.45962720759127E-15,0.));
#736=CARTESIAN_POINT('Origin',(0.,0.,0.));
#737=CARTESIAN_POINT('Origin',(0.,0.,-10.));
#738=CARTESIAN_POINT('Origin',(0.,0.,0.));
#739=CARTESIAN_POINT('',(25.871,-11.3469757644934,-5.));
#740=CARTESIAN_POINT('',(22.629,-16.9112642637977,-5.));
#741=CARTESIAN_POINT('Ctrl Pts',(25.871,-11.3469757644934,-5.));
#742=CARTESIAN_POINT('Ctrl Pts',(25.871,-11.3469757644934,-5.07594173281327));
#743=CARTESIAN_POINT('Ctrl Pts',(25.8652329951489,-11.3601494502922,-5.1571408215158));
#744=CARTESIAN_POINT('Ctrl Pts',(25.8428159117016,-11.4110533779898,-5.3108188041523));
#745=CARTESIAN_POINT('Ctrl Pts',(25.8263191961999,-11.4483904674372,-5.38344996868477));
#746=CARTESIAN_POINT('Ctrl Pts',(25.748295975676,-11.6236703936123,-5.65636357268371));
#747=CARTESIAN_POINT('Ctrl Pts',(25.6454480235743,-11.8500414776536,-5.84015907632819));
#748=CARTESIAN_POINT('Ctrl Pts',(25.3820363978856,-12.4084585846758,-6.19384604460372));
#749=CARTESIAN_POINT('Ctrl Pts',(25.1754671602103,-12.8252832792427,-6.35397159166133));
#750=CARTESIAN_POINT('Ctrl Pts',(24.7260974548343,-13.6715816102218,-6.56941354031465));
#751=CARTESIAN_POINT('Ctrl Pts',(24.482832012271,-14.1017535656965,-6.621));
#752=CARTESIAN_POINT('Ctrl Pts',(24.0516224957044,-14.8233434435864,-6.621));
#753=CARTESIAN_POINT('Ctrl Pts',(23.8275458397277,-15.1813463983306,-6.58350211885692));
#754=CARTESIAN_POINT('Ctrl Pts',(23.3843678879043,-15.8554898156689,-6.39162775308777));
#755=CARTESIAN_POINT('Ctrl Pts',(23.1651378046117,-16.172094197837,-6.23918386517126));
#756=CARTESIAN_POINT('Ctrl Pts',(22.8903531931838,-16.5565639701321,-5.89510383586775));
#757=CARTESIAN_POINT('Ctrl Pts',(22.7983189990254,-16.6826656119306,-5.74491198404447));
#758=CARTESIAN_POINT('Ctrl Pts',(22.7000365654227,-16.8158819191411,-5.48364487770553));
#759=CARTESIAN_POINT('Ctrl Pts',(22.6737198697025,-16.8512841306266,-5.39060196767979));
#760=CARTESIAN_POINT('Ctrl Pts',(22.638203577266,-16.8989691260313,-5.19823751860665));
#761=CARTESIAN_POINT('Ctrl Pts',(22.629,-16.9112642637977,-5.09891977710729));
#762=CARTESIAN_POINT('Ctrl Pts',(22.629,-16.9112642637977,-5.));
#763=CARTESIAN_POINT('Ctrl Pts',(22.629,-16.9112642637977,-5.));
#764=CARTESIAN_POINT('Ctrl Pts',(22.629,-16.9112642637977,-4.90108022289271));
#765=CARTESIAN_POINT('Ctrl Pts',(22.638203577266,-16.8989691260313,-4.80176248139334));
#766=CARTESIAN_POINT('Ctrl Pts',(22.6737198697025,-16.8512841306266,-4.6093980323202));
#767=CARTESIAN_POINT('Ctrl Pts',(22.7000365654227,-16.8158819191411,-4.51635512229446));
#768=CARTESIAN_POINT('Ctrl Pts',(22.7983189990254,-16.6826656119306,-4.25508801595552));
#769=CARTESIAN_POINT('Ctrl Pts',(22.8903531931838,-16.5565639701321,-4.10489616413225));
#770=CARTESIAN_POINT('Ctrl Pts',(23.1651378046117,-16.172094197837,-3.76081613482873));
#771=CARTESIAN_POINT('Ctrl Pts',(23.3843678879043,-15.8554898156689,-3.60837224691223));
#772=CARTESIAN_POINT('Ctrl Pts',(23.8275458397277,-15.1813463983306,-3.41649788114308));
#773=CARTESIAN_POINT('Ctrl Pts',(24.0516224957044,-14.8233434435864,-3.379));
#774=CARTESIAN_POINT('Ctrl Pts',(24.482832012271,-14.1017535656965,-3.379));
#775=CARTESIAN_POINT('Ctrl Pts',(24.7260974548343,-13.6715816102218,-3.43058645968535));
#776=CARTESIAN_POINT('Ctrl Pts',(25.1754671602102,-12.8252832792427,-3.64602840833866));
#777=CARTESIAN_POINT('Ctrl Pts',(25.3820363978856,-12.4084585846758,-3.80615395539628));
#778=CARTESIAN_POINT('Ctrl Pts',(25.6454480235743,-11.8500414776536,-4.15984092367181));
#779=CARTESIAN_POINT('Ctrl Pts',(25.748295975676,-11.6236703936123,-4.34363642731629));
#780=CARTESIAN_POINT('Ctrl Pts',(25.8263191961999,-11.4483904674372,-4.61655003131523));
#781=CARTESIAN_POINT('Ctrl Pts',(25.8428159117016,-11.4110533779898,-4.68918119584769));
#782=CARTESIAN_POINT('Ctrl Pts',(25.8652329951489,-11.3601494502922,-4.84285917848419));
#783=CARTESIAN_POINT('Ctrl Pts',(25.871,-11.3469757644934,-4.92405826718673));
#784=CARTESIAN_POINT('Ctrl Pts',(25.871,-11.3469757644934,-5.));
#785=CARTESIAN_POINT('Origin',(24.25,-113.068563270257,-5.));
#786=CARTESIAN_POINT('',(22.629,-113.068563270257,-5.));
#787=CARTESIAN_POINT('Origin',(24.25,12.5,-10.));
#788=CARTESIAN_POINT('Origin',(0.,0.,0.));
#789=CARTESIAN_POINT('',(18.5,18.5,0.));
#790=CARTESIAN_POINT('',(18.5,-18.5,0.));
#791=CARTESIAN_POINT('',(18.5,18.5,0.));
#792=CARTESIAN_POINT('',(-18.5,-18.5,0.));
#793=CARTESIAN_POINT('',(18.5,-18.5,0.));
#794=CARTESIAN_POINT('',(-18.5,18.5,0.));
#795=CARTESIAN_POINT('',(-18.5,-18.5,0.));
#796=CARTESIAN_POINT('',(-18.5,18.5,0.));
#797=CARTESIAN_POINT('Origin',(-18.5,-18.5,0.));
#798=CARTESIAN_POINT('',(18.5,-18.5,-80.));
#799=CARTESIAN_POINT('',(18.5,-18.5,0.));
#800=CARTESIAN_POINT('',(-18.5,-18.5,-80.));
#801=CARTESIAN_POINT('',(18.5,-18.5,-80.));
#802=CARTESIAN_POINT('',(-18.5,-18.5,0.));
#803=CARTESIAN_POINT('Origin',(-18.5,18.5,0.));
#804=CARTESIAN_POINT('',(-18.5,18.5,-80.));
#805=CARTESIAN_POINT('',(-18.5,-18.5,-80.));
#806=CARTESIAN_POINT('',(-18.5,18.5,0.));
#807=CARTESIAN_POINT('Origin',(18.5,18.5,0.));
#808=CARTESIAN_POINT('',(18.5,18.5,-80.));
#809=CARTESIAN_POINT('',(-18.5,18.5,-80.));
#810=CARTESIAN_POINT('',(18.5,18.5,0.));
#811=CARTESIAN_POINT('Origin',(18.5,-18.5,0.));
#812=CARTESIAN_POINT('',(18.5,18.5,-80.));
#813=CARTESIAN_POINT('Origin',(0.,0.,-80.));
#814=CARTESIAN_POINT('',(-5.77689234419648,-0.398406379642417,40.));
#815=UNCERTAINTY_MEASURE_WITH_UNIT(LENGTH_MEASURE(0.01),#821,
'DISTANCE_ACCURACY_VALUE',
'Maximum model space distance between geometric entities at asserted c
onnectivities');
#816=UNCERTAINTY_MEASURE_WITH_UNIT(LENGTH_MEASURE(0.01),#821,
'DISTANCE_ACCURACY_VALUE',
'Maximum model space distance between geometric entities at asserted c
onnectivities');
#817=UNCERTAINTY_MEASURE_WITH_UNIT(LENGTH_MEASURE(0.01),#821,
'DISTANCE_ACCURACY_VALUE',
'Maximum model space distance between geometric entities at asserted c
onnectivities');
#818=(
GEOMETRIC_REPRESENTATION_CONTEXT(3)
GLOBAL_UNCERTAINTY_ASSIGNED_CONTEXT((#815))
GLOBAL_UNIT_ASSIGNED_CONTEXT((#821,#823,#824))
REPRESENTATION_CONTEXT('','3D')
);
#819=(
GEOMETRIC_REPRESENTATION_CONTEXT(3)
GLOBAL_UNCERTAINTY_ASSIGNED_CONTEXT((#816))
GLOBAL_UNIT_ASSIGNED_CONTEXT((#821,#823,#824))
REPRESENTATION_CONTEXT('','3D')
);
#820=(
GEOMETRIC_REPRESENTATION_CONTEXT(3)
GLOBAL_UNCERTAINTY_ASSIGNED_CONTEXT((#817))
GLOBAL_UNIT_ASSIGNED_CONTEXT((#821,#823,#824))
REPRESENTATION_CONTEXT('','3D')
);
#821=(
LENGTH_UNIT()
NAMED_UNIT(*)
SI_UNIT(.MILLI.,.METRE.)
);
#822=(
LENGTH_UNIT()
NAMED_UNIT(*)
SI_UNIT(.CENTI.,.METRE.)
);
#823=(
NAMED_UNIT(*)
PLANE_ANGLE_UNIT()
SI_UNIT($,.RADIAN.)
);
#824=(
NAMED_UNIT(*)
SI_UNIT($,.STERADIAN.)
SOLID_ANGLE_UNIT()
);
#825=SHAPE_DEFINITION_REPRESENTATION(#827,#830);
#826=SHAPE_DEFINITION_REPRESENTATION(#828,#831);
#827=PRODUCT_DEFINITION_SHAPE('',$,#833);
#828=PRODUCT_DEFINITION_SHAPE('',$,#834);
#829=PRODUCT_DEFINITION_SHAPE($,$,#14);
#830=SHAPE_REPRESENTATION('',(#444,#480),#818);
#831=SHAPE_REPRESENTATION('',(#445),#819);
#832=PRODUCT_DEFINITION_CONTEXT('part definition',#840,'design');
#833=PRODUCT_DEFINITION('Assembly_Y2','Assembly_Y2',#835,#832);
#834=PRODUCT_DEFINITION('Part3_A_Y','Part3_A_Y',#836,#832);
#835=PRODUCT_DEFINITION_FORMATION('',$,#842);
#836=PRODUCT_DEFINITION_FORMATION('',$,#843);
#837=PRODUCT_RELATED_PRODUCT_CATEGORY('Assembly_Y2','Assembly_Y2',(#842));
#838=PRODUCT_RELATED_PRODUCT_CATEGORY('Part3_A_Y','Part3_A_Y',(#843));
#839=APPLICATION_PROTOCOL_DEFINITION('international standard',
'automotive_design',2009,#840);
#840=APPLICATION_CONTEXT(
'Core Data for Automotive Mechanical Design Process');
#841=PRODUCT_CONTEXT('part definition',#840,'mechanical');
#842=PRODUCT('Assembly_Y2','Assembly_Y2',$,(#841));
#843=PRODUCT('Part3_A_Y','Part3_A_Y',$,(#841));
ENDSEC;
END-ISO-10303-21;
