ISO-10303-21;
HEADER;
/* Generated by software containing ST-Developer
 * from STEP Tools, Inc. (www.steptools.com) 
 */

FILE_DESCRIPTION(
/* description */ (''),
/* implementation_level */ '2;1');

FILE_NAME(
/* name */ 'Assembly_X2.stp',
/* time_stamp */ '2026-02-19T19:07:56+09:00',
/* author */ ('Hirotaka-Honda'),
/* organization */ (''),
/* preprocessor_version */ 'ST-DEVELOPER v20.1',
/* originating_system */ 'Autodesk Inventor 2026',
/* authorisation */ '');

FILE_SCHEMA (('AUTOMOTIVE_DESIGN { 1 0 10303 214 3 1 1 }'));
ENDSEC;

DATA;
#10=MECHANICAL_DESIGN_GEOMETRIC_PRESENTATION_REPRESENTATION('',(#17),#1164);
#11=ITEM_DEFINED_TRANSFORMATION($,$,#594,#638);
#12=(
REPRESENTATION_RELATIONSHIP($,$,#1175,#1174)
REPRESENTATION_RELATIONSHIP_WITH_TRANSFORMATION(#11)
SHAPE_REPRESENTATION_RELATIONSHIP()
);
#13=CONTEXT_DEPENDENT_SHAPE_REPRESENTATION(#12,#1173);
#14=NEXT_ASSEMBLY_USAGE_OCCURRENCE('Part3_A_X:1','Part3_A_X:1',
'Part3_A_X:1',#1177,#1178,'Part3_A_X:1');
#15=SHAPE_REPRESENTATION_RELATIONSHIP('SRR','None',#1175,#16);
#16=ADVANCED_BREP_SHAPE_REPRESENTATION('',(#18),#1163);
#17=STYLED_ITEM('',(#572),#18);
#18=MANIFOLD_SOLID_BREP('\X2\30BD30EA30C330C9\X0\1',#556);
#19=FACE_BOUND('',#76,.T.);
#20=FACE_BOUND('',#80,.T.);
#21=FACE_BOUND('',#84,.T.);
#22=FACE_BOUND('',#88,.T.);
#23=FACE_BOUND('',#93,.T.);
#24=FACE_BOUND('',#97,.T.);
#25=FACE_BOUND('',#98,.T.);
#26=FACE_BOUND('',#99,.T.);
#27=FACE_BOUND('',#100,.T.);
#28=FACE_BOUND('',#106,.T.);
#29=PLANE('',#597);
#30=PLANE('',#599);
#31=PLANE('',#602);
#32=PLANE('',#604);
#33=PLANE('',#608);
#34=PLANE('',#610);
#35=PLANE('',#614);
#36=PLANE('',#616);
#37=PLANE('',#618);
#38=PLANE('',#620);
#39=PLANE('',#624);
#40=PLANE('',#629);
#41=PLANE('',#632);
#42=PLANE('',#633);
#43=PLANE('',#634);
#44=PLANE('',#635);
#45=PLANE('',#636);
#46=PLANE('',#637);
#47=FACE_OUTER_BOUND('',#74,.T.);
#48=FACE_OUTER_BOUND('',#75,.T.);
#49=FACE_OUTER_BOUND('',#77,.T.);
#50=FACE_OUTER_BOUND('',#78,.T.);
#51=FACE_OUTER_BOUND('',#79,.T.);
#52=FACE_OUTER_BOUND('',#81,.T.);
#53=FACE_OUTER_BOUND('',#82,.T.);
#54=FACE_OUTER_BOUND('',#83,.T.);
#55=FACE_OUTER_BOUND('',#85,.T.);
#56=FACE_OUTER_BOUND('',#86,.T.);
#57=FACE_OUTER_BOUND('',#87,.T.);
#58=FACE_OUTER_BOUND('',#89,.T.);
#59=FACE_OUTER_BOUND('',#90,.T.);
#60=FACE_OUTER_BOUND('',#91,.T.);
#61=FACE_OUTER_BOUND('',#92,.T.);
#62=FACE_OUTER_BOUND('',#94,.T.);
#63=FACE_OUTER_BOUND('',#95,.T.);
#64=FACE_OUTER_BOUND('',#96,.T.);
#65=FACE_OUTER_BOUND('',#101,.T.);
#66=FACE_OUTER_BOUND('',#102,.T.);
#67=FACE_OUTER_BOUND('',#103,.T.);
#68=FACE_OUTER_BOUND('',#104,.T.);
#69=FACE_OUTER_BOUND('',#105,.T.);
#70=FACE_OUTER_BOUND('',#107,.T.);
#71=FACE_OUTER_BOUND('',#108,.T.);
#72=FACE_OUTER_BOUND('',#109,.T.);
#73=FACE_OUTER_BOUND('',#110,.T.);
#74=EDGE_LOOP('',(#366,#367,#368,#369));
#75=EDGE_LOOP('',(#370,#371,#372,#373,#374));
#76=EDGE_LOOP('',(#375));
#77=EDGE_LOOP('',(#376,#377,#378,#379));
#78=EDGE_LOOP('',(#380,#381,#382,#383));
#79=EDGE_LOOP('',(#384,#385,#386,#387,#388));
#80=EDGE_LOOP('',(#389));
#81=EDGE_LOOP('',(#390,#391,#392));
#82=EDGE_LOOP('',(#393,#394,#395,#396));
#83=EDGE_LOOP('',(#397,#398,#399,#400,#401));
#84=EDGE_LOOP('',(#402));
#85=EDGE_LOOP('',(#403,#404,#405));
#86=EDGE_LOOP('',(#406,#407,#408,#409));
#87=EDGE_LOOP('',(#410,#411,#412,#413,#414));
#88=EDGE_LOOP('',(#415));
#89=EDGE_LOOP('',(#416,#417,#418,#419));
#90=EDGE_LOOP('',(#420,#421,#422,#423,#424));
#91=EDGE_LOOP('',(#425,#426,#427));
#92=EDGE_LOOP('',(#428,#429,#430,#431,#432,#433));
#93=EDGE_LOOP('',(#434,#435,#436,#437));
#94=EDGE_LOOP('',(#438,#439,#440,#441,#442));
#95=EDGE_LOOP('',(#443,#444,#445,#446));
#96=EDGE_LOOP('',(#447,#448,#449,#450,#451,#452,#453,#454,#455,#456,#457,
#458,#459,#460,#461,#462,#463,#464,#465,#466,#467,#468));
#97=EDGE_LOOP('',(#469,#470));
#98=EDGE_LOOP('',(#471,#472));
#99=EDGE_LOOP('',(#473,#474));
#100=EDGE_LOOP('',(#475,#476));
#101=EDGE_LOOP('',(#477,#478,#479,#480));
#102=EDGE_LOOP('',(#481,#482,#483,#484,#485));
#103=EDGE_LOOP('',(#486,#487,#488,#489,#490));
#104=EDGE_LOOP('',(#491,#492,#493));
#105=EDGE_LOOP('',(#494,#495,#496,#497,#498,#499));
#106=EDGE_LOOP('',(#500,#501,#502,#503));
#107=EDGE_LOOP('',(#504,#505,#506,#507));
#108=EDGE_LOOP('',(#508,#509,#510,#511));
#109=EDGE_LOOP('',(#512,#513,#514,#515));
#110=EDGE_LOOP('',(#516,#517,#518,#519));
#111=B_SPLINE_CURVE_WITH_KNOTS('',3,(#789,#790,#791,#792,#793,#794,#795,
#796,#797,#798,#799,#800,#801,#802),.UNSPECIFIED.,.F.,.F.,(4,2,2,2,2,2,
4),(2.24336804840954,2.25318936887886,2.68151998313688,2.87279142025967,
3.06406285738245,3.190827749896,3.31759264240955),.UNSPECIFIED.);
#112=B_SPLINE_CURVE_WITH_KNOTS('',3,(#825,#826,#827,#828,#829,#830,#831,
#832,#833,#834,#835,#836,#837,#838),.UNSPECIFIED.,.F.,.F.,(4,2,2,2,2,2,
4),(3.31759264240955,3.4443575349231,3.57112242743665,3.76239386455944,
3.95366530168223,4.38199591594025,4.39181723640886),.UNSPECIFIED.);
#113=B_SPLINE_CURVE_WITH_KNOTS('',3,(#859,#860,#861,#862,#863,#864,#865,
#866,#867,#868,#869,#870,#871,#872),.UNSPECIFIED.,.F.,.F.,(4,2,2,2,2,2,
4),(3.31759264240955,3.4443575349231,3.57112242743665,3.76239386455944,
3.95366530168223,4.38199591594025,4.39181723640886),.UNSPECIFIED.);
#114=B_SPLINE_CURVE_WITH_KNOTS('',3,(#893,#894,#895,#896,#897,#898,#899,
#900,#901,#902,#903,#904,#905,#906),.UNSPECIFIED.,.F.,.F.,(4,2,2,2,2,2,
4),(2.24336804840954,2.25318936887886,2.68151998313688,2.87279142025966,
3.06406285738245,3.190827749896,3.31759264240955),.UNSPECIFIED.);
#115=B_SPLINE_CURVE_WITH_KNOTS('',3,(#926,#927,#928,#929,#930,#931,#932,
#933,#934,#935,#936,#937,#938,#939,#940,#941,#942,#943,#944,#945,#946,#947),
 .UNSPECIFIED.,.F.,.F.,(4,2,2,2,2,2,2,2,2,2,4),(0.74593685633395,0.768719376177931,
0.791501896021912,0.868800972706823,1.00496824918838,1.14113552566993,1.25715275290454,
1.37316998013916,1.43252184640353,1.46219777953571,1.4918737126679),
 .UNSPECIFIED.);
#116=B_SPLINE_CURVE_WITH_KNOTS('',3,(#948,#949,#950,#951,#952,#953,#954,
#955,#956,#957,#958,#959,#960,#961,#962,#963,#964,#965,#966,#967,#968,#969),
 .UNSPECIFIED.,.F.,.F.,(4,2,2,2,2,2,2,2,2,2,4),(1.4918737126679,1.52154964580009,
1.55122557893227,1.61057744519664,1.72659467243126,1.84261189966587,1.97877917614742,
2.11494645262898,2.19224552931389,2.21502804915787,2.23781056900185),
 .UNSPECIFIED.);
#117=B_SPLINE_CURVE_WITH_KNOTS('',3,(#989,#990,#991,#992,#993,#994,#995,
#996,#997,#998,#999,#1000,#1001,#1002,#1003,#1004,#1005,#1006,#1007,#1008,
#1009,#1010),.UNSPECIFIED.,.F.,.F.,(4,2,2,2,2,2,2,2,2,2,4),(0.745936856333951,
0.768719376177932,0.791501896021912,0.868800972706824,1.00496824918838,
1.14113552566993,1.25715275290454,1.37316998013916,1.43252184640353,1.46219777953571,
1.4918737126679),.UNSPECIFIED.);
#118=B_SPLINE_CURVE_WITH_KNOTS('',3,(#1011,#1012,#1013,#1014,#1015,#1016,
#1017,#1018,#1019,#1020,#1021,#1022,#1023,#1024,#1025,#1026,#1027,#1028,
#1029,#1030,#1031,#1032),.UNSPECIFIED.,.F.,.F.,(4,2,2,2,2,2,2,2,2,2,4),
(1.4918737126679,1.52154964580009,1.55122557893227,1.61057744519665,1.72659467243126,
1.84261189966587,1.97877917614742,2.11494645262898,2.19224552931389,2.21502804915787,
2.23781056900185),.UNSPECIFIED.);
#119=B_SPLINE_CURVE_WITH_KNOTS('',3,(#1044,#1045,#1046,#1047,#1048,#1049,
#1050,#1051,#1052,#1053,#1054,#1055,#1056,#1057,#1058,#1059,#1060,#1061,
#1062,#1063,#1064,#1065),.UNSPECIFIED.,.F.,.F.,(4,2,2,2,2,2,2,2,2,2,4),
(0.,0.0227825198439813,0.0455650396879625,0.122864116372873,0.259031392854429,
0.395198669335984,0.511215896570595,0.627233123805206,0.686584990069578,
0.716260923201765,0.745936856333951),.UNSPECIFIED.);
#120=B_SPLINE_CURVE_WITH_KNOTS('',3,(#1066,#1067,#1068,#1069,#1070,#1071,
#1072,#1073,#1074,#1075,#1076,#1077,#1078,#1079,#1080,#1081,#1082,#1083,
#1084,#1085,#1086,#1087),.UNSPECIFIED.,.F.,.F.,(4,2,2,2,2,2,2,2,2,2,4),
(0.745936856333951,0.775612789466137,0.805288722598323,0.864640588862696,
0.980657816097307,1.09667504333192,1.23284231981347,1.36900959629503,1.44630867297994,
1.46909119282392,1.4918737126679),.UNSPECIFIED.);
#121=B_SPLINE_CURVE_WITH_KNOTS('',3,(#1090,#1091,#1092,#1093,#1094,#1095,
#1096,#1097,#1098,#1099,#1100,#1101,#1102,#1103,#1104,#1105,#1106,#1107,
#1108,#1109,#1110,#1111),.UNSPECIFIED.,.F.,.F.,(4,2,2,2,2,2,2,2,2,2,4),
(0.,0.0227825198439813,0.0455650396879625,0.122864116372873,0.259031392854429,
0.395198669335984,0.511215896570595,0.627233123805206,0.686584990069578,
0.716260923201765,0.745936856333951),.UNSPECIFIED.);
#122=B_SPLINE_CURVE_WITH_KNOTS('',3,(#1112,#1113,#1114,#1115,#1116,#1117,
#1118,#1119,#1120,#1121,#1122,#1123,#1124,#1125,#1126,#1127,#1128,#1129,
#1130,#1131,#1132,#1133),.UNSPECIFIED.,.F.,.F.,(4,2,2,2,2,2,2,2,2,2,4),
(0.745936856333951,0.775612789466137,0.805288722598323,0.864640588862696,
0.980657816097307,1.09667504333192,1.23284231981347,1.36900959629503,1.44630867297994,
1.46909119282392,1.4918737126679),.UNSPECIFIED.);
#123=LINE('',#787,#172);
#124=LINE('',#803,#173);
#125=LINE('',#806,#174);
#126=LINE('',#808,#175);
#127=LINE('',#810,#176);
#128=LINE('',#811,#177);
#129=LINE('',#816,#178);
#130=LINE('',#817,#179);
#131=LINE('',#823,#180);
#132=LINE('',#839,#181);
#133=LINE('',#842,#182);
#134=LINE('',#844,#183);
#135=LINE('',#846,#184);
#136=LINE('',#847,#185);
#137=LINE('',#857,#186);
#138=LINE('',#873,#187);
#139=LINE('',#876,#188);
#140=LINE('',#878,#189);
#141=LINE('',#880,#190);
#142=LINE('',#881,#191);
#143=LINE('',#891,#192);
#144=LINE('',#907,#193);
#145=LINE('',#910,#194);
#146=LINE('',#912,#195);
#147=LINE('',#914,#196);
#148=LINE('',#915,#197);
#149=LINE('',#920,#198);
#150=LINE('',#921,#199);
#151=LINE('',#924,#200);
#152=LINE('',#975,#201);
#153=LINE('',#979,#202);
#154=LINE('',#981,#203);
#155=LINE('',#983,#204);
#156=LINE('',#984,#205);
#157=LINE('',#987,#206);
#158=LINE('',#1034,#207);
#159=LINE('',#1036,#208);
#160=LINE('',#1038,#209);
#161=LINE('',#1135,#210);
#162=LINE('',#1137,#211);
#163=LINE('',#1139,#212);
#164=LINE('',#1144,#213);
#165=LINE('',#1146,#214);
#166=LINE('',#1148,#215);
#167=LINE('',#1149,#216);
#168=LINE('',#1151,#217);
#169=LINE('',#1152,#218);
#170=LINE('',#1154,#219);
#171=LINE('',#1156,#220);
#172=VECTOR('',#647,10.);
#173=VECTOR('',#648,10.);
#174=VECTOR('',#651,10.);
#175=VECTOR('',#652,10.);
#176=VECTOR('',#653,10.);
#177=VECTOR('',#654,10.);
#178=VECTOR('',#659,10.);
#179=VECTOR('',#660,10.);
#180=VECTOR('',#665,10.);
#181=VECTOR('',#666,10.);
#182=VECTOR('',#669,10.);
#183=VECTOR('',#670,10.);
#184=VECTOR('',#671,10.);
#185=VECTOR('',#672,10.);
#186=VECTOR('',#683,10.);
#187=VECTOR('',#684,10.);
#188=VECTOR('',#687,10.);
#189=VECTOR('',#688,10.);
#190=VECTOR('',#689,10.);
#191=VECTOR('',#690,10.);
#192=VECTOR('',#701,10.);
#193=VECTOR('',#702,10.);
#194=VECTOR('',#705,10.);
#195=VECTOR('',#706,10.);
#196=VECTOR('',#707,10.);
#197=VECTOR('',#708,10.);
#198=VECTOR('',#713,10.);
#199=VECTOR('',#714,10.);
#200=VECTOR('',#717,1.621);
#201=VECTOR('',#726,10.);
#202=VECTOR('',#729,10.);
#203=VECTOR('',#730,10.);
#204=VECTOR('',#731,10.);
#205=VECTOR('',#732,10.);
#206=VECTOR('',#735,1.621);
#207=VECTOR('',#738,10.);
#208=VECTOR('',#741,28.25);
#209=VECTOR('',#742,10.);
#210=VECTOR('',#751,10.);
#211=VECTOR('',#754,1.621);
#212=VECTOR('',#757,1.621);
#213=VECTOR('',#762,10.);
#214=VECTOR('',#763,10.);
#215=VECTOR('',#764,10.);
#216=VECTOR('',#765,10.);
#217=VECTOR('',#768,10.);
#218=VECTOR('',#769,10.);
#219=VECTOR('',#772,10.);
#220=VECTOR('',#775,10.);
#221=CIRCLE('',#596,5.);
#222=CIRCLE('',#598,1.621);
#223=CIRCLE('',#601,5.);
#224=CIRCLE('',#603,1.621);
#225=CIRCLE('',#605,28.25);
#226=CIRCLE('',#607,5.);
#227=CIRCLE('',#609,1.621);
#228=CIRCLE('',#611,28.25);
#229=CIRCLE('',#613,5.);
#230=CIRCLE('',#615,1.621);
#231=CIRCLE('',#619,28.25);
#232=CIRCLE('',#621,28.25);
#233=CIRCLE('',#622,28.25);
#234=CIRCLE('',#626,28.25);
#235=CIRCLE('',#627,28.25);
#236=CIRCLE('',#628,28.25);
#237=VERTEX_POINT('',#783);
#238=VERTEX_POINT('',#784);
#239=VERTEX_POINT('',#786);
#240=VERTEX_POINT('',#788);
#241=VERTEX_POINT('',#805);
#242=VERTEX_POINT('',#807);
#243=VERTEX_POINT('',#809);
#244=VERTEX_POINT('',#812);
#245=VERTEX_POINT('',#815);
#246=VERTEX_POINT('',#819);
#247=VERTEX_POINT('',#820);
#248=VERTEX_POINT('',#822);
#249=VERTEX_POINT('',#824);
#250=VERTEX_POINT('',#841);
#251=VERTEX_POINT('',#843);
#252=VERTEX_POINT('',#845);
#253=VERTEX_POINT('',#848);
#254=VERTEX_POINT('',#853);
#255=VERTEX_POINT('',#854);
#256=VERTEX_POINT('',#856);
#257=VERTEX_POINT('',#858);
#258=VERTEX_POINT('',#875);
#259=VERTEX_POINT('',#877);
#260=VERTEX_POINT('',#879);
#261=VERTEX_POINT('',#882);
#262=VERTEX_POINT('',#887);
#263=VERTEX_POINT('',#888);
#264=VERTEX_POINT('',#890);
#265=VERTEX_POINT('',#892);
#266=VERTEX_POINT('',#909);
#267=VERTEX_POINT('',#911);
#268=VERTEX_POINT('',#913);
#269=VERTEX_POINT('',#916);
#270=VERTEX_POINT('',#919);
#271=VERTEX_POINT('',#923);
#272=VERTEX_POINT('',#925);
#273=VERTEX_POINT('',#973);
#274=VERTEX_POINT('',#977);
#275=VERTEX_POINT('',#978);
#276=VERTEX_POINT('',#980);
#277=VERTEX_POINT('',#982);
#278=VERTEX_POINT('',#986);
#279=VERTEX_POINT('',#988);
#280=VERTEX_POINT('',#1037);
#281=VERTEX_POINT('',#1042);
#282=VERTEX_POINT('',#1043);
#283=VERTEX_POINT('',#1088);
#284=VERTEX_POINT('',#1089);
#285=VERTEX_POINT('',#1142);
#286=VERTEX_POINT('',#1143);
#287=VERTEX_POINT('',#1145);
#288=VERTEX_POINT('',#1147);
#289=EDGE_CURVE('',#237,#238,#221,.T.);
#290=EDGE_CURVE('',#237,#239,#123,.T.);
#291=EDGE_CURVE('',#239,#240,#111,.T.);
#292=EDGE_CURVE('',#240,#238,#124,.T.);
#293=EDGE_CURVE('',#241,#238,#125,.T.);
#294=EDGE_CURVE('',#242,#241,#126,.T.);
#295=EDGE_CURVE('',#243,#242,#127,.T.);
#296=EDGE_CURVE('',#243,#237,#128,.T.);
#297=EDGE_CURVE('',#244,#244,#222,.T.);
#298=EDGE_CURVE('',#245,#240,#129,.T.);
#299=EDGE_CURVE('',#241,#245,#130,.T.);
#300=EDGE_CURVE('',#246,#247,#223,.T.);
#301=EDGE_CURVE('',#246,#248,#131,.T.);
#302=EDGE_CURVE('',#248,#249,#112,.T.);
#303=EDGE_CURVE('',#249,#247,#132,.T.);
#304=EDGE_CURVE('',#250,#247,#133,.T.);
#305=EDGE_CURVE('',#251,#250,#134,.T.);
#306=EDGE_CURVE('',#252,#251,#135,.T.);
#307=EDGE_CURVE('',#252,#246,#136,.T.);
#308=EDGE_CURVE('',#253,#253,#224,.T.);
#309=EDGE_CURVE('',#250,#249,#225,.T.);
#310=EDGE_CURVE('',#254,#255,#226,.T.);
#311=EDGE_CURVE('',#254,#256,#137,.T.);
#312=EDGE_CURVE('',#256,#257,#113,.T.);
#313=EDGE_CURVE('',#257,#255,#138,.T.);
#314=EDGE_CURVE('',#258,#255,#139,.T.);
#315=EDGE_CURVE('',#258,#259,#140,.T.);
#316=EDGE_CURVE('',#260,#259,#141,.T.);
#317=EDGE_CURVE('',#260,#254,#142,.T.);
#318=EDGE_CURVE('',#261,#261,#227,.T.);
#319=EDGE_CURVE('',#258,#257,#228,.T.);
#320=EDGE_CURVE('',#262,#263,#229,.T.);
#321=EDGE_CURVE('',#262,#264,#143,.T.);
#322=EDGE_CURVE('',#264,#265,#114,.T.);
#323=EDGE_CURVE('',#265,#263,#144,.T.);
#324=EDGE_CURVE('',#266,#263,#145,.T.);
#325=EDGE_CURVE('',#267,#266,#146,.T.);
#326=EDGE_CURVE('',#267,#268,#147,.T.);
#327=EDGE_CURVE('',#268,#262,#148,.T.);
#328=EDGE_CURVE('',#269,#269,#230,.T.);
#329=EDGE_CURVE('',#270,#265,#149,.T.);
#330=EDGE_CURVE('',#266,#270,#150,.T.);
#331=EDGE_CURVE('',#244,#271,#151,.T.);
#332=EDGE_CURVE('',#272,#271,#115,.T.);
#333=EDGE_CURVE('',#271,#272,#116,.T.);
#334=EDGE_CURVE('',#239,#243,#231,.T.);
#335=EDGE_CURVE('',#245,#273,#232,.T.);
#336=EDGE_CURVE('',#273,#260,#152,.T.);
#337=EDGE_CURVE('',#259,#242,#233,.T.);
#338=EDGE_CURVE('',#274,#275,#153,.T.);
#339=EDGE_CURVE('',#275,#276,#154,.T.);
#340=EDGE_CURVE('',#276,#277,#155,.T.);
#341=EDGE_CURVE('',#277,#274,#156,.T.);
#342=EDGE_CURVE('',#261,#278,#157,.T.);
#343=EDGE_CURVE('',#279,#278,#117,.T.);
#344=EDGE_CURVE('',#278,#279,#118,.T.);
#345=EDGE_CURVE('',#256,#273,#158,.T.);
#346=EDGE_CURVE('',#243,#250,#159,.T.);
#347=EDGE_CURVE('',#248,#280,#160,.T.);
#348=EDGE_CURVE('',#270,#280,#234,.T.);
#349=EDGE_CURVE('',#264,#268,#235,.T.);
#350=EDGE_CURVE('',#251,#267,#236,.T.);
#351=EDGE_CURVE('',#281,#282,#119,.T.);
#352=EDGE_CURVE('',#282,#281,#120,.T.);
#353=EDGE_CURVE('',#283,#284,#121,.T.);
#354=EDGE_CURVE('',#284,#283,#122,.T.);
#355=EDGE_CURVE('',#280,#252,#161,.T.);
#356=EDGE_CURVE('',#253,#282,#162,.T.);
#357=EDGE_CURVE('',#269,#284,#163,.T.);
#358=EDGE_CURVE('',#285,#286,#164,.T.);
#359=EDGE_CURVE('',#286,#287,#165,.T.);
#360=EDGE_CURVE('',#287,#288,#166,.T.);
#361=EDGE_CURVE('',#288,#285,#167,.T.);
#362=EDGE_CURVE('',#286,#274,#168,.T.);
#363=EDGE_CURVE('',#287,#277,#169,.T.);
#364=EDGE_CURVE('',#288,#276,#170,.T.);
#365=EDGE_CURVE('',#285,#275,#171,.T.);
#366=ORIENTED_EDGE('',*,*,#289,.F.);
#367=ORIENTED_EDGE('',*,*,#290,.T.);
#368=ORIENTED_EDGE('',*,*,#291,.T.);
#369=ORIENTED_EDGE('',*,*,#292,.T.);
#370=ORIENTED_EDGE('',*,*,#289,.T.);
#371=ORIENTED_EDGE('',*,*,#293,.F.);
#372=ORIENTED_EDGE('',*,*,#294,.F.);
#373=ORIENTED_EDGE('',*,*,#295,.F.);
#374=ORIENTED_EDGE('',*,*,#296,.T.);
#375=ORIENTED_EDGE('',*,*,#297,.F.);
#376=ORIENTED_EDGE('',*,*,#292,.F.);
#377=ORIENTED_EDGE('',*,*,#298,.F.);
#378=ORIENTED_EDGE('',*,*,#299,.F.);
#379=ORIENTED_EDGE('',*,*,#293,.T.);
#380=ORIENTED_EDGE('',*,*,#300,.F.);
#381=ORIENTED_EDGE('',*,*,#301,.T.);
#382=ORIENTED_EDGE('',*,*,#302,.T.);
#383=ORIENTED_EDGE('',*,*,#303,.T.);
#384=ORIENTED_EDGE('',*,*,#300,.T.);
#385=ORIENTED_EDGE('',*,*,#304,.F.);
#386=ORIENTED_EDGE('',*,*,#305,.F.);
#387=ORIENTED_EDGE('',*,*,#306,.F.);
#388=ORIENTED_EDGE('',*,*,#307,.T.);
#389=ORIENTED_EDGE('',*,*,#308,.T.);
#390=ORIENTED_EDGE('',*,*,#303,.F.);
#391=ORIENTED_EDGE('',*,*,#309,.F.);
#392=ORIENTED_EDGE('',*,*,#304,.T.);
#393=ORIENTED_EDGE('',*,*,#310,.F.);
#394=ORIENTED_EDGE('',*,*,#311,.T.);
#395=ORIENTED_EDGE('',*,*,#312,.T.);
#396=ORIENTED_EDGE('',*,*,#313,.T.);
#397=ORIENTED_EDGE('',*,*,#310,.T.);
#398=ORIENTED_EDGE('',*,*,#314,.F.);
#399=ORIENTED_EDGE('',*,*,#315,.T.);
#400=ORIENTED_EDGE('',*,*,#316,.F.);
#401=ORIENTED_EDGE('',*,*,#317,.T.);
#402=ORIENTED_EDGE('',*,*,#318,.T.);
#403=ORIENTED_EDGE('',*,*,#313,.F.);
#404=ORIENTED_EDGE('',*,*,#319,.F.);
#405=ORIENTED_EDGE('',*,*,#314,.T.);
#406=ORIENTED_EDGE('',*,*,#320,.F.);
#407=ORIENTED_EDGE('',*,*,#321,.T.);
#408=ORIENTED_EDGE('',*,*,#322,.T.);
#409=ORIENTED_EDGE('',*,*,#323,.T.);
#410=ORIENTED_EDGE('',*,*,#320,.T.);
#411=ORIENTED_EDGE('',*,*,#324,.F.);
#412=ORIENTED_EDGE('',*,*,#325,.F.);
#413=ORIENTED_EDGE('',*,*,#326,.T.);
#414=ORIENTED_EDGE('',*,*,#327,.T.);
#415=ORIENTED_EDGE('',*,*,#328,.T.);
#416=ORIENTED_EDGE('',*,*,#323,.F.);
#417=ORIENTED_EDGE('',*,*,#329,.F.);
#418=ORIENTED_EDGE('',*,*,#330,.F.);
#419=ORIENTED_EDGE('',*,*,#324,.T.);
#420=ORIENTED_EDGE('',*,*,#297,.T.);
#421=ORIENTED_EDGE('',*,*,#331,.T.);
#422=ORIENTED_EDGE('',*,*,#332,.F.);
#423=ORIENTED_EDGE('',*,*,#333,.F.);
#424=ORIENTED_EDGE('',*,*,#331,.F.);
#425=ORIENTED_EDGE('',*,*,#290,.F.);
#426=ORIENTED_EDGE('',*,*,#296,.F.);
#427=ORIENTED_EDGE('',*,*,#334,.F.);
#428=ORIENTED_EDGE('',*,*,#294,.T.);
#429=ORIENTED_EDGE('',*,*,#299,.T.);
#430=ORIENTED_EDGE('',*,*,#335,.T.);
#431=ORIENTED_EDGE('',*,*,#336,.T.);
#432=ORIENTED_EDGE('',*,*,#316,.T.);
#433=ORIENTED_EDGE('',*,*,#337,.T.);
#434=ORIENTED_EDGE('',*,*,#338,.T.);
#435=ORIENTED_EDGE('',*,*,#339,.T.);
#436=ORIENTED_EDGE('',*,*,#340,.T.);
#437=ORIENTED_EDGE('',*,*,#341,.T.);
#438=ORIENTED_EDGE('',*,*,#318,.F.);
#439=ORIENTED_EDGE('',*,*,#342,.T.);
#440=ORIENTED_EDGE('',*,*,#343,.F.);
#441=ORIENTED_EDGE('',*,*,#344,.F.);
#442=ORIENTED_EDGE('',*,*,#342,.F.);
#443=ORIENTED_EDGE('',*,*,#311,.F.);
#444=ORIENTED_EDGE('',*,*,#317,.F.);
#445=ORIENTED_EDGE('',*,*,#336,.F.);
#446=ORIENTED_EDGE('',*,*,#345,.F.);
#447=ORIENTED_EDGE('',*,*,#295,.T.);
#448=ORIENTED_EDGE('',*,*,#337,.F.);
#449=ORIENTED_EDGE('',*,*,#315,.F.);
#450=ORIENTED_EDGE('',*,*,#319,.T.);
#451=ORIENTED_EDGE('',*,*,#312,.F.);
#452=ORIENTED_EDGE('',*,*,#345,.T.);
#453=ORIENTED_EDGE('',*,*,#335,.F.);
#454=ORIENTED_EDGE('',*,*,#298,.T.);
#455=ORIENTED_EDGE('',*,*,#291,.F.);
#456=ORIENTED_EDGE('',*,*,#334,.T.);
#457=ORIENTED_EDGE('',*,*,#346,.T.);
#458=ORIENTED_EDGE('',*,*,#309,.T.);
#459=ORIENTED_EDGE('',*,*,#302,.F.);
#460=ORIENTED_EDGE('',*,*,#347,.T.);
#461=ORIENTED_EDGE('',*,*,#348,.F.);
#462=ORIENTED_EDGE('',*,*,#329,.T.);
#463=ORIENTED_EDGE('',*,*,#322,.F.);
#464=ORIENTED_EDGE('',*,*,#349,.T.);
#465=ORIENTED_EDGE('',*,*,#326,.F.);
#466=ORIENTED_EDGE('',*,*,#350,.F.);
#467=ORIENTED_EDGE('',*,*,#305,.T.);
#468=ORIENTED_EDGE('',*,*,#346,.F.);
#469=ORIENTED_EDGE('',*,*,#332,.T.);
#470=ORIENTED_EDGE('',*,*,#333,.T.);
#471=ORIENTED_EDGE('',*,*,#351,.T.);
#472=ORIENTED_EDGE('',*,*,#352,.T.);
#473=ORIENTED_EDGE('',*,*,#353,.T.);
#474=ORIENTED_EDGE('',*,*,#354,.T.);
#475=ORIENTED_EDGE('',*,*,#343,.T.);
#476=ORIENTED_EDGE('',*,*,#344,.T.);
#477=ORIENTED_EDGE('',*,*,#301,.F.);
#478=ORIENTED_EDGE('',*,*,#307,.F.);
#479=ORIENTED_EDGE('',*,*,#355,.F.);
#480=ORIENTED_EDGE('',*,*,#347,.F.);
#481=ORIENTED_EDGE('',*,*,#308,.F.);
#482=ORIENTED_EDGE('',*,*,#356,.T.);
#483=ORIENTED_EDGE('',*,*,#351,.F.);
#484=ORIENTED_EDGE('',*,*,#352,.F.);
#485=ORIENTED_EDGE('',*,*,#356,.F.);
#486=ORIENTED_EDGE('',*,*,#328,.F.);
#487=ORIENTED_EDGE('',*,*,#357,.T.);
#488=ORIENTED_EDGE('',*,*,#353,.F.);
#489=ORIENTED_EDGE('',*,*,#354,.F.);
#490=ORIENTED_EDGE('',*,*,#357,.F.);
#491=ORIENTED_EDGE('',*,*,#321,.F.);
#492=ORIENTED_EDGE('',*,*,#327,.F.);
#493=ORIENTED_EDGE('',*,*,#349,.F.);
#494=ORIENTED_EDGE('',*,*,#306,.T.);
#495=ORIENTED_EDGE('',*,*,#350,.T.);
#496=ORIENTED_EDGE('',*,*,#325,.T.);
#497=ORIENTED_EDGE('',*,*,#330,.T.);
#498=ORIENTED_EDGE('',*,*,#348,.T.);
#499=ORIENTED_EDGE('',*,*,#355,.T.);
#500=ORIENTED_EDGE('',*,*,#358,.T.);
#501=ORIENTED_EDGE('',*,*,#359,.T.);
#502=ORIENTED_EDGE('',*,*,#360,.T.);
#503=ORIENTED_EDGE('',*,*,#361,.T.);
#504=ORIENTED_EDGE('',*,*,#359,.F.);
#505=ORIENTED_EDGE('',*,*,#362,.T.);
#506=ORIENTED_EDGE('',*,*,#341,.F.);
#507=ORIENTED_EDGE('',*,*,#363,.F.);
#508=ORIENTED_EDGE('',*,*,#360,.F.);
#509=ORIENTED_EDGE('',*,*,#363,.T.);
#510=ORIENTED_EDGE('',*,*,#340,.F.);
#511=ORIENTED_EDGE('',*,*,#364,.F.);
#512=ORIENTED_EDGE('',*,*,#361,.F.);
#513=ORIENTED_EDGE('',*,*,#364,.T.);
#514=ORIENTED_EDGE('',*,*,#339,.F.);
#515=ORIENTED_EDGE('',*,*,#365,.F.);
#516=ORIENTED_EDGE('',*,*,#358,.F.);
#517=ORIENTED_EDGE('',*,*,#365,.T.);
#518=ORIENTED_EDGE('',*,*,#338,.F.);
#519=ORIENTED_EDGE('',*,*,#362,.F.);
#520=CYLINDRICAL_SURFACE('',#595,5.);
#521=CYLINDRICAL_SURFACE('',#600,5.);
#522=CYLINDRICAL_SURFACE('',#606,5.);
#523=CYLINDRICAL_SURFACE('',#612,5.);
#524=CYLINDRICAL_SURFACE('',#617,1.621);
#525=CYLINDRICAL_SURFACE('',#623,1.621);
#526=CYLINDRICAL_SURFACE('',#625,28.25);
#527=CYLINDRICAL_SURFACE('',#630,1.621);
#528=CYLINDRICAL_SURFACE('',#631,1.621);
#529=ADVANCED_FACE('',(#47),#520,.F.);
#530=ADVANCED_FACE('',(#48,#19),#29,.F.);
#531=ADVANCED_FACE('',(#49),#30,.F.);
#532=ADVANCED_FACE('',(#50),#521,.F.);
#533=ADVANCED_FACE('',(#51,#20),#31,.T.);
#534=ADVANCED_FACE('',(#52),#32,.T.);
#535=ADVANCED_FACE('',(#53),#522,.F.);
#536=ADVANCED_FACE('',(#54,#21),#33,.T.);
#537=ADVANCED_FACE('',(#55),#34,.T.);
#538=ADVANCED_FACE('',(#56),#523,.F.);
#539=ADVANCED_FACE('',(#57,#22),#35,.F.);
#540=ADVANCED_FACE('',(#58),#36,.F.);
#541=ADVANCED_FACE('',(#59),#524,.F.);
#542=ADVANCED_FACE('',(#60),#37,.F.);
#543=ADVANCED_FACE('',(#61,#23),#38,.F.);
#544=ADVANCED_FACE('',(#62),#525,.F.);
#545=ADVANCED_FACE('',(#63),#39,.T.);
#546=ADVANCED_FACE('',(#64,#24,#25,#26,#27),#526,.T.);
#547=ADVANCED_FACE('',(#65),#40,.T.);
#548=ADVANCED_FACE('',(#66),#527,.F.);
#549=ADVANCED_FACE('',(#67),#528,.F.);
#550=ADVANCED_FACE('',(#68),#41,.F.);
#551=ADVANCED_FACE('',(#69,#28),#42,.T.);
#552=ADVANCED_FACE('',(#70),#43,.T.);
#553=ADVANCED_FACE('',(#71),#44,.T.);
#554=ADVANCED_FACE('',(#72),#45,.T.);
#555=ADVANCED_FACE('',(#73),#46,.T.);
#556=CLOSED_SHELL('',(#529,#530,#531,#532,#533,#534,#535,#536,#537,#538,
#539,#540,#541,#542,#543,#544,#545,#546,#547,#548,#549,#550,#551,#552,#553,
#554,#555));
#557=DERIVED_UNIT_ELEMENT(#560,1.);
#558=DERIVED_UNIT_ELEMENT(#1166,-3.);
#559=DIMENSIONAL_EXPONENTS(0.,1.,0.,0.,0.,0.,0.);
#560=(
CONVERSION_BASED_UNIT('gram',#562)
MASS_UNIT()
NAMED_UNIT(#559)
);
#561=(
MASS_UNIT()
NAMED_UNIT(*)
SI_UNIT(.KILO.,.GRAM.)
);
#562=MASS_MEASURE_WITH_UNIT(MASS_MEASURE(0.001),#561);
#563=DERIVED_UNIT((#557,#558));
#564=MEASURE_REPRESENTATION_ITEM('density measure',
POSITIVE_RATIO_MEASURE(7.85),#563);
#565=PROPERTY_DEFINITION_REPRESENTATION(#570,#567);
#566=PROPERTY_DEFINITION_REPRESENTATION(#571,#568);
#567=REPRESENTATION('material name',(#569),#1163);
#568=REPRESENTATION('density',(#564),#1163);
#569=DESCRIPTIVE_REPRESENTATION_ITEM('\X2\92FC30018EDF92FC\X0\',
'\X2\92FC30018EDF92FC\X0\');
#570=PROPERTY_DEFINITION('material property','material name',#1178);
#571=PROPERTY_DEFINITION('material property','density of part',#1178);
#572=PRESENTATION_STYLE_ASSIGNMENT((#573));
#573=SURFACE_STYLE_USAGE(.BOTH.,#576);
#574=SURFACE_STYLE_RENDERING_WITH_PROPERTIES($,#580,(#575));
#575=SURFACE_STYLE_TRANSPARENT(0.);
#576=SURFACE_SIDE_STYLE('',(#577,#574));
#577=SURFACE_STYLE_FILL_AREA(#578);
#578=FILL_AREA_STYLE('',(#579));
#579=FILL_AREA_STYLE_COLOUR('',#580);
#580=COLOUR_RGB('',0.745098039215686,0.737254901960784,0.729411764705882);
#581=DATE_TIME_ROLE('creation_date');
#582=DATE_TIME_ROLE('creation_date');
#583=APPLIED_DATE_AND_TIME_ASSIGNMENT(#585,#581,(#1177));
#584=APPLIED_DATE_AND_TIME_ASSIGNMENT(#586,#582,(#1178));
#585=DATE_AND_TIME(#587,#589);
#586=DATE_AND_TIME(#588,#590);
#587=CALENDAR_DATE(2026,19,2);
#588=CALENDAR_DATE(2026,8,1);
#589=LOCAL_TIME(0,0,0.,#591);
#590=LOCAL_TIME(0,0,0.,#592);
#591=COORDINATED_UNIVERSAL_TIME_OFFSET(0,0,.BEHIND.);
#592=COORDINATED_UNIVERSAL_TIME_OFFSET(0,0,.BEHIND.);
#593=AXIS2_PLACEMENT_3D('',#780,#639,#640);
#594=AXIS2_PLACEMENT_3D('',#781,#641,#642);
#595=AXIS2_PLACEMENT_3D('',#782,#643,#644);
#596=AXIS2_PLACEMENT_3D('',#785,#645,#646);
#597=AXIS2_PLACEMENT_3D('',#804,#649,#650);
#598=AXIS2_PLACEMENT_3D('',#813,#655,#656);
#599=AXIS2_PLACEMENT_3D('',#814,#657,#658);
#600=AXIS2_PLACEMENT_3D('',#818,#661,#662);
#601=AXIS2_PLACEMENT_3D('',#821,#663,#664);
#602=AXIS2_PLACEMENT_3D('',#840,#667,#668);
#603=AXIS2_PLACEMENT_3D('',#849,#673,#674);
#604=AXIS2_PLACEMENT_3D('',#850,#675,#676);
#605=AXIS2_PLACEMENT_3D('',#851,#677,#678);
#606=AXIS2_PLACEMENT_3D('',#852,#679,#680);
#607=AXIS2_PLACEMENT_3D('',#855,#681,#682);
#608=AXIS2_PLACEMENT_3D('',#874,#685,#686);
#609=AXIS2_PLACEMENT_3D('',#883,#691,#692);
#610=AXIS2_PLACEMENT_3D('',#884,#693,#694);
#611=AXIS2_PLACEMENT_3D('',#885,#695,#696);
#612=AXIS2_PLACEMENT_3D('',#886,#697,#698);
#613=AXIS2_PLACEMENT_3D('',#889,#699,#700);
#614=AXIS2_PLACEMENT_3D('',#908,#703,#704);
#615=AXIS2_PLACEMENT_3D('',#917,#709,#710);
#616=AXIS2_PLACEMENT_3D('',#918,#711,#712);
#617=AXIS2_PLACEMENT_3D('',#922,#715,#716);
#618=AXIS2_PLACEMENT_3D('',#970,#718,#719);
#619=AXIS2_PLACEMENT_3D('',#971,#720,#721);
#620=AXIS2_PLACEMENT_3D('',#972,#722,#723);
#621=AXIS2_PLACEMENT_3D('',#974,#724,#725);
#622=AXIS2_PLACEMENT_3D('',#976,#727,#728);
#623=AXIS2_PLACEMENT_3D('',#985,#733,#734);
#624=AXIS2_PLACEMENT_3D('',#1033,#736,#737);
#625=AXIS2_PLACEMENT_3D('',#1035,#739,#740);
#626=AXIS2_PLACEMENT_3D('',#1039,#743,#744);
#627=AXIS2_PLACEMENT_3D('',#1040,#745,#746);
#628=AXIS2_PLACEMENT_3D('',#1041,#747,#748);
#629=AXIS2_PLACEMENT_3D('',#1134,#749,#750);
#630=AXIS2_PLACEMENT_3D('',#1136,#752,#753);
#631=AXIS2_PLACEMENT_3D('',#1138,#755,#756);
#632=AXIS2_PLACEMENT_3D('',#1140,#758,#759);
#633=AXIS2_PLACEMENT_3D('',#1141,#760,#761);
#634=AXIS2_PLACEMENT_3D('',#1150,#766,#767);
#635=AXIS2_PLACEMENT_3D('',#1153,#770,#771);
#636=AXIS2_PLACEMENT_3D('',#1155,#773,#774);
#637=AXIS2_PLACEMENT_3D('',#1157,#776,#777);
#638=AXIS2_PLACEMENT_3D('',#1158,#778,#779);
#639=DIRECTION('axis',(0.,0.,1.));
#640=DIRECTION('refdir',(1.,0.,0.));
#641=DIRECTION('axis',(0.,0.,1.));
#642=DIRECTION('refdir',(1.,0.,0.));
#643=DIRECTION('center_axis',(2.66453525910038E-16,1.,0.));
#644=DIRECTION('ref_axis',(0.707106781186547,-3.14018491736755E-16,0.707106781186547));
#645=DIRECTION('center_axis',(1.22681520349232E-16,1.,0.));
#646=DIRECTION('ref_axis',(0.707106781186547,-3.14018491736755E-16,0.707106781186547));
#647=DIRECTION('',(2.66453525910038E-16,1.,0.));
#648=DIRECTION('',(-2.66453525910038E-16,-1.,0.));
#649=DIRECTION('center_axis',(-1.22681520349232E-16,-1.,0.));
#650=DIRECTION('ref_axis',(1.,-1.22681520349232E-16,0.));
#651=DIRECTION('',(0.,0.,1.));
#652=DIRECTION('',(1.,-1.22681520349232E-16,0.));
#653=DIRECTION('',(0.,0.,-1.));
#654=DIRECTION('',(1.,-1.22681520349232E-16,0.));
#655=DIRECTION('center_axis',(1.22681520349232E-16,1.,0.));
#656=DIRECTION('ref_axis',(-1.,1.22681520349232E-16,0.));
#657=DIRECTION('center_axis',(1.,-2.66453525910038E-16,0.));
#658=DIRECTION('ref_axis',(2.66453525910038E-16,1.,0.));
#659=DIRECTION('',(0.,0.,1.));
#660=DIRECTION('',(2.66453525910038E-16,1.,0.));
#661=DIRECTION('center_axis',(2.66453525910038E-16,1.,0.));
#662=DIRECTION('ref_axis',(0.707106781186548,-3.14018491736755E-16,-0.707106781186547));
#663=DIRECTION('center_axis',(1.22681520349232E-16,1.,0.));
#664=DIRECTION('ref_axis',(0.707106781186548,-3.14018491736755E-16,-0.707106781186547));
#665=DIRECTION('',(2.66453525910038E-16,1.,0.));
#666=DIRECTION('',(-2.66453525910038E-16,-1.,0.));
#667=DIRECTION('center_axis',(1.22681520349232E-16,1.,0.));
#668=DIRECTION('ref_axis',(1.,-1.22681520349232E-16,0.));
#669=DIRECTION('',(1.,-1.22681520349232E-16,0.));
#670=DIRECTION('',(0.,0.,-1.));
#671=DIRECTION('',(-1.,1.22681520349232E-16,0.));
#672=DIRECTION('',(0.,0.,-1.));
#673=DIRECTION('center_axis',(-1.22681520349232E-16,-1.,0.));
#674=DIRECTION('ref_axis',(-1.,1.22681520349232E-16,0.));
#675=DIRECTION('center_axis',(0.,0.,1.));
#676=DIRECTION('ref_axis',(1.,0.,0.));
#677=DIRECTION('center_axis',(0.,0.,-1.));
#678=DIRECTION('ref_axis',(1.,0.,0.));
#679=DIRECTION('center_axis',(-2.66453525910038E-16,1.,0.));
#680=DIRECTION('ref_axis',(-0.707106781186548,-3.14018491736755E-16,0.707106781186547));
#681=DIRECTION('center_axis',(-1.22681520349232E-16,1.,0.));
#682=DIRECTION('ref_axis',(-0.707106781186548,-3.14018491736755E-16,0.707106781186547));
#683=DIRECTION('',(-2.66453525910038E-16,1.,0.));
#684=DIRECTION('',(2.66453525910038E-16,-1.,0.));
#685=DIRECTION('center_axis',(-1.22681520349232E-16,1.,0.));
#686=DIRECTION('ref_axis',(-1.,-1.22681520349232E-16,0.));
#687=DIRECTION('',(-1.,-1.22681520349232E-16,0.));
#688=DIRECTION('',(0.,0.,-1.));
#689=DIRECTION('',(1.,1.22681520349232E-16,0.));
#690=DIRECTION('',(0.,0.,1.));
#691=DIRECTION('center_axis',(1.22681520349232E-16,-1.,0.));
#692=DIRECTION('ref_axis',(1.,1.22681520349232E-16,0.));
#693=DIRECTION('center_axis',(0.,0.,-1.));
#694=DIRECTION('ref_axis',(-1.,0.,0.));
#695=DIRECTION('center_axis',(0.,0.,1.));
#696=DIRECTION('ref_axis',(1.,0.,0.));
#697=DIRECTION('center_axis',(-2.66453525910038E-16,1.,0.));
#698=DIRECTION('ref_axis',(-0.707106781186547,-3.14018491736755E-16,-0.707106781186547));
#699=DIRECTION('center_axis',(-1.22681520349232E-16,1.,0.));
#700=DIRECTION('ref_axis',(-0.707106781186547,-3.14018491736755E-16,-0.707106781186547));
#701=DIRECTION('',(-2.66453525910038E-16,1.,0.));
#702=DIRECTION('',(2.66453525910038E-16,-1.,0.));
#703=DIRECTION('center_axis',(1.22681520349232E-16,-1.,0.));
#704=DIRECTION('ref_axis',(-1.,-1.22681520349232E-16,0.));
#705=DIRECTION('',(0.,0.,-1.));
#706=DIRECTION('',(-1.,-1.22681520349232E-16,0.));
#707=DIRECTION('',(0.,0.,-1.));
#708=DIRECTION('',(-1.,-1.22681520349232E-16,0.));
#709=DIRECTION('center_axis',(1.22681520349232E-16,-1.,0.));
#710=DIRECTION('ref_axis',(1.,1.22681520349232E-16,0.));
#711=DIRECTION('center_axis',(-1.,-2.66453525910038E-16,0.));
#712=DIRECTION('ref_axis',(-2.66453525910038E-16,1.,0.));
#713=DIRECTION('',(0.,0.,-1.));
#714=DIRECTION('',(-2.66453525910038E-16,1.,0.));
#715=DIRECTION('center_axis',(1.22681520349232E-16,1.,0.));
#716=DIRECTION('ref_axis',(-1.,1.22681520349232E-16,0.));
#717=DIRECTION('',(-1.22681520349232E-16,-1.,0.));
#718=DIRECTION('center_axis',(0.,0.,1.));
#719=DIRECTION('ref_axis',(1.,0.,0.));
#720=DIRECTION('center_axis',(0.,0.,1.));
#721=DIRECTION('ref_axis',(1.,0.,0.));
#722=DIRECTION('center_axis',(0.,0.,1.));
#723=DIRECTION('ref_axis',(1.,0.,0.));
#724=DIRECTION('center_axis',(0.,0.,-1.));
#725=DIRECTION('ref_axis',(1.,0.,0.));
#726=DIRECTION('',(2.66453525910038E-16,-1.,0.));
#727=DIRECTION('center_axis',(0.,0.,-1.));
#728=DIRECTION('ref_axis',(1.,0.,0.));
#729=DIRECTION('',(-4.80096443081149E-16,1.,0.));
#730=DIRECTION('',(-1.,-1.20024110770287E-16,0.));
#731=DIRECTION('',(3.00060276925718E-16,-1.,0.));
#732=DIRECTION('',(1.,2.40048221540574E-16,0.));
#733=DIRECTION('center_axis',(1.22681520349232E-16,-1.,0.));
#734=DIRECTION('ref_axis',(1.,1.22681520349232E-16,0.));
#735=DIRECTION('',(1.22681520349232E-16,-1.,0.));
#736=DIRECTION('center_axis',(1.,2.66453525910038E-16,0.));
#737=DIRECTION('ref_axis',(-2.66453525910038E-16,1.,0.));
#738=DIRECTION('',(0.,0.,-1.));
#739=DIRECTION('center_axis',(0.,0.,-1.));
#740=DIRECTION('ref_axis',(1.,0.,0.));
#741=DIRECTION('',(0.,0.,1.));
#742=DIRECTION('',(0.,0.,1.));
#743=DIRECTION('center_axis',(0.,0.,1.));
#744=DIRECTION('ref_axis',(1.,0.,0.));
#745=DIRECTION('center_axis',(0.,0.,-1.));
#746=DIRECTION('ref_axis',(1.,0.,0.));
#747=DIRECTION('center_axis',(0.,0.,1.));
#748=DIRECTION('ref_axis',(1.,0.,0.));
#749=DIRECTION('center_axis',(-1.,2.66453525910038E-16,0.));
#750=DIRECTION('ref_axis',(2.66453525910038E-16,1.,0.));
#751=DIRECTION('',(-2.66453525910038E-16,-1.,0.));
#752=DIRECTION('center_axis',(-1.22681520349232E-16,-1.,0.));
#753=DIRECTION('ref_axis',(-1.,1.22681520349232E-16,0.));
#754=DIRECTION('',(-1.22681520349232E-16,-1.,0.));
#755=DIRECTION('center_axis',(-1.22681520349232E-16,1.,0.));
#756=DIRECTION('ref_axis',(1.,1.22681520349232E-16,0.));
#757=DIRECTION('',(1.22681520349232E-16,-1.,0.));
#758=DIRECTION('center_axis',(0.,0.,-1.));
#759=DIRECTION('ref_axis',(-1.,0.,0.));
#760=DIRECTION('center_axis',(0.,0.,1.));
#761=DIRECTION('ref_axis',(1.,0.,0.));
#762=DIRECTION('',(4.80096443081149E-16,-1.,0.));
#763=DIRECTION('',(-1.,-2.40048221540574E-16,0.));
#764=DIRECTION('',(-3.00060276925718E-16,1.,0.));
#765=DIRECTION('',(1.,1.20024110770287E-16,0.));
#766=DIRECTION('center_axis',(-2.40048221540574E-16,1.,0.));
#767=DIRECTION('ref_axis',(1.,2.40048221540574E-16,0.));
#768=DIRECTION('',(0.,0.,-1.));
#769=DIRECTION('',(0.,0.,-1.));
#770=DIRECTION('center_axis',(1.,3.00060276925718E-16,0.));
#771=DIRECTION('ref_axis',(3.00060276925718E-16,-1.,0.));
#772=DIRECTION('',(0.,0.,-1.));
#773=DIRECTION('center_axis',(1.20024110770287E-16,-1.,0.));
#774=DIRECTION('ref_axis',(-1.,-1.20024110770287E-16,0.));
#775=DIRECTION('',(0.,0.,-1.));
#776=DIRECTION('center_axis',(-1.,-4.80096443081149E-16,0.));
#777=DIRECTION('ref_axis',(-4.80096443081149E-16,1.,0.));
#778=DIRECTION('',(3.05311331771916E-16,-6.0986906662733E-17,1.));
#779=DIRECTION('',(1.,-2.98598499738601E-16,-3.05311331771916E-16));
#780=CARTESIAN_POINT('',(0.,0.,0.));
#781=CARTESIAN_POINT('',(0.,0.,0.));
#782=CARTESIAN_POINT('Origin',(-25.25,6.25000000000001,-75.));
#783=CARTESIAN_POINT('',(-25.25,3.10469078598122E-15,-70.));
#784=CARTESIAN_POINT('',(-20.25,4.44089209850063E-15,-75.));
#785=CARTESIAN_POINT('Origin',(-25.25,2.22044604925031E-15,-75.));
#786=CARTESIAN_POINT('',(-25.25,12.6688594593199,-70.));
#787=CARTESIAN_POINT('',(-25.25,6.25000000000001,-70.));
#788=CARTESIAN_POINT('',(-20.25,19.6977156035922,-75.));
#789=CARTESIAN_POINT('Ctrl Pts',(-25.2500000000032,12.6688594593135,-70.));
#790=CARTESIAN_POINT('Ctrl Pts',(-25.2350978531686,12.6985605708289,-70.));
#791=CARTESIAN_POINT('Ctrl Pts',(-25.2201496458821,12.7282227421456,-70.0000666212239));
#792=CARTESIAN_POINT('Ctrl Pts',(-24.5512355278669,14.0497691045316,-70.0060662566745));
#793=CARTESIAN_POINT('Ctrl Pts',(-23.8092050774713,15.2664554586896,-70.1302275175149));
#794=CARTESIAN_POINT('Ctrl Pts',(-22.658802094669,16.8824214993316,-70.705429008916));
#795=CARTESIAN_POINT('Ctrl Pts',(-22.2628015699925,17.4006826490303,-70.9583690650659));
#796=CARTESIAN_POINT('Ctrl Pts',(-21.5108769101392,18.3220702168688,-71.641860748544));
#797=CARTESIAN_POINT('Ctrl Pts',(-21.1565341719982,18.7250857135255,-72.0742994136039));
#798=CARTESIAN_POINT('Ctrl Pts',(-20.7012864786961,19.2247713123796,-72.8909514717878));
#799=CARTESIAN_POINT('Ctrl Pts',(-20.5337704319523,19.4024108844674,-73.2831241072522));
#800=CARTESIAN_POINT('Ctrl Pts',(-20.3076333972116,19.638973994443,-74.1262157435351));
#801=CARTESIAN_POINT('Ctrl Pts',(-20.25,19.6977156035922,-74.5774503582882));
#802=CARTESIAN_POINT('Ctrl Pts',(-20.25,19.6977156035922,-75.));
#803=CARTESIAN_POINT('',(-20.25,6.25000000000001,-75.));
#804=CARTESIAN_POINT('Origin',(-28.25,3.47273534702891E-15,-80.));
#805=CARTESIAN_POINT('',(-20.25,4.44089209850063E-15,-80.));
#806=CARTESIAN_POINT('',(-20.25,4.44089209850063E-15,-80.));
#807=CARTESIAN_POINT('',(-28.25,0.,-80.));
#808=CARTESIAN_POINT('',(-14.125,1.73985887209601E-15,-80.));
#809=CARTESIAN_POINT('',(-28.25,0.,-70.));
#810=CARTESIAN_POINT('',(-28.25,2.22044604925031E-15,0.));
#811=CARTESIAN_POINT('',(41.9961770582235,-5.1451724531953E-15,-70.));
#812=CARTESIAN_POINT('',(-22.629,0.,-75.));
#813=CARTESIAN_POINT('Origin',(-24.25,0.,-75.));
#814=CARTESIAN_POINT('Origin',(-20.25,4.44089209850063E-15,-80.));
#815=CARTESIAN_POINT('',(-20.25,19.6977156035922,-80.));
#816=CARTESIAN_POINT('',(-20.25,19.6977156035922,0.));
#817=CARTESIAN_POINT('',(-20.25,4.91828799908944E-15,-80.));
#818=CARTESIAN_POINT('Origin',(-25.25,6.25000000000001,-5.));
#819=CARTESIAN_POINT('',(-20.25,4.44089209850063E-15,-5.));
#820=CARTESIAN_POINT('',(-25.25,3.10469078598122E-15,-10.));
#821=CARTESIAN_POINT('Origin',(-25.25,2.22044604925031E-15,-5.));
#822=CARTESIAN_POINT('',(-20.25,19.6977156035922,-5.));
#823=CARTESIAN_POINT('',(-20.25,6.25000000000001,-5.));
#824=CARTESIAN_POINT('',(-25.25,12.6688594593199,-10.));
#825=CARTESIAN_POINT('Ctrl Pts',(-20.25,19.6977156035922,-5.));
#826=CARTESIAN_POINT('Ctrl Pts',(-20.25,19.6977156035922,-5.42254964171183));
#827=CARTESIAN_POINT('Ctrl Pts',(-20.3076333972117,19.638973994443,-5.87378425646489));
#828=CARTESIAN_POINT('Ctrl Pts',(-20.5337704319523,19.4024108844674,-6.71687589274786));
#829=CARTESIAN_POINT('Ctrl Pts',(-20.7012864786961,19.2247713123796,-7.10904852821222));
#830=CARTESIAN_POINT('Ctrl Pts',(-21.1565341719982,18.7250857135255,-7.92570058639614));
#831=CARTESIAN_POINT('Ctrl Pts',(-21.5108769101392,18.3220702168688,-8.35813925145599));
#832=CARTESIAN_POINT('Ctrl Pts',(-22.2628015699925,17.4006826490303,-9.04163093493412));
#833=CARTESIAN_POINT('Ctrl Pts',(-22.658802094669,16.8824214993316,-9.29457099108397));
#834=CARTESIAN_POINT('Ctrl Pts',(-23.8092050774713,15.2664554586896,-9.86977248248514));
#835=CARTESIAN_POINT('Ctrl Pts',(-24.5512355278669,14.0497691045316,-9.99393374332545));
#836=CARTESIAN_POINT('Ctrl Pts',(-25.220149645881,12.7282227421477,-9.99993337877612));
#837=CARTESIAN_POINT('Ctrl Pts',(-25.2350978531665,12.6985605708332,-10.));
#838=CARTESIAN_POINT('Ctrl Pts',(-25.25,12.6688594593199,-10.));
#839=CARTESIAN_POINT('',(-25.25,6.25000000000001,-10.));
#840=CARTESIAN_POINT('Origin',(-28.25,3.47273534702891E-15,0.));
#841=CARTESIAN_POINT('',(-28.25,0.,-10.));
#842=CARTESIAN_POINT('',(41.9961770582235,-5.1451724531953E-15,-10.));
#843=CARTESIAN_POINT('',(-28.25,0.,0.));
#844=CARTESIAN_POINT('',(-28.25,2.22044604925031E-15,0.));
#845=CARTESIAN_POINT('',(-20.25,4.44089209850063E-15,0.));
#846=CARTESIAN_POINT('',(-14.125,1.73985887209601E-15,0.));
#847=CARTESIAN_POINT('',(-20.25,4.44089209850063E-15,0.));
#848=CARTESIAN_POINT('',(-22.629,0.,-5.));
#849=CARTESIAN_POINT('Origin',(-24.25,0.,-5.));
#850=CARTESIAN_POINT('Origin',(-24.25,12.5,-10.));
#851=CARTESIAN_POINT('Origin',(0.,0.,-10.));
#852=CARTESIAN_POINT('Origin',(25.25,6.25000000000001,-75.));
#853=CARTESIAN_POINT('',(20.25,4.44089209850063E-15,-75.));
#854=CARTESIAN_POINT('',(25.25,3.10469078598122E-15,-70.));
#855=CARTESIAN_POINT('Origin',(25.25,2.22044604925031E-15,-75.));
#856=CARTESIAN_POINT('',(20.25,19.6977156035922,-75.));
#857=CARTESIAN_POINT('',(20.25,6.25000000000001,-75.));
#858=CARTESIAN_POINT('',(25.25,12.6688594593199,-70.));
#859=CARTESIAN_POINT('Ctrl Pts',(20.25,19.6977156035922,-75.));
#860=CARTESIAN_POINT('Ctrl Pts',(20.25,19.6977156035922,-74.5774503582882));
#861=CARTESIAN_POINT('Ctrl Pts',(20.3076333972117,19.638973994443,-74.1262157435351));
#862=CARTESIAN_POINT('Ctrl Pts',(20.5337704319523,19.4024108844674,-73.2831241072521));
#863=CARTESIAN_POINT('Ctrl Pts',(20.7012864786961,19.2247713123796,-72.8909514717878));
#864=CARTESIAN_POINT('Ctrl Pts',(21.1565341719982,18.7250857135255,-72.0742994136039));
#865=CARTESIAN_POINT('Ctrl Pts',(21.5108769101392,18.3220702168688,-71.641860748544));
#866=CARTESIAN_POINT('Ctrl Pts',(22.2628015699925,17.4006826490303,-70.9583690650659));
#867=CARTESIAN_POINT('Ctrl Pts',(22.658802094669,16.8824214993316,-70.705429008916));
#868=CARTESIAN_POINT('Ctrl Pts',(23.8092050774713,15.2664554586895,-70.1302275175149));
#869=CARTESIAN_POINT('Ctrl Pts',(24.5512355278669,14.0497691045316,-70.0060662566746));
#870=CARTESIAN_POINT('Ctrl Pts',(25.220149645881,12.7282227421477,-70.0000666212239));
#871=CARTESIAN_POINT('Ctrl Pts',(25.2350978531665,12.6985605708332,-70.));
#872=CARTESIAN_POINT('Ctrl Pts',(25.25,12.6688594593199,-70.));
#873=CARTESIAN_POINT('',(25.25,6.25000000000001,-70.));
#874=CARTESIAN_POINT('Origin',(28.25,3.47273534702891E-15,-80.));
#875=CARTESIAN_POINT('',(28.25,0.,-70.));
#876=CARTESIAN_POINT('',(-41.9961770582235,-5.1451724531953E-15,-70.));
#877=CARTESIAN_POINT('',(28.25,0.,-80.));
#878=CARTESIAN_POINT('',(28.25,2.22044604925031E-15,0.));
#879=CARTESIAN_POINT('',(20.25,4.44089209850063E-15,-80.));
#880=CARTESIAN_POINT('',(14.125,1.73985887209601E-15,-80.));
#881=CARTESIAN_POINT('',(20.25,4.44089209850063E-15,-80.));
#882=CARTESIAN_POINT('',(22.629,0.,-75.));
#883=CARTESIAN_POINT('Origin',(24.25,0.,-75.));
#884=CARTESIAN_POINT('Origin',(24.25,12.5,-70.));
#885=CARTESIAN_POINT('Origin',(0.,0.,-70.));
#886=CARTESIAN_POINT('Origin',(25.25,6.25000000000001,-5.));
#887=CARTESIAN_POINT('',(25.25,3.10469078598122E-15,-10.));
#888=CARTESIAN_POINT('',(20.25,4.44089209850063E-15,-5.));
#889=CARTESIAN_POINT('Origin',(25.25,2.22044604925031E-15,-5.));
#890=CARTESIAN_POINT('',(25.25,12.6688594593199,-10.));
#891=CARTESIAN_POINT('',(25.25,6.25000000000001,-10.));
#892=CARTESIAN_POINT('',(20.25,19.6977156035922,-5.));
#893=CARTESIAN_POINT('Ctrl Pts',(25.2500000000032,12.6688594593135,-10.));
#894=CARTESIAN_POINT('Ctrl Pts',(25.2350978531686,12.6985605708289,-10.));
#895=CARTESIAN_POINT('Ctrl Pts',(25.2201496458821,12.7282227421456,-9.99993337877613));
#896=CARTESIAN_POINT('Ctrl Pts',(24.5512355278669,14.0497691045316,-9.99393374332545));
#897=CARTESIAN_POINT('Ctrl Pts',(23.8092050774713,15.2664554586896,-9.86977248248514));
#898=CARTESIAN_POINT('Ctrl Pts',(22.658802094669,16.8824214993316,-9.29457099108397));
#899=CARTESIAN_POINT('Ctrl Pts',(22.2628015699925,17.4006826490303,-9.04163093493412));
#900=CARTESIAN_POINT('Ctrl Pts',(21.5108769101392,18.3220702168688,-8.35813925145599));
#901=CARTESIAN_POINT('Ctrl Pts',(21.1565341719982,18.7250857135255,-7.92570058639614));
#902=CARTESIAN_POINT('Ctrl Pts',(20.7012864786961,19.2247713123796,-7.10904852821222));
#903=CARTESIAN_POINT('Ctrl Pts',(20.5337704319523,19.4024108844674,-6.71687589274786));
#904=CARTESIAN_POINT('Ctrl Pts',(20.3076333972116,19.638973994443,-5.87378425646489));
#905=CARTESIAN_POINT('Ctrl Pts',(20.25,19.6977156035922,-5.42254964171184));
#906=CARTESIAN_POINT('Ctrl Pts',(20.25,19.6977156035922,-5.));
#907=CARTESIAN_POINT('',(20.25,6.25000000000001,-5.));
#908=CARTESIAN_POINT('Origin',(28.25,3.47273534702891E-15,0.));
#909=CARTESIAN_POINT('',(20.25,4.44089209850063E-15,0.));
#910=CARTESIAN_POINT('',(20.25,4.44089209850063E-15,0.));
#911=CARTESIAN_POINT('',(28.25,0.,0.));
#912=CARTESIAN_POINT('',(14.125,1.73985887209601E-15,0.));
#913=CARTESIAN_POINT('',(28.25,0.,-10.));
#914=CARTESIAN_POINT('',(28.25,2.22044604925031E-15,0.));
#915=CARTESIAN_POINT('',(-41.9961770582235,-5.1451724531953E-15,-10.));
#916=CARTESIAN_POINT('',(22.629,0.,-5.));
#917=CARTESIAN_POINT('Origin',(24.25,0.,-5.));
#918=CARTESIAN_POINT('Origin',(20.25,4.44089209850063E-15,0.));
#919=CARTESIAN_POINT('',(20.25,19.6977156035922,0.));
#920=CARTESIAN_POINT('',(20.25,19.6977156035922,0.));
#921=CARTESIAN_POINT('',(20.25,4.91828799908944E-15,0.));
#922=CARTESIAN_POINT('Origin',(-24.25,-113.068563270257,-75.));
#923=CARTESIAN_POINT('',(-22.629,-16.9112642637977,-75.));
#924=CARTESIAN_POINT('',(-22.629,-113.068563270257,-75.));
#925=CARTESIAN_POINT('',(-25.871,-11.3469757644934,-75.));
#926=CARTESIAN_POINT('Ctrl Pts',(-25.871,-11.3469757644934,-75.));
#927=CARTESIAN_POINT('Ctrl Pts',(-25.871,-11.3469757644934,-74.9240582671867));
#928=CARTESIAN_POINT('Ctrl Pts',(-25.8652329951489,-11.3601494502922,-74.8428591784842));
#929=CARTESIAN_POINT('Ctrl Pts',(-25.8428159117016,-11.4110533779898,-74.6891811958477));
#930=CARTESIAN_POINT('Ctrl Pts',(-25.8263191961999,-11.4483904674372,-74.6165500313152));
#931=CARTESIAN_POINT('Ctrl Pts',(-25.748295975676,-11.6236703936123,-74.3436364273163));
#932=CARTESIAN_POINT('Ctrl Pts',(-25.6454480235743,-11.8500414776536,-74.1598409236718));
#933=CARTESIAN_POINT('Ctrl Pts',(-25.3820363978856,-12.4084585846758,-73.8061539553963));
#934=CARTESIAN_POINT('Ctrl Pts',(-25.1754671602103,-12.8252832792427,-73.6460284083387));
#935=CARTESIAN_POINT('Ctrl Pts',(-24.7260974548343,-13.6715816102218,-73.4305864596854));
#936=CARTESIAN_POINT('Ctrl Pts',(-24.482832012271,-14.1017535656965,-73.379));
#937=CARTESIAN_POINT('Ctrl Pts',(-24.0516224957044,-14.8233434435864,-73.379));
#938=CARTESIAN_POINT('Ctrl Pts',(-23.8275458397277,-15.1813463983306,-73.4164978811431));
#939=CARTESIAN_POINT('Ctrl Pts',(-23.3843678879043,-15.8554898156689,-73.6083722469122));
#940=CARTESIAN_POINT('Ctrl Pts',(-23.1651378046117,-16.172094197837,-73.7608161348287));
#941=CARTESIAN_POINT('Ctrl Pts',(-22.8903531931838,-16.5565639701321,-74.1048961641323));
#942=CARTESIAN_POINT('Ctrl Pts',(-22.7983189990254,-16.6826656119306,-74.2550880159555));
#943=CARTESIAN_POINT('Ctrl Pts',(-22.7000365654227,-16.8158819191411,-74.5163551222945));
#944=CARTESIAN_POINT('Ctrl Pts',(-22.6737198697024,-16.8512841306266,-74.6093980323202));
#945=CARTESIAN_POINT('Ctrl Pts',(-22.6382035772659,-16.8989691260313,-74.8017624813933));
#946=CARTESIAN_POINT('Ctrl Pts',(-22.629,-16.9112642637977,-74.9010802228927));
#947=CARTESIAN_POINT('Ctrl Pts',(-22.629,-16.9112642637977,-75.));
#948=CARTESIAN_POINT('Ctrl Pts',(-22.629,-16.9112642637977,-75.));
#949=CARTESIAN_POINT('Ctrl Pts',(-22.629,-16.9112642637977,-75.0989197771073));
#950=CARTESIAN_POINT('Ctrl Pts',(-22.6382035772659,-16.8989691260313,-75.1982375186067));
#951=CARTESIAN_POINT('Ctrl Pts',(-22.6737198697024,-16.8512841306266,-75.3906019676798));
#952=CARTESIAN_POINT('Ctrl Pts',(-22.7000365654227,-16.8158819191411,-75.4836448777055));
#953=CARTESIAN_POINT('Ctrl Pts',(-22.7983189990254,-16.6826656119306,-75.7449119840445));
#954=CARTESIAN_POINT('Ctrl Pts',(-22.8903531931838,-16.5565639701321,-75.8951038358677));
#955=CARTESIAN_POINT('Ctrl Pts',(-23.1651378046117,-16.172094197837,-76.2391838651713));
#956=CARTESIAN_POINT('Ctrl Pts',(-23.3843678879043,-15.8554898156689,-76.3916277530878));
#957=CARTESIAN_POINT('Ctrl Pts',(-23.8275458397277,-15.1813463983306,-76.5835021188569));
#958=CARTESIAN_POINT('Ctrl Pts',(-24.0516224957044,-14.8233434435864,-76.621));
#959=CARTESIAN_POINT('Ctrl Pts',(-24.482832012271,-14.1017535656965,-76.621));
#960=CARTESIAN_POINT('Ctrl Pts',(-24.7260974548343,-13.6715816102218,-76.5694135403147));
#961=CARTESIAN_POINT('Ctrl Pts',(-25.1754671602103,-12.8252832792427,-76.3539715916613));
#962=CARTESIAN_POINT('Ctrl Pts',(-25.3820363978856,-12.4084585846758,-76.1938460446037));
#963=CARTESIAN_POINT('Ctrl Pts',(-25.6454480235743,-11.8500414776536,-75.8401590763282));
#964=CARTESIAN_POINT('Ctrl Pts',(-25.748295975676,-11.6236703936123,-75.6563635726837));
#965=CARTESIAN_POINT('Ctrl Pts',(-25.8263191961999,-11.4483904674372,-75.3834499686848));
#966=CARTESIAN_POINT('Ctrl Pts',(-25.8428159117016,-11.4110533779898,-75.3108188041523));
#967=CARTESIAN_POINT('Ctrl Pts',(-25.8652329951489,-11.3601494502922,-75.1571408215158));
#968=CARTESIAN_POINT('Ctrl Pts',(-25.871,-11.3469757644934,-75.0759417328133));
#969=CARTESIAN_POINT('Ctrl Pts',(-25.871,-11.3469757644934,-75.));
#970=CARTESIAN_POINT('Origin',(-24.25,12.5,-70.));
#971=CARTESIAN_POINT('Origin',(0.,0.,-70.));
#972=CARTESIAN_POINT('Origin',(0.,0.,-80.));
#973=CARTESIAN_POINT('',(20.25,19.6977156035922,-80.));
#974=CARTESIAN_POINT('Origin',(0.,0.,-80.));
#975=CARTESIAN_POINT('',(20.25,4.91828799908944E-15,-80.));
#976=CARTESIAN_POINT('Origin',(0.,0.,-80.));
#977=CARTESIAN_POINT('',(18.5,-18.5,-80.));
#978=CARTESIAN_POINT('',(18.5,18.5,-80.));
#979=CARTESIAN_POINT('',(18.5,18.5,-80.));
#980=CARTESIAN_POINT('',(-18.5,18.5,-80.));
#981=CARTESIAN_POINT('',(-18.5,18.5,-80.));
#982=CARTESIAN_POINT('',(-18.5,-18.5,-80.));
#983=CARTESIAN_POINT('',(-18.5,-18.5,-80.));
#984=CARTESIAN_POINT('',(18.5,-18.5,-80.));
#985=CARTESIAN_POINT('Origin',(24.25,-113.068563270257,-75.));
#986=CARTESIAN_POINT('',(22.629,-16.9112642637977,-75.));
#987=CARTESIAN_POINT('',(22.629,-113.068563270257,-75.));
#988=CARTESIAN_POINT('',(25.871,-11.3469757644934,-75.));
#989=CARTESIAN_POINT('Ctrl Pts',(25.871,-11.3469757644934,-75.));
#990=CARTESIAN_POINT('Ctrl Pts',(25.871,-11.3469757644934,-75.0759417328133));
#991=CARTESIAN_POINT('Ctrl Pts',(25.8652329951489,-11.3601494502922,-75.1571408215158));
#992=CARTESIAN_POINT('Ctrl Pts',(25.8428159117016,-11.4110533779898,-75.3108188041523));
#993=CARTESIAN_POINT('Ctrl Pts',(25.8263191961999,-11.4483904674372,-75.3834499686848));
#994=CARTESIAN_POINT('Ctrl Pts',(25.748295975676,-11.6236703936123,-75.6563635726837));
#995=CARTESIAN_POINT('Ctrl Pts',(25.6454480235743,-11.8500414776536,-75.8401590763282));
#996=CARTESIAN_POINT('Ctrl Pts',(25.3820363978856,-12.4084585846758,-76.1938460446037));
#997=CARTESIAN_POINT('Ctrl Pts',(25.1754671602103,-12.8252832792427,-76.3539715916613));
#998=CARTESIAN_POINT('Ctrl Pts',(24.7260974548343,-13.6715816102218,-76.5694135403147));
#999=CARTESIAN_POINT('Ctrl Pts',(24.482832012271,-14.1017535656965,-76.621));
#1000=CARTESIAN_POINT('Ctrl Pts',(24.0516224957044,-14.8233434435864,-76.621));
#1001=CARTESIAN_POINT('Ctrl Pts',(23.8275458397277,-15.1813463983306,-76.5835021188569));
#1002=CARTESIAN_POINT('Ctrl Pts',(23.3843678879043,-15.8554898156689,-76.3916277530878));
#1003=CARTESIAN_POINT('Ctrl Pts',(23.1651378046117,-16.172094197837,-76.2391838651713));
#1004=CARTESIAN_POINT('Ctrl Pts',(22.8903531931838,-16.5565639701321,-75.8951038358677));
#1005=CARTESIAN_POINT('Ctrl Pts',(22.7983189990254,-16.6826656119306,-75.7449119840445));
#1006=CARTESIAN_POINT('Ctrl Pts',(22.7000365654227,-16.8158819191411,-75.4836448777055));
#1007=CARTESIAN_POINT('Ctrl Pts',(22.6737198697024,-16.8512841306266,-75.3906019676798));
#1008=CARTESIAN_POINT('Ctrl Pts',(22.6382035772659,-16.8989691260313,-75.1982375186067));
#1009=CARTESIAN_POINT('Ctrl Pts',(22.629,-16.9112642637977,-75.0989197771073));
#1010=CARTESIAN_POINT('Ctrl Pts',(22.629,-16.9112642637977,-75.));
#1011=CARTESIAN_POINT('Ctrl Pts',(22.629,-16.9112642637977,-75.));
#1012=CARTESIAN_POINT('Ctrl Pts',(22.629,-16.9112642637977,-74.9010802228927));
#1013=CARTESIAN_POINT('Ctrl Pts',(22.6382035772659,-16.8989691260313,-74.8017624813933));
#1014=CARTESIAN_POINT('Ctrl Pts',(22.6737198697024,-16.8512841306266,-74.6093980323202));
#1015=CARTESIAN_POINT('Ctrl Pts',(22.7000365654227,-16.8158819191411,-74.5163551222945));
#1016=CARTESIAN_POINT('Ctrl Pts',(22.7983189990254,-16.6826656119306,-74.2550880159555));
#1017=CARTESIAN_POINT('Ctrl Pts',(22.8903531931838,-16.5565639701321,-74.1048961641323));
#1018=CARTESIAN_POINT('Ctrl Pts',(23.1651378046117,-16.172094197837,-73.7608161348287));
#1019=CARTESIAN_POINT('Ctrl Pts',(23.3843678879043,-15.8554898156689,-73.6083722469122));
#1020=CARTESIAN_POINT('Ctrl Pts',(23.8275458397277,-15.1813463983306,-73.4164978811431));
#1021=CARTESIAN_POINT('Ctrl Pts',(24.0516224957044,-14.8233434435864,-73.379));
#1022=CARTESIAN_POINT('Ctrl Pts',(24.482832012271,-14.1017535656965,-73.379));
#1023=CARTESIAN_POINT('Ctrl Pts',(24.7260974548343,-13.6715816102218,-73.4305864596854));
#1024=CARTESIAN_POINT('Ctrl Pts',(25.1754671602103,-12.8252832792427,-73.6460284083387));
#1025=CARTESIAN_POINT('Ctrl Pts',(25.3820363978856,-12.4084585846758,-73.8061539553963));
#1026=CARTESIAN_POINT('Ctrl Pts',(25.6454480235743,-11.8500414776536,-74.1598409236718));
#1027=CARTESIAN_POINT('Ctrl Pts',(25.748295975676,-11.6236703936123,-74.3436364273163));
#1028=CARTESIAN_POINT('Ctrl Pts',(25.8263191961999,-11.4483904674372,-74.6165500313152));
#1029=CARTESIAN_POINT('Ctrl Pts',(25.8428159117016,-11.4110533779898,-74.6891811958477));
#1030=CARTESIAN_POINT('Ctrl Pts',(25.8652329951489,-11.3601494502922,-74.8428591784842));
#1031=CARTESIAN_POINT('Ctrl Pts',(25.871,-11.3469757644934,-74.9240582671867));
#1032=CARTESIAN_POINT('Ctrl Pts',(25.871,-11.3469757644934,-75.));
#1033=CARTESIAN_POINT('Origin',(20.25,4.44089209850063E-15,-80.));
#1034=CARTESIAN_POINT('',(20.25,19.6977156035922,0.));
#1035=CARTESIAN_POINT('Origin',(0.,0.,0.));
#1036=CARTESIAN_POINT('',(-28.25,3.45962720759127E-15,0.));
#1037=CARTESIAN_POINT('',(-20.25,19.6977156035922,0.));
#1038=CARTESIAN_POINT('',(-20.25,19.6977156035922,0.));
#1039=CARTESIAN_POINT('Origin',(0.,0.,0.));
#1040=CARTESIAN_POINT('Origin',(0.,0.,-10.));
#1041=CARTESIAN_POINT('Origin',(0.,0.,0.));
#1042=CARTESIAN_POINT('',(-25.871,-11.3469757644934,-5.));
#1043=CARTESIAN_POINT('',(-22.629,-16.9112642637977,-5.));
#1044=CARTESIAN_POINT('Ctrl Pts',(-25.871,-11.3469757644934,-5.));
#1045=CARTESIAN_POINT('Ctrl Pts',(-25.871,-11.3469757644934,-4.92405826718673));
#1046=CARTESIAN_POINT('Ctrl Pts',(-25.8652329951489,-11.3601494502922,-4.8428591784842));
#1047=CARTESIAN_POINT('Ctrl Pts',(-25.8428159117016,-11.4110533779898,-4.68918119584769));
#1048=CARTESIAN_POINT('Ctrl Pts',(-25.8263191961999,-11.4483904674372,-4.61655003131523));
#1049=CARTESIAN_POINT('Ctrl Pts',(-25.748295975676,-11.6236703936123,-4.34363642731629));
#1050=CARTESIAN_POINT('Ctrl Pts',(-25.6454480235743,-11.8500414776536,-4.15984092367181));
#1051=CARTESIAN_POINT('Ctrl Pts',(-25.3820363978856,-12.4084585846758,-3.80615395539627));
#1052=CARTESIAN_POINT('Ctrl Pts',(-25.1754671602103,-12.8252832792427,-3.64602840833867));
#1053=CARTESIAN_POINT('Ctrl Pts',(-24.7260974548343,-13.6715816102218,-3.43058645968535));
#1054=CARTESIAN_POINT('Ctrl Pts',(-24.482832012271,-14.1017535656965,-3.379));
#1055=CARTESIAN_POINT('Ctrl Pts',(-24.0516224957044,-14.8233434435864,-3.379));
#1056=CARTESIAN_POINT('Ctrl Pts',(-23.8275458397277,-15.1813463983306,-3.41649788114308));
#1057=CARTESIAN_POINT('Ctrl Pts',(-23.3843678879043,-15.8554898156689,-3.60837224691223));
#1058=CARTESIAN_POINT('Ctrl Pts',(-23.1651378046117,-16.172094197837,-3.76081613482873));
#1059=CARTESIAN_POINT('Ctrl Pts',(-22.8903531931838,-16.5565639701321,-4.10489616413225));
#1060=CARTESIAN_POINT('Ctrl Pts',(-22.7983189990254,-16.6826656119306,-4.25508801595552));
#1061=CARTESIAN_POINT('Ctrl Pts',(-22.7000365654227,-16.8158819191411,-4.51635512229446));
#1062=CARTESIAN_POINT('Ctrl Pts',(-22.6737198697025,-16.8512841306266,-4.6093980323202));
#1063=CARTESIAN_POINT('Ctrl Pts',(-22.638203577266,-16.8989691260313,-4.80176248139334));
#1064=CARTESIAN_POINT('Ctrl Pts',(-22.629,-16.9112642637977,-4.90108022289271));
#1065=CARTESIAN_POINT('Ctrl Pts',(-22.629,-16.9112642637977,-5.));
#1066=CARTESIAN_POINT('Ctrl Pts',(-22.629,-16.9112642637977,-5.));
#1067=CARTESIAN_POINT('Ctrl Pts',(-22.629,-16.9112642637977,-5.09891977710729));
#1068=CARTESIAN_POINT('Ctrl Pts',(-22.638203577266,-16.8989691260313,-5.19823751860665));
#1069=CARTESIAN_POINT('Ctrl Pts',(-22.6737198697025,-16.8512841306266,-5.39060196767979));
#1070=CARTESIAN_POINT('Ctrl Pts',(-22.7000365654227,-16.8158819191411,-5.48364487770553));
#1071=CARTESIAN_POINT('Ctrl Pts',(-22.7983189990254,-16.6826656119306,-5.74491198404447));
#1072=CARTESIAN_POINT('Ctrl Pts',(-22.8903531931838,-16.5565639701321,-5.89510383586775));
#1073=CARTESIAN_POINT('Ctrl Pts',(-23.1651378046117,-16.172094197837,-6.23918386517126));
#1074=CARTESIAN_POINT('Ctrl Pts',(-23.3843678879043,-15.8554898156689,-6.39162775308777));
#1075=CARTESIAN_POINT('Ctrl Pts',(-23.8275458397277,-15.1813463983306,-6.58350211885692));
#1076=CARTESIAN_POINT('Ctrl Pts',(-24.0516224957044,-14.8233434435864,-6.621));
#1077=CARTESIAN_POINT('Ctrl Pts',(-24.482832012271,-14.1017535656965,-6.621));
#1078=CARTESIAN_POINT('Ctrl Pts',(-24.7260974548343,-13.6715816102218,-6.56941354031465));
#1079=CARTESIAN_POINT('Ctrl Pts',(-25.1754671602102,-12.8252832792427,-6.35397159166133));
#1080=CARTESIAN_POINT('Ctrl Pts',(-25.3820363978856,-12.4084585846758,-6.19384604460372));
#1081=CARTESIAN_POINT('Ctrl Pts',(-25.6454480235743,-11.8500414776536,-5.84015907632819));
#1082=CARTESIAN_POINT('Ctrl Pts',(-25.748295975676,-11.6236703936123,-5.65636357268371));
#1083=CARTESIAN_POINT('Ctrl Pts',(-25.8263191961999,-11.4483904674372,-5.38344996868477));
#1084=CARTESIAN_POINT('Ctrl Pts',(-25.8428159117016,-11.4110533779898,-5.3108188041523));
#1085=CARTESIAN_POINT('Ctrl Pts',(-25.8652329951489,-11.3601494502922,-5.1571408215158));
#1086=CARTESIAN_POINT('Ctrl Pts',(-25.871,-11.3469757644934,-5.07594173281327));
#1087=CARTESIAN_POINT('Ctrl Pts',(-25.871,-11.3469757644934,-5.));
#1088=CARTESIAN_POINT('',(25.871,-11.3469757644934,-5.));
#1089=CARTESIAN_POINT('',(22.629,-16.9112642637977,-5.));
#1090=CARTESIAN_POINT('Ctrl Pts',(25.871,-11.3469757644934,-5.));
#1091=CARTESIAN_POINT('Ctrl Pts',(25.871,-11.3469757644934,-5.07594173281327));
#1092=CARTESIAN_POINT('Ctrl Pts',(25.8652329951489,-11.3601494502922,-5.1571408215158));
#1093=CARTESIAN_POINT('Ctrl Pts',(25.8428159117016,-11.4110533779898,-5.3108188041523));
#1094=CARTESIAN_POINT('Ctrl Pts',(25.8263191961999,-11.4483904674372,-5.38344996868477));
#1095=CARTESIAN_POINT('Ctrl Pts',(25.748295975676,-11.6236703936123,-5.65636357268371));
#1096=CARTESIAN_POINT('Ctrl Pts',(25.6454480235743,-11.8500414776536,-5.84015907632819));
#1097=CARTESIAN_POINT('Ctrl Pts',(25.3820363978856,-12.4084585846758,-6.19384604460372));
#1098=CARTESIAN_POINT('Ctrl Pts',(25.1754671602103,-12.8252832792427,-6.35397159166133));
#1099=CARTESIAN_POINT('Ctrl Pts',(24.7260974548343,-13.6715816102218,-6.56941354031465));
#1100=CARTESIAN_POINT('Ctrl Pts',(24.482832012271,-14.1017535656965,-6.621));
#1101=CARTESIAN_POINT('Ctrl Pts',(24.0516224957044,-14.8233434435864,-6.621));
#1102=CARTESIAN_POINT('Ctrl Pts',(23.8275458397277,-15.1813463983306,-6.58350211885692));
#1103=CARTESIAN_POINT('Ctrl Pts',(23.3843678879043,-15.8554898156689,-6.39162775308777));
#1104=CARTESIAN_POINT('Ctrl Pts',(23.1651378046117,-16.172094197837,-6.23918386517126));
#1105=CARTESIAN_POINT('Ctrl Pts',(22.8903531931838,-16.5565639701321,-5.89510383586775));
#1106=CARTESIAN_POINT('Ctrl Pts',(22.7983189990254,-16.6826656119306,-5.74491198404447));
#1107=CARTESIAN_POINT('Ctrl Pts',(22.7000365654227,-16.8158819191411,-5.48364487770553));
#1108=CARTESIAN_POINT('Ctrl Pts',(22.6737198697025,-16.8512841306266,-5.39060196767979));
#1109=CARTESIAN_POINT('Ctrl Pts',(22.638203577266,-16.8989691260313,-5.19823751860665));
#1110=CARTESIAN_POINT('Ctrl Pts',(22.629,-16.9112642637977,-5.09891977710729));
#1111=CARTESIAN_POINT('Ctrl Pts',(22.629,-16.9112642637977,-5.));
#1112=CARTESIAN_POINT('Ctrl Pts',(22.629,-16.9112642637977,-5.));
#1113=CARTESIAN_POINT('Ctrl Pts',(22.629,-16.9112642637977,-4.90108022289271));
#1114=CARTESIAN_POINT('Ctrl Pts',(22.638203577266,-16.8989691260313,-4.80176248139334));
#1115=CARTESIAN_POINT('Ctrl Pts',(22.6737198697025,-16.8512841306266,-4.6093980323202));
#1116=CARTESIAN_POINT('Ctrl Pts',(22.7000365654227,-16.8158819191411,-4.51635512229446));
#1117=CARTESIAN_POINT('Ctrl Pts',(22.7983189990254,-16.6826656119306,-4.25508801595552));
#1118=CARTESIAN_POINT('Ctrl Pts',(22.8903531931838,-16.5565639701321,-4.10489616413225));
#1119=CARTESIAN_POINT('Ctrl Pts',(23.1651378046117,-16.172094197837,-3.76081613482873));
#1120=CARTESIAN_POINT('Ctrl Pts',(23.3843678879043,-15.8554898156689,-3.60837224691223));
#1121=CARTESIAN_POINT('Ctrl Pts',(23.8275458397277,-15.1813463983306,-3.41649788114308));
#1122=CARTESIAN_POINT('Ctrl Pts',(24.0516224957044,-14.8233434435864,-3.379));
#1123=CARTESIAN_POINT('Ctrl Pts',(24.482832012271,-14.1017535656965,-3.379));
#1124=CARTESIAN_POINT('Ctrl Pts',(24.7260974548343,-13.6715816102218,-3.43058645968535));
#1125=CARTESIAN_POINT('Ctrl Pts',(25.1754671602102,-12.8252832792427,-3.64602840833866));
#1126=CARTESIAN_POINT('Ctrl Pts',(25.3820363978856,-12.4084585846758,-3.80615395539628));
#1127=CARTESIAN_POINT('Ctrl Pts',(25.6454480235743,-11.8500414776536,-4.15984092367181));
#1128=CARTESIAN_POINT('Ctrl Pts',(25.748295975676,-11.6236703936123,-4.34363642731629));
#1129=CARTESIAN_POINT('Ctrl Pts',(25.8263191961999,-11.4483904674372,-4.61655003131523));
#1130=CARTESIAN_POINT('Ctrl Pts',(25.8428159117016,-11.4110533779898,-4.68918119584769));
#1131=CARTESIAN_POINT('Ctrl Pts',(25.8652329951489,-11.3601494502922,-4.84285917848419));
#1132=CARTESIAN_POINT('Ctrl Pts',(25.871,-11.3469757644934,-4.92405826718673));
#1133=CARTESIAN_POINT('Ctrl Pts',(25.871,-11.3469757644934,-5.));
#1134=CARTESIAN_POINT('Origin',(-20.25,4.44089209850063E-15,0.));
#1135=CARTESIAN_POINT('',(-20.25,4.91828799908944E-15,0.));
#1136=CARTESIAN_POINT('Origin',(-24.25,-113.068563270257,-5.));
#1137=CARTESIAN_POINT('',(-22.629,-113.068563270257,-5.));
#1138=CARTESIAN_POINT('Origin',(24.25,-113.068563270257,-5.));
#1139=CARTESIAN_POINT('',(22.629,-113.068563270257,-5.));
#1140=CARTESIAN_POINT('Origin',(24.25,12.5,-10.));
#1141=CARTESIAN_POINT('Origin',(0.,0.,0.));
#1142=CARTESIAN_POINT('',(18.5,18.5,0.));
#1143=CARTESIAN_POINT('',(18.5,-18.5,0.));
#1144=CARTESIAN_POINT('',(18.5,18.5,0.));
#1145=CARTESIAN_POINT('',(-18.5,-18.5,0.));
#1146=CARTESIAN_POINT('',(18.5,-18.5,0.));
#1147=CARTESIAN_POINT('',(-18.5,18.5,0.));
#1148=CARTESIAN_POINT('',(-18.5,-18.5,0.));
#1149=CARTESIAN_POINT('',(-18.5,18.5,0.));
#1150=CARTESIAN_POINT('Origin',(-18.5,-18.5,0.));
#1151=CARTESIAN_POINT('',(18.5,-18.5,0.));
#1152=CARTESIAN_POINT('',(-18.5,-18.5,0.));
#1153=CARTESIAN_POINT('Origin',(-18.5,18.5,0.));
#1154=CARTESIAN_POINT('',(-18.5,18.5,0.));
#1155=CARTESIAN_POINT('Origin',(18.5,18.5,0.));
#1156=CARTESIAN_POINT('',(18.5,18.5,0.));
#1157=CARTESIAN_POINT('Origin',(18.5,-18.5,0.));
#1158=CARTESIAN_POINT('',(0.,0.,-0.0169661791609688));
#1159=UNCERTAINTY_MEASURE_WITH_UNIT(LENGTH_MEASURE(0.01),#1165,
'DISTANCE_ACCURACY_VALUE',
'Maximum model space distance between geometric entities at asserted c
onnectivities');
#1160=UNCERTAINTY_MEASURE_WITH_UNIT(LENGTH_MEASURE(0.01),#1165,
'DISTANCE_ACCURACY_VALUE',
'Maximum model space distance between geometric entities at asserted c
onnectivities');
#1161=UNCERTAINTY_MEASURE_WITH_UNIT(LENGTH_MEASURE(0.01),#1165,
'DISTANCE_ACCURACY_VALUE',
'Maximum model space distance between geometric entities at asserted c
onnectivities');
#1162=(
GEOMETRIC_REPRESENTATION_CONTEXT(3)
GLOBAL_UNCERTAINTY_ASSIGNED_CONTEXT((#1159))
GLOBAL_UNIT_ASSIGNED_CONTEXT((#1165,#1167,#1168))
REPRESENTATION_CONTEXT('','3D')
);
#1163=(
GEOMETRIC_REPRESENTATION_CONTEXT(3)
GLOBAL_UNCERTAINTY_ASSIGNED_CONTEXT((#1160))
GLOBAL_UNIT_ASSIGNED_CONTEXT((#1165,#1167,#1168))
REPRESENTATION_CONTEXT('','3D')
);
#1164=(
GEOMETRIC_REPRESENTATION_CONTEXT(3)
GLOBAL_UNCERTAINTY_ASSIGNED_CONTEXT((#1161))
GLOBAL_UNIT_ASSIGNED_CONTEXT((#1165,#1167,#1168))
REPRESENTATION_CONTEXT('','3D')
);
#1165=(
LENGTH_UNIT()
NAMED_UNIT(*)
SI_UNIT(.MILLI.,.METRE.)
);
#1166=(
LENGTH_UNIT()
NAMED_UNIT(*)
SI_UNIT(.CENTI.,.METRE.)
);
#1167=(
NAMED_UNIT(*)
PLANE_ANGLE_UNIT()
SI_UNIT($,.RADIAN.)
);
#1168=(
NAMED_UNIT(*)
SI_UNIT($,.STERADIAN.)
SOLID_ANGLE_UNIT()
);
#1169=SHAPE_DEFINITION_REPRESENTATION(#1171,#1174);
#1170=SHAPE_DEFINITION_REPRESENTATION(#1172,#1175);
#1171=PRODUCT_DEFINITION_SHAPE('',$,#1177);
#1172=PRODUCT_DEFINITION_SHAPE('',$,#1178);
#1173=PRODUCT_DEFINITION_SHAPE($,$,#14);
#1174=SHAPE_REPRESENTATION('',(#593,#638),#1162);
#1175=SHAPE_REPRESENTATION('',(#594),#1163);
#1176=PRODUCT_DEFINITION_CONTEXT('part definition',#1184,'design');
#1177=PRODUCT_DEFINITION('Assembly_X2','Assembly_X2',#1179,#1176);
#1178=PRODUCT_DEFINITION('Part3_A_X','Part3_A_X',#1180,#1176);
#1179=PRODUCT_DEFINITION_FORMATION('',$,#1186);
#1180=PRODUCT_DEFINITION_FORMATION('',$,#1187);
#1181=PRODUCT_RELATED_PRODUCT_CATEGORY('Assembly_X2','Assembly_X2',(#1186));
#1182=PRODUCT_RELATED_PRODUCT_CATEGORY('Part3_A_X','Part3_A_X',(#1187));
#1183=APPLICATION_PROTOCOL_DEFINITION('international standard',
'automotive_design',2009,#1184);
#1184=APPLICATION_CONTEXT(
'Core Data for Automotive Mechanical Design Process');
#1185=PRODUCT_CONTEXT('part definition',#1184,'mechanical');
#1186=PRODUCT('Assembly_X2','Assembly_X2',$,(#1185));
#1187=PRODUCT('Part3_A_X','Part3_A_X',$,(#1185));
ENDSEC;
END-ISO-10303-21;
