ISO-10303-21;
HEADER;
/* Generated by software containing ST-Developer
 * from STEP Tools, Inc. (www.steptools.com) 
 */

FILE_DESCRIPTION(
/* description */ (''),
/* implementation_level */ '2;1');

FILE_NAME(
/* name */ 'Plate.stp',
/* time_stamp */ '2026-02-19T19:08:42+09:00',
/* author */ ('Hirotaka-Honda'),
/* organization */ (''),
/* preprocessor_version */ 'ST-DEVELOPER v20.1',
/* originating_system */ 'Autodesk Inventor 2026',
/* authorisation */ '');

FILE_SCHEMA (('AUTOMOTIVE_DESIGN { 1 0 10303 214 3 1 1 }'));
ENDSEC;

DATA;
#10=MECHANICAL_DESIGN_GEOMETRIC_PRESENTATION_REPRESENTATION('',(#13),#274);
#11=SHAPE_REPRESENTATION_RELATIONSHIP('SRR','None',#281,#12);
#12=ADVANCED_BREP_SHAPE_REPRESENTATION('',(#14),#273);
#13=STYLED_ITEM('',(#290),#14);
#14=MANIFOLD_SOLID_BREP('\X2\30BD30EA30C330C9\X0\1',#149);
#15=CYLINDRICAL_SURFACE('',#177,3.5);
#16=CYLINDRICAL_SURFACE('',#183,3.5);
#17=CYLINDRICAL_SURFACE('',#184,2.25);
#18=CYLINDRICAL_SURFACE('',#185,2.25);
#19=FACE_BOUND('',#32,.T.);
#20=FACE_BOUND('',#33,.T.);
#21=FACE_BOUND('',#36,.T.);
#22=FACE_BOUND('',#37,.T.);
#23=FACE_OUTER_BOUND('',#31,.T.);
#24=FACE_OUTER_BOUND('',#34,.T.);
#25=FACE_OUTER_BOUND('',#35,.T.);
#26=FACE_OUTER_BOUND('',#38,.T.);
#27=FACE_OUTER_BOUND('',#39,.T.);
#28=FACE_OUTER_BOUND('',#40,.T.);
#29=FACE_OUTER_BOUND('',#41,.T.);
#30=FACE_OUTER_BOUND('',#42,.T.);
#31=EDGE_LOOP('',(#101,#102,#103,#104));
#32=EDGE_LOOP('',(#105));
#33=EDGE_LOOP('',(#106));
#34=EDGE_LOOP('',(#107,#108,#109,#110));
#35=EDGE_LOOP('',(#111,#112,#113,#114));
#36=EDGE_LOOP('',(#115));
#37=EDGE_LOOP('',(#116));
#38=EDGE_LOOP('',(#117,#118,#119,#120));
#39=EDGE_LOOP('',(#121,#122,#123,#124));
#40=EDGE_LOOP('',(#125,#126,#127,#128));
#41=EDGE_LOOP('',(#129,#130,#131,#132));
#42=EDGE_LOOP('',(#133,#134,#135,#136));
#43=LINE('',#238,#53);
#44=LINE('',#241,#54);
#45=LINE('',#248,#55);
#46=LINE('',#251,#56);
#47=LINE('',#254,#57);
#48=LINE('',#257,#58);
#49=LINE('',#263,#59);
#50=LINE('',#264,#60);
#51=LINE('',#266,#61);
#52=LINE('',#268,#62);
#53=VECTOR('',#194,10.);
#54=VECTOR('',#197,10.);
#55=VECTOR('',#204,10.);
#56=VECTOR('',#207,10.);
#57=VECTOR('',#210,10.);
#58=VECTOR('',#213,10.);
#59=VECTOR('',#220,10.);
#60=VECTOR('',#221,10.);
#61=VECTOR('',#224,2.25);
#62=VECTOR('',#227,2.25);
#63=CIRCLE('',#173,3.5);
#64=CIRCLE('',#174,3.5);
#65=CIRCLE('',#175,2.25);
#66=CIRCLE('',#176,2.25);
#67=CIRCLE('',#178,3.5);
#68=CIRCLE('',#180,3.5);
#69=CIRCLE('',#181,2.25);
#70=CIRCLE('',#182,2.25);
#71=VERTEX_POINT('',#234);
#72=VERTEX_POINT('',#235);
#73=VERTEX_POINT('',#237);
#74=VERTEX_POINT('',#239);
#75=VERTEX_POINT('',#242);
#76=VERTEX_POINT('',#244);
#77=VERTEX_POINT('',#247);
#78=VERTEX_POINT('',#249);
#79=VERTEX_POINT('',#253);
#80=VERTEX_POINT('',#255);
#81=VERTEX_POINT('',#258);
#82=VERTEX_POINT('',#260);
#83=EDGE_CURVE('',#71,#72,#63,.T.);
#84=EDGE_CURVE('',#71,#73,#43,.T.);
#85=EDGE_CURVE('',#74,#73,#64,.T.);
#86=EDGE_CURVE('',#74,#72,#44,.T.);
#87=EDGE_CURVE('',#75,#75,#65,.T.);
#88=EDGE_CURVE('',#76,#76,#66,.T.);
#89=EDGE_CURVE('',#72,#77,#45,.T.);
#90=EDGE_CURVE('',#77,#78,#67,.T.);
#91=EDGE_CURVE('',#78,#71,#46,.T.);
#92=EDGE_CURVE('',#79,#77,#47,.T.);
#93=EDGE_CURVE('',#80,#79,#68,.T.);
#94=EDGE_CURVE('',#78,#80,#48,.T.);
#95=EDGE_CURVE('',#81,#81,#69,.T.);
#96=EDGE_CURVE('',#82,#82,#70,.T.);
#97=EDGE_CURVE('',#73,#80,#49,.T.);
#98=EDGE_CURVE('',#79,#74,#50,.T.);
#99=EDGE_CURVE('',#76,#82,#51,.T.);
#100=EDGE_CURVE('',#75,#81,#52,.T.);
#101=ORIENTED_EDGE('',*,*,#83,.F.);
#102=ORIENTED_EDGE('',*,*,#84,.T.);
#103=ORIENTED_EDGE('',*,*,#85,.F.);
#104=ORIENTED_EDGE('',*,*,#86,.T.);
#105=ORIENTED_EDGE('',*,*,#87,.T.);
#106=ORIENTED_EDGE('',*,*,#88,.T.);
#107=ORIENTED_EDGE('',*,*,#83,.T.);
#108=ORIENTED_EDGE('',*,*,#89,.T.);
#109=ORIENTED_EDGE('',*,*,#90,.T.);
#110=ORIENTED_EDGE('',*,*,#91,.T.);
#111=ORIENTED_EDGE('',*,*,#90,.F.);
#112=ORIENTED_EDGE('',*,*,#92,.F.);
#113=ORIENTED_EDGE('',*,*,#93,.F.);
#114=ORIENTED_EDGE('',*,*,#94,.F.);
#115=ORIENTED_EDGE('',*,*,#95,.T.);
#116=ORIENTED_EDGE('',*,*,#96,.T.);
#117=ORIENTED_EDGE('',*,*,#85,.T.);
#118=ORIENTED_EDGE('',*,*,#97,.T.);
#119=ORIENTED_EDGE('',*,*,#93,.T.);
#120=ORIENTED_EDGE('',*,*,#98,.T.);
#121=ORIENTED_EDGE('',*,*,#88,.F.);
#122=ORIENTED_EDGE('',*,*,#99,.T.);
#123=ORIENTED_EDGE('',*,*,#96,.F.);
#124=ORIENTED_EDGE('',*,*,#99,.F.);
#125=ORIENTED_EDGE('',*,*,#87,.F.);
#126=ORIENTED_EDGE('',*,*,#100,.T.);
#127=ORIENTED_EDGE('',*,*,#95,.F.);
#128=ORIENTED_EDGE('',*,*,#100,.F.);
#129=ORIENTED_EDGE('',*,*,#91,.F.);
#130=ORIENTED_EDGE('',*,*,#94,.T.);
#131=ORIENTED_EDGE('',*,*,#97,.F.);
#132=ORIENTED_EDGE('',*,*,#84,.F.);
#133=ORIENTED_EDGE('',*,*,#89,.F.);
#134=ORIENTED_EDGE('',*,*,#86,.F.);
#135=ORIENTED_EDGE('',*,*,#98,.F.);
#136=ORIENTED_EDGE('',*,*,#92,.T.);
#137=PLANE('',#172);
#138=PLANE('',#179);
#139=PLANE('',#186);
#140=PLANE('',#187);
#141=ADVANCED_FACE('',(#23,#19,#20),#137,.T.);
#142=ADVANCED_FACE('',(#24),#15,.T.);
#143=ADVANCED_FACE('',(#25,#21,#22),#138,.F.);
#144=ADVANCED_FACE('',(#26),#16,.T.);
#145=ADVANCED_FACE('',(#27),#17,.F.);
#146=ADVANCED_FACE('',(#28),#18,.F.);
#147=ADVANCED_FACE('',(#29),#139,.T.);
#148=ADVANCED_FACE('',(#30),#140,.T.);
#149=CLOSED_SHELL('',(#141,#142,#143,#144,#145,#146,#147,#148));
#150=DERIVED_UNIT_ELEMENT(#153,1.);
#151=DERIVED_UNIT_ELEMENT(#276,-3.);
#152=DIMENSIONAL_EXPONENTS(0.,1.,0.,0.,0.,0.,0.);
#153=(
CONVERSION_BASED_UNIT('gram',#155)
MASS_UNIT()
NAMED_UNIT(#152)
);
#154=(
MASS_UNIT()
NAMED_UNIT(*)
SI_UNIT(.KILO.,.GRAM.)
);
#155=MASS_MEASURE_WITH_UNIT(MASS_MEASURE(0.001),#154);
#156=DERIVED_UNIT((#150,#151));
#157=MEASURE_REPRESENTATION_ITEM('density measure',
POSITIVE_RATIO_MEASURE(7.85),#156);
#158=PROPERTY_DEFINITION_REPRESENTATION(#163,#160);
#159=PROPERTY_DEFINITION_REPRESENTATION(#164,#161);
#160=REPRESENTATION('material name',(#162),#273);
#161=REPRESENTATION('density',(#157),#273);
#162=DESCRIPTIVE_REPRESENTATION_ITEM('\X2\92FC30018EDF92FC\X0\',
'\X2\92FC30018EDF92FC\X0\');
#163=PROPERTY_DEFINITION('material property','material name',#283);
#164=PROPERTY_DEFINITION('material property','density of part',#283);
#165=DATE_TIME_ROLE('creation_date');
#166=APPLIED_DATE_AND_TIME_ASSIGNMENT(#167,#165,(#283));
#167=DATE_AND_TIME(#168,#169);
#168=CALENDAR_DATE(2026,19,2);
#169=LOCAL_TIME(0,0,0.,#170);
#170=COORDINATED_UNIVERSAL_TIME_OFFSET(0,0,.BEHIND.);
#171=AXIS2_PLACEMENT_3D('',#232,#188,#189);
#172=AXIS2_PLACEMENT_3D('',#233,#190,#191);
#173=AXIS2_PLACEMENT_3D('',#236,#192,#193);
#174=AXIS2_PLACEMENT_3D('',#240,#195,#196);
#175=AXIS2_PLACEMENT_3D('',#243,#198,#199);
#176=AXIS2_PLACEMENT_3D('',#245,#200,#201);
#177=AXIS2_PLACEMENT_3D('',#246,#202,#203);
#178=AXIS2_PLACEMENT_3D('',#250,#205,#206);
#179=AXIS2_PLACEMENT_3D('',#252,#208,#209);
#180=AXIS2_PLACEMENT_3D('',#256,#211,#212);
#181=AXIS2_PLACEMENT_3D('',#259,#214,#215);
#182=AXIS2_PLACEMENT_3D('',#261,#216,#217);
#183=AXIS2_PLACEMENT_3D('',#262,#218,#219);
#184=AXIS2_PLACEMENT_3D('',#265,#222,#223);
#185=AXIS2_PLACEMENT_3D('',#267,#225,#226);
#186=AXIS2_PLACEMENT_3D('',#269,#228,#229);
#187=AXIS2_PLACEMENT_3D('',#270,#230,#231);
#188=DIRECTION('axis',(0.,0.,1.));
#189=DIRECTION('refdir',(1.,0.,0.));
#190=DIRECTION('center_axis',(0.,1.,0.));
#191=DIRECTION('ref_axis',(0.,0.,1.));
#192=DIRECTION('center_axis',(0.,-1.,0.));
#193=DIRECTION('ref_axis',(-0.707106781186547,0.,0.707106781186548));
#194=DIRECTION('',(1.,0.,-1.2335811384724E-16));
#195=DIRECTION('center_axis',(0.,-1.,0.));
#196=DIRECTION('ref_axis',(0.707106781186548,0.,-0.707106781186547));
#197=DIRECTION('',(-1.,0.,2.46716227694479E-16));
#198=DIRECTION('center_axis',(0.,-1.,0.));
#199=DIRECTION('ref_axis',(1.,0.,0.));
#200=DIRECTION('center_axis',(0.,-1.,0.));
#201=DIRECTION('ref_axis',(1.,0.,0.));
#202=DIRECTION('center_axis',(0.,1.,0.));
#203=DIRECTION('ref_axis',(-0.707106781186547,0.,0.707106781186548));
#204=DIRECTION('',(0.,-1.,0.));
#205=DIRECTION('center_axis',(0.,1.,0.));
#206=DIRECTION('ref_axis',(-0.707106781186547,0.,0.707106781186548));
#207=DIRECTION('',(0.,1.,0.));
#208=DIRECTION('center_axis',(0.,1.,0.));
#209=DIRECTION('ref_axis',(0.,0.,1.));
#210=DIRECTION('',(-1.,0.,2.46716227694479E-16));
#211=DIRECTION('center_axis',(0.,1.,0.));
#212=DIRECTION('ref_axis',(0.707106781186548,0.,-0.707106781186547));
#213=DIRECTION('',(1.,0.,-1.2335811384724E-16));
#214=DIRECTION('center_axis',(0.,1.,0.));
#215=DIRECTION('ref_axis',(1.,0.,0.));
#216=DIRECTION('center_axis',(0.,1.,0.));
#217=DIRECTION('ref_axis',(1.,0.,0.));
#218=DIRECTION('center_axis',(0.,1.,0.));
#219=DIRECTION('ref_axis',(0.707106781186547,0.,0.707106781186548));
#220=DIRECTION('',(0.,-1.,0.));
#221=DIRECTION('',(0.,1.,0.));
#222=DIRECTION('center_axis',(0.,1.,0.));
#223=DIRECTION('ref_axis',(1.,0.,0.));
#224=DIRECTION('',(0.,-1.,0.));
#225=DIRECTION('center_axis',(0.,1.,0.));
#226=DIRECTION('ref_axis',(1.,0.,0.));
#227=DIRECTION('',(0.,-1.,0.));
#228=DIRECTION('center_axis',(1.2335811384724E-16,0.,1.));
#229=DIRECTION('ref_axis',(1.,0.,-1.2335811384724E-16));
#230=DIRECTION('center_axis',(-2.46716227694479E-16,0.,-1.));
#231=DIRECTION('ref_axis',(-1.,0.,2.46716227694479E-16));
#232=CARTESIAN_POINT('',(0.,0.,0.));
#233=CARTESIAN_POINT('Origin',(9.,1.,-3.5));
#234=CARTESIAN_POINT('',(3.5,1.,-4.31753398465339E-16));
#235=CARTESIAN_POINT('',(3.5,1.,-7.));
#236=CARTESIAN_POINT('Origin',(3.5,1.,-3.5));
#237=CARTESIAN_POINT('',(14.5,1.,-1.78869265078497E-15));
#238=CARTESIAN_POINT('',(0.,1.,0.));
#239=CARTESIAN_POINT('',(14.5,1.,-7.));
#240=CARTESIAN_POINT('Origin',(14.5,1.,-3.5));
#241=CARTESIAN_POINT('',(18.,1.,-7.00000000000001));
#242=CARTESIAN_POINT('',(1.75,1.,-3.5));
#243=CARTESIAN_POINT('Origin',(4.,1.,-3.5));
#244=CARTESIAN_POINT('',(11.75,1.,-3.5));
#245=CARTESIAN_POINT('Origin',(14.,1.,-3.5));
#246=CARTESIAN_POINT('Origin',(3.5,0.,-3.5));
#247=CARTESIAN_POINT('',(3.5,0.,-7.));
#248=CARTESIAN_POINT('',(3.5,0.,-7.));
#249=CARTESIAN_POINT('',(3.5,0.,-4.31753398465339E-16));
#250=CARTESIAN_POINT('Origin',(3.5,0.,-3.5));
#251=CARTESIAN_POINT('',(3.5,0.,-5.55111512312578E-16));
#252=CARTESIAN_POINT('Origin',(9.,0.,-3.5));
#253=CARTESIAN_POINT('',(14.5,0.,-7.));
#254=CARTESIAN_POINT('',(18.,0.,-7.00000000000001));
#255=CARTESIAN_POINT('',(14.5,0.,-1.78869265078497E-15));
#256=CARTESIAN_POINT('Origin',(14.5,0.,-3.5));
#257=CARTESIAN_POINT('',(0.,0.,0.));
#258=CARTESIAN_POINT('',(1.75,0.,-3.5));
#259=CARTESIAN_POINT('Origin',(4.,0.,-3.5));
#260=CARTESIAN_POINT('',(11.75,0.,-3.5));
#261=CARTESIAN_POINT('Origin',(14.,0.,-3.5));
#262=CARTESIAN_POINT('Origin',(14.5,0.,-3.5));
#263=CARTESIAN_POINT('',(14.5,0.,-1.66533453693773E-15));
#264=CARTESIAN_POINT('',(14.5,0.,-7.));
#265=CARTESIAN_POINT('Origin',(14.,-18.3390796058137,-3.5));
#266=CARTESIAN_POINT('',(11.75,-18.3390796058137,-3.5));
#267=CARTESIAN_POINT('Origin',(4.,-18.3390796058137,-3.5));
#268=CARTESIAN_POINT('',(1.75,-18.3390796058137,-3.5));
#269=CARTESIAN_POINT('Origin',(0.,0.,0.));
#270=CARTESIAN_POINT('Origin',(18.,0.,-7.00000000000001));
#271=UNCERTAINTY_MEASURE_WITH_UNIT(LENGTH_MEASURE(0.01),#275,
'DISTANCE_ACCURACY_VALUE',
'Maximum model space distance between geometric entities at asserted c
onnectivities');
#272=UNCERTAINTY_MEASURE_WITH_UNIT(LENGTH_MEASURE(0.01),#275,
'DISTANCE_ACCURACY_VALUE',
'Maximum model space distance between geometric entities at asserted c
onnectivities');
#273=(
GEOMETRIC_REPRESENTATION_CONTEXT(3)
GLOBAL_UNCERTAINTY_ASSIGNED_CONTEXT((#271))
GLOBAL_UNIT_ASSIGNED_CONTEXT((#275,#277,#278))
REPRESENTATION_CONTEXT('','3D')
);
#274=(
GEOMETRIC_REPRESENTATION_CONTEXT(3)
GLOBAL_UNCERTAINTY_ASSIGNED_CONTEXT((#272))
GLOBAL_UNIT_ASSIGNED_CONTEXT((#275,#277,#278))
REPRESENTATION_CONTEXT('','3D')
);
#275=(
LENGTH_UNIT()
NAMED_UNIT(*)
SI_UNIT(.MILLI.,.METRE.)
);
#276=(
LENGTH_UNIT()
NAMED_UNIT(*)
SI_UNIT(.CENTI.,.METRE.)
);
#277=(
NAMED_UNIT(*)
PLANE_ANGLE_UNIT()
SI_UNIT($,.RADIAN.)
);
#278=(
NAMED_UNIT(*)
SI_UNIT($,.STERADIAN.)
SOLID_ANGLE_UNIT()
);
#279=SHAPE_DEFINITION_REPRESENTATION(#280,#281);
#280=PRODUCT_DEFINITION_SHAPE('',$,#283);
#281=SHAPE_REPRESENTATION('',(#171),#273);
#282=PRODUCT_DEFINITION_CONTEXT('part definition',#287,'design');
#283=PRODUCT_DEFINITION('Plate','Plate',#284,#282);
#284=PRODUCT_DEFINITION_FORMATION('',$,#289);
#285=PRODUCT_RELATED_PRODUCT_CATEGORY('Plate','Plate',(#289));
#286=APPLICATION_PROTOCOL_DEFINITION('international standard',
'automotive_design',2009,#287);
#287=APPLICATION_CONTEXT(
'Core Data for Automotive Mechanical Design Process');
#288=PRODUCT_CONTEXT('part definition',#287,'mechanical');
#289=PRODUCT('Plate','Plate',$,(#288));
#290=PRESENTATION_STYLE_ASSIGNMENT((#291));
#291=SURFACE_STYLE_USAGE(.BOTH.,#294);
#292=SURFACE_STYLE_RENDERING_WITH_PROPERTIES($,#298,(#293));
#293=SURFACE_STYLE_TRANSPARENT(0.);
#294=SURFACE_SIDE_STYLE('',(#295,#292));
#295=SURFACE_STYLE_FILL_AREA(#296);
#296=FILL_AREA_STYLE('',(#297));
#297=FILL_AREA_STYLE_COLOUR('',#298);
#298=COLOUR_RGB('',0.745098039215686,0.737254901960784,0.729411764705882);
ENDSEC;
END-ISO-10303-21;
