ISO-10303-21;
HEADER;
FILE_DESCRIPTION(('Inventor 3D\X2\30C430FC30EB\X0\ \X2\3067\X0\ three.js \X2\306E5F62304B30894F5C6210\X0\'),'2;1');
FILE_NAME('A_assembly.stp','2026-09-30T11:08:32+00:00',(''),(''),'Inventor 3D\X2\30C430FC30EB\X0\','Inventor 3D\X2\30C430FC30EB\X0\','');
FILE_SCHEMA(('AUTOMOTIVE_DESIGN { 1 0 10303 214 3 1 1 }'));
ENDSEC;
DATA;
#1=(LENGTH_UNIT()NAMED_UNIT(*)SI_UNIT(.MILLI.,.METRE.));
#2=(NAMED_UNIT(*)PLANE_ANGLE_UNIT()SI_UNIT($,.RADIAN.));
#3=(NAMED_UNIT(*)SI_UNIT($,.STERADIAN.)SOLID_ANGLE_UNIT());
#4=UNCERTAINTY_MEASURE_WITH_UNIT(LENGTH_MEASURE(1.E-05),#1,'distance_accuracy_value','');
#5=(GEOMETRIC_REPRESENTATION_CONTEXT(3)GLOBAL_UNCERTAINTY_ASSIGNED_CONTEXT((#4))GLOBAL_UNIT_ASSIGNED_CONTEXT((#1,#2,#3))REPRESENTATION_CONTEXT('','3D'));
#6=APPLICATION_CONTEXT('core data for automotive mechanical design processes');
#7=APPLICATION_PROTOCOL_DEFINITION('international standard','automotive_design',2000,#6);
#8=PRODUCT_CONTEXT('',#6,'mechanical');
#9=PRODUCT_DEFINITION_CONTEXT('part definition',#6,'design');
#10=CARTESIAN_POINT('',(-50.0,-25.0,-10.0));
#11=VERTEX_POINT('',#10);
#12=CARTESIAN_POINT('',(-50.0,-25.0,10.0));
#13=VERTEX_POINT('',#12);
#14=CARTESIAN_POINT('',(50.0,-25.0,-10.0));
#15=VERTEX_POINT('',#14);
#16=CARTESIAN_POINT('',(50.0,-25.0,10.0));
#17=VERTEX_POINT('',#16);
#18=CARTESIAN_POINT('',(50.0,25.0,-10.0));
#19=VERTEX_POINT('',#18);
#20=CARTESIAN_POINT('',(50.0,25.0,10.0));
#21=VERTEX_POINT('',#20);
#22=CARTESIAN_POINT('',(-50.0,25.0,-10.0));
#23=VERTEX_POINT('',#22);
#24=CARTESIAN_POINT('',(-50.0,25.0,10.0));
#25=VERTEX_POINT('',#24);
#26=CARTESIAN_POINT('',(-50.0,-25.0,0.));
#27=DIRECTION('',(0.,-1.0,0.));
#28=DIRECTION('',(1.0,0.,0.));
#29=AXIS2_PLACEMENT_3D('',#26,#27,#28);
#30=PLANE('',#29);
#31=VECTOR('',#28,100.0);
#32=LINE('',#10,#31);
#33=EDGE_CURVE('',#11,#15,#32,.T.);
#34=DIRECTION('',(0.,0.,1.0));
#35=VECTOR('',#34,20.0);
#36=LINE('',#14,#35);
#37=EDGE_CURVE('',#15,#17,#36,.T.);
#38=VECTOR('',#28,100.0);
#39=LINE('',#12,#38);
#40=EDGE_CURVE('',#13,#17,#39,.T.);
#41=VECTOR('',#34,20.0);
#42=LINE('',#10,#41);
#43=EDGE_CURVE('',#11,#13,#42,.T.);
#44=ORIENTED_EDGE('',*,*,#33,.T.);
#45=ORIENTED_EDGE('',*,*,#37,.T.);
#46=ORIENTED_EDGE('',*,*,#40,.F.);
#47=ORIENTED_EDGE('',*,*,#43,.F.);
#48=EDGE_LOOP('',(#44,#45,#46,#47));
#49=FACE_OUTER_BOUND('',#48,.T.);
#50=ADVANCED_FACE('',(#49),#30,.T.);
#51=CARTESIAN_POINT('',(50.0,-25.0,0.));
#52=DIRECTION('',(0.,1.0,0.));
#53=AXIS2_PLACEMENT_3D('',#51,#28,#52);
#54=PLANE('',#53);
#55=VECTOR('',#52,50.0);
#56=LINE('',#14,#55);
#57=EDGE_CURVE('',#15,#19,#56,.T.);
#58=VECTOR('',#34,20.0);
#59=LINE('',#18,#58);
#60=EDGE_CURVE('',#19,#21,#59,.T.);
#61=VECTOR('',#52,50.0);
#62=LINE('',#16,#61);
#63=EDGE_CURVE('',#17,#21,#62,.T.);
#64=VECTOR('',#34,20.0);
#65=LINE('',#14,#64);
#66=ORIENTED_EDGE('',*,*,#57,.T.);
#67=ORIENTED_EDGE('',*,*,#60,.T.);
#68=ORIENTED_EDGE('',*,*,#63,.F.);
#69=ORIENTED_EDGE('',*,*,#37,.F.);
#70=EDGE_LOOP('',(#66,#67,#68,#69));
#71=FACE_OUTER_BOUND('',#70,.T.);
#72=ADVANCED_FACE('',(#71),#54,.T.);
#73=CARTESIAN_POINT('',(50.0,25.0,0.));
#74=DIRECTION('',(-1.0,0.,0.));
#75=AXIS2_PLACEMENT_3D('',#73,#52,#74);
#76=PLANE('',#75);
#77=VECTOR('',#74,100.0);
#78=LINE('',#18,#77);
#79=EDGE_CURVE('',#19,#23,#78,.T.);
#80=VECTOR('',#34,20.0);
#81=LINE('',#22,#80);
#82=EDGE_CURVE('',#23,#25,#81,.T.);
#83=VECTOR('',#74,100.0);
#84=LINE('',#20,#83);
#85=EDGE_CURVE('',#21,#25,#84,.T.);
#86=VECTOR('',#34,20.0);
#87=LINE('',#18,#86);
#88=ORIENTED_EDGE('',*,*,#79,.T.);
#89=ORIENTED_EDGE('',*,*,#82,.T.);
#90=ORIENTED_EDGE('',*,*,#85,.F.);
#91=ORIENTED_EDGE('',*,*,#60,.F.);
#92=EDGE_LOOP('',(#88,#89,#90,#91));
#93=FACE_OUTER_BOUND('',#92,.T.);
#94=ADVANCED_FACE('',(#93),#76,.T.);
#95=CARTESIAN_POINT('',(-50.0,25.0,0.));
#96=AXIS2_PLACEMENT_3D('',#95,#74,#27);
#97=PLANE('',#96);
#98=VECTOR('',#27,50.0);
#99=LINE('',#22,#98);
#100=EDGE_CURVE('',#23,#11,#99,.T.);
#101=VECTOR('',#34,20.0);
#102=LINE('',#10,#101);
#103=VECTOR('',#27,50.0);
#104=LINE('',#24,#103);
#105=EDGE_CURVE('',#25,#13,#104,.T.);
#106=VECTOR('',#34,20.0);
#107=LINE('',#22,#106);
#108=ORIENTED_EDGE('',*,*,#100,.T.);
#109=ORIENTED_EDGE('',*,*,#43,.T.);
#110=ORIENTED_EDGE('',*,*,#105,.F.);
#111=ORIENTED_EDGE('',*,*,#82,.F.);
#112=EDGE_LOOP('',(#108,#109,#110,#111));
#113=FACE_OUTER_BOUND('',#112,.T.);
#114=ADVANCED_FACE('',(#113),#97,.T.);
#115=CARTESIAN_POINT('',(0.,0.,10.0));
#116=AXIS2_PLACEMENT_3D('',#115,#34,#28);
#117=PLANE('',#116);
#118=ORIENTED_EDGE('',*,*,#40,.T.);
#119=ORIENTED_EDGE('',*,*,#63,.T.);
#120=ORIENTED_EDGE('',*,*,#85,.T.);
#121=ORIENTED_EDGE('',*,*,#105,.T.);
#122=EDGE_LOOP('',(#118,#119,#120,#121));
#123=FACE_OUTER_BOUND('',#122,.T.);
#124=ADVANCED_FACE('',(#123),#117,.T.);
#125=CARTESIAN_POINT('',(0.,0.,-10.0));
#126=DIRECTION('',(0.,0.,-1.0));
#127=AXIS2_PLACEMENT_3D('',#125,#126,#28);
#128=PLANE('',#127);
#129=ORIENTED_EDGE('',*,*,#100,.F.);
#130=ORIENTED_EDGE('',*,*,#79,.F.);
#131=ORIENTED_EDGE('',*,*,#57,.F.);
#132=ORIENTED_EDGE('',*,*,#33,.F.);
#133=EDGE_LOOP('',(#129,#130,#131,#132));
#134=FACE_OUTER_BOUND('',#133,.T.);
#135=ADVANCED_FACE('',(#134),#128,.T.);
#136=CLOSED_SHELL('',(#50,#72,#94,#114,#124,#135));
#137=MANIFOLD_SOLID_BREP('box_100x50x20',#136);
#138=CARTESIAN_POINT('',(0.,0.,0.));
#139=AXIS2_PLACEMENT_3D('',#138,#34,#28);
#140=ADVANCED_BREP_SHAPE_REPRESENTATION('box_100x50x20',(#137,#139),#5);
#141=PRODUCT('p01','box_100x50x20','',(#8));
#142=PRODUCT_RELATED_PRODUCT_CATEGORY('part',$,(#141));
#143=PRODUCT_DEFINITION_FORMATION('','',#141);
#144=PRODUCT_DEFINITION('design','',#143,#9);
#145=PRODUCT_DEFINITION_SHAPE('','',#144);
#146=SHAPE_DEFINITION_REPRESENTATION(#145,#140);
#147=CARTESIAN_POINT('',(0.,-30.0,0.));
#148=VERTEX_POINT('',#147);
#149=CARTESIAN_POINT('',(0.,30.0,0.));
#150=VERTEX_POINT('',#149);
#151=CARTESIAN_POINT('',(20.0,30.0,0.));
#152=VERTEX_POINT('',#151);
#153=CARTESIAN_POINT('',(-20.0,30.0,-2.4492935982947065E-15));
#154=VERTEX_POINT('',#153);
#155=CARTESIAN_POINT('',(20.0,-30.0,0.));
#156=VERTEX_POINT('',#155);
#157=CARTESIAN_POINT('',(-20.0,-30.0,-2.4492935982947065E-15));
#158=VERTEX_POINT('',#157);
#159=AXIS2_PLACEMENT_3D('',#149,#52,#28);
#160=PLANE('',#159);
#161=VECTOR('',#28,20.0);
#162=LINE('',#149,#161);
#163=EDGE_CURVE('',#150,#152,#162,.T.);
#164=CIRCLE('',#159,20.0);
#165=EDGE_CURVE('',#152,#154,#164,.T.);
#166=DIRECTION('',(-1.0,0.,-1.2246467991473532E-16));
#167=VECTOR('',#166,20.0);
#168=LINE('',#149,#167);
#169=EDGE_CURVE('',#150,#154,#168,.T.);
#170=ORIENTED_EDGE('',*,*,#163,.T.);
#171=ORIENTED_EDGE('',*,*,#165,.T.);
#172=ORIENTED_EDGE('',*,*,#169,.F.);
#173=EDGE_LOOP('',(#170,#171,#172));
#174=FACE_OUTER_BOUND('',#173,.T.);
#175=ADVANCED_FACE('',(#174),#160,.T.);
#176=VECTOR('',#166,20.0);
#177=LINE('',#149,#176);
#178=CIRCLE('',#159,20.0);
#179=EDGE_CURVE('',#154,#152,#178,.T.);
#180=VECTOR('',#28,20.0);
#181=LINE('',#149,#180);
#182=ORIENTED_EDGE('',*,*,#169,.T.);
#183=ORIENTED_EDGE('',*,*,#179,.T.);
#184=ORIENTED_EDGE('',*,*,#163,.F.);
#185=EDGE_LOOP('',(#182,#183,#184));
#186=FACE_OUTER_BOUND('',#185,.T.);
#187=ADVANCED_FACE('',(#186),#160,.T.);
#188=AXIS2_PLACEMENT_3D('',#138,#52,#28);
#189=CYLINDRICAL_SURFACE('',#188,20.0);
#190=VECTOR('',#27,60.0);
#191=LINE('',#151,#190);
#192=EDGE_CURVE('',#152,#156,#191,.T.);
#193=AXIS2_PLACEMENT_3D('',#147,#52,#28);
#194=CIRCLE('',#193,20.0);
#195=EDGE_CURVE('',#156,#158,#194,.T.);
#196=VECTOR('',#27,60.0);
#197=LINE('',#153,#196);
#198=EDGE_CURVE('',#154,#158,#197,.T.);
#199=CIRCLE('',#159,20.0);
#200=ORIENTED_EDGE('',*,*,#192,.T.);
#201=ORIENTED_EDGE('',*,*,#195,.T.);
#202=ORIENTED_EDGE('',*,*,#198,.F.);
#203=ORIENTED_EDGE('',*,*,#165,.F.);
#204=EDGE_LOOP('',(#200,#201,#202,#203));
#205=FACE_OUTER_BOUND('',#204,.T.);
#206=ADVANCED_FACE('',(#205),#189,.T.);
#207=VECTOR('',#27,60.0);
#208=LINE('',#153,#207);
#209=CIRCLE('',#193,20.0);
#210=EDGE_CURVE('',#158,#156,#209,.T.);
#211=VECTOR('',#27,60.0);
#212=LINE('',#151,#211);
#213=CIRCLE('',#159,20.0);
#214=ORIENTED_EDGE('',*,*,#198,.T.);
#215=ORIENTED_EDGE('',*,*,#210,.T.);
#216=ORIENTED_EDGE('',*,*,#192,.F.);
#217=ORIENTED_EDGE('',*,*,#179,.F.);
#218=EDGE_LOOP('',(#214,#215,#216,#217));
#219=FACE_OUTER_BOUND('',#218,.T.);
#220=ADVANCED_FACE('',(#219),#189,.T.);
#221=PLANE('',#193);
#222=VECTOR('',#74,20.0);
#223=LINE('',#155,#222);
#224=EDGE_CURVE('',#156,#148,#223,.T.);
#225=DIRECTION('',(1.0,0.,1.2246467991473532E-16));
#226=VECTOR('',#225,20.0);
#227=LINE('',#157,#226);
#228=EDGE_CURVE('',#158,#148,#227,.T.);
#229=CIRCLE('',#193,20.0);
#230=ORIENTED_EDGE('',*,*,#224,.T.);
#231=ORIENTED_EDGE('',*,*,#228,.F.);
#232=ORIENTED_EDGE('',*,*,#195,.F.);
#233=EDGE_LOOP('',(#230,#231,#232));
#234=FACE_OUTER_BOUND('',#233,.T.);
#235=ADVANCED_FACE('',(#234),#221,.F.);
#236=VECTOR('',#225,20.0);
#237=LINE('',#157,#236);
#238=VECTOR('',#74,20.0);
#239=LINE('',#155,#238);
#240=CIRCLE('',#193,20.0);
#241=ORIENTED_EDGE('',*,*,#228,.T.);
#242=ORIENTED_EDGE('',*,*,#224,.F.);
#243=ORIENTED_EDGE('',*,*,#210,.F.);
#244=EDGE_LOOP('',(#241,#242,#243));
#245=FACE_OUTER_BOUND('',#244,.T.);
#246=ADVANCED_FACE('',(#245),#221,.F.);
#247=CLOSED_SHELL('',(#175,#187,#206,#220,#235,#246));
#248=MANIFOLD_SOLID_BREP('cylinder_d40x60',#247);
#249=ADVANCED_BREP_SHAPE_REPRESENTATION('cylinder_d40x60',(#248,#139),#5);
#250=PRODUCT('p02','cylinder_d40x60','',(#8));
#251=PRODUCT_RELATED_PRODUCT_CATEGORY('part',$,(#250));
#252=PRODUCT_DEFINITION_FORMATION('','',#250);
#253=PRODUCT_DEFINITION('design','',#252,#9);
#254=PRODUCT_DEFINITION_SHAPE('','',#253);
#255=SHAPE_DEFINITION_REPRESENTATION(#254,#249);
#256=CARTESIAN_POINT('',(-30.0,0.,40.0));
#257=AXIS2_PLACEMENT_3D('',#256,#27,#28);
#258=CARTESIAN_POINT('',(30.0,0.,40.0));
#259=AXIS2_PLACEMENT_3D('',#258,#27,#28);
#260=SHAPE_REPRESENTATION('A_assembly',(#139,#139,#257,#259),#5);
#261=PRODUCT('A_assembly','A_assembly','',(#8));
#262=PRODUCT_RELATED_PRODUCT_CATEGORY('part',$,(#261));
#263=PRODUCT_DEFINITION_FORMATION('','',#261);
#264=PRODUCT_DEFINITION('design','',#263,#9);
#265=PRODUCT_DEFINITION_SHAPE('','',#264);
#266=SHAPE_DEFINITION_REPRESENTATION(#265,#260);
#267=NEXT_ASSEMBLY_USAGE_OCCURRENCE('NAUO1','box_100x50x20:1','',#264,#144,$);
#268=ITEM_DEFINED_TRANSFORMATION('','',#139,#139);
#269=(REPRESENTATION_RELATIONSHIP('','',#140,#260)REPRESENTATION_RELATIONSHIP_WITH_TRANSFORMATION(#268)SHAPE_REPRESENTATION_RELATIONSHIP());
#270=PRODUCT_DEFINITION_SHAPE('','',#267);
#271=CONTEXT_DEPENDENT_SHAPE_REPRESENTATION(#269,#270);
#272=NEXT_ASSEMBLY_USAGE_OCCURRENCE('NAUO2','cylinder_d40x60:1','',#264,#253,$);
#273=ITEM_DEFINED_TRANSFORMATION('','',#139,#257);
#274=(REPRESENTATION_RELATIONSHIP('','',#249,#260)REPRESENTATION_RELATIONSHIP_WITH_TRANSFORMATION(#273)SHAPE_REPRESENTATION_RELATIONSHIP());
#275=PRODUCT_DEFINITION_SHAPE('','',#272);
#276=CONTEXT_DEPENDENT_SHAPE_REPRESENTATION(#274,#275);
#277=NEXT_ASSEMBLY_USAGE_OCCURRENCE('NAUO3','cylinder_d40x60:2','',#264,#253,$);
#278=ITEM_DEFINED_TRANSFORMATION('','',#139,#259);
#279=(REPRESENTATION_RELATIONSHIP('','',#249,#260)REPRESENTATION_RELATIONSHIP_WITH_TRANSFORMATION(#278)SHAPE_REPRESENTATION_RELATIONSHIP());
#280=PRODUCT_DEFINITION_SHAPE('','',#277);
#281=CONTEXT_DEPENDENT_SHAPE_REPRESENTATION(#279,#280);
ENDSEC;
END-ISO-10303-21;
