ISO-10303-21;
HEADER;
FILE_DESCRIPTION(('Inventor 3D\X2\30C430FC30EB\X0\ \X2\3067\X0\ three.js \X2\306E5F62304B30894F5C6210\X0\'),
'2;1');
FILE_NAME('6_new_assembly.stp','2026-09-30T12:21:40+00:00',(''),(''),
'Inventor 3D\X2\30C430FC30EB\X0\','Inventor 3D\X2\30C430FC30EB\X0\','');
FILE_SCHEMA(('AUTOMOTIVE_DESIGN { 1 0 10303 214 3 1 1 }'));
ENDSEC;
DATA;
#1=(LENGTH_UNIT()NAMED_UNIT(*)SI_UNIT(.MILLI.,.METRE.));
#2=(NAMED_UNIT(*)PLANE_ANGLE_UNIT()SI_UNIT($,.RADIAN.));
#3=(NAMED_UNIT(*)SI_UNIT($,.STERADIAN.)SOLID_ANGLE_UNIT());
#4=UNCERTAINTY_MEASURE_WITH_UNIT(LENGTH_MEASURE(1.E-05),#1,
'distance_accuracy_value','');
#5=(GEOMETRIC_REPRESENTATION_CONTEXT(3)GLOBAL_UNCERTAINTY_ASSIGNED_CONTEXT((#4))
GLOBAL_UNIT_ASSIGNED_CONTEXT((#1,#2,#3))REPRESENTATION_CONTEXT('','3D'));
#6=APPLICATION_CONTEXT('Core Data for Automotive Mechanical Design Process');
#7=APPLICATION_PROTOCOL_DEFINITION('international standard','automotive_design',
2009,#6);
#8=PRODUCT_CONTEXT('part definition',#6,'mechanical');
#9=PRODUCT_DEFINITION_CONTEXT('part definition',#6,'design');
#10=CARTESIAN_POINT('',(-50.0,-25.0,-10.0));
#11=VERTEX_POINT('',#10);
#12=CARTESIAN_POINT('',(-50.0,-25.0,10.0));
#13=VERTEX_POINT('',#12);
#14=CARTESIAN_POINT('',(50.0,-25.0,-10.0));
#15=VERTEX_POINT('',#14);
#16=CARTESIAN_POINT('',(50.0,-25.0,10.0));
#17=VERTEX_POINT('',#16);
#18=CARTESIAN_POINT('',(50.0,25.0,-10.0));
#19=VERTEX_POINT('',#18);
#20=CARTESIAN_POINT('',(50.0,25.0,10.0));
#21=VERTEX_POINT('',#20);
#22=CARTESIAN_POINT('',(-50.0,25.0,-10.0));
#23=VERTEX_POINT('',#22);
#24=CARTESIAN_POINT('',(-50.0,25.0,10.0));
#25=VERTEX_POINT('',#24);
#26=CARTESIAN_POINT('',(-50.0,-25.0,0.));
#27=DIRECTION('',(0.,-1.0,0.));
#28=DIRECTION('',(1.0,0.,0.));
#29=AXIS2_PLACEMENT_3D('',#26,#27,#28);
#30=PLANE('',#29);
#31=VECTOR('',#28,100.0);
#32=LINE('',#10,#31);
#33=EDGE_CURVE('',#11,#15,#32,.T.);
#34=DIRECTION('',(0.,0.,1.0));
#35=VECTOR('',#34,20.0);
#36=LINE('',#14,#35);
#37=EDGE_CURVE('',#15,#17,#36,.T.);
#38=VECTOR('',#28,100.0);
#39=LINE('',#12,#38);
#40=EDGE_CURVE('',#13,#17,#39,.T.);
#41=VECTOR('',#34,20.0);
#42=LINE('',#10,#41);
#43=EDGE_CURVE('',#11,#13,#42,.T.);
#44=ORIENTED_EDGE('',*,*,#33,.T.);
#45=ORIENTED_EDGE('',*,*,#37,.T.);
#46=ORIENTED_EDGE('',*,*,#40,.F.);
#47=ORIENTED_EDGE('',*,*,#43,.F.);
#48=EDGE_LOOP('',(#44,#45,#46,#47));
#49=FACE_OUTER_BOUND('',#48,.T.);
#50=ADVANCED_FACE('',(#49),#30,.T.);
#51=CARTESIAN_POINT('',(50.0,-25.0,0.));
#52=DIRECTION('',(0.,1.0,0.));
#53=AXIS2_PLACEMENT_3D('',#51,#28,#52);
#54=PLANE('',#53);
#55=VECTOR('',#52,50.0);
#56=LINE('',#14,#55);
#57=EDGE_CURVE('',#15,#19,#56,.T.);
#58=VECTOR('',#34,20.0);
#59=LINE('',#18,#58);
#60=EDGE_CURVE('',#19,#21,#59,.T.);
#61=VECTOR('',#52,50.0);
#62=LINE('',#16,#61);
#63=EDGE_CURVE('',#17,#21,#62,.T.);
#64=VECTOR('',#34,20.0);
#65=LINE('',#14,#64);
#66=ORIENTED_EDGE('',*,*,#57,.T.);
#67=ORIENTED_EDGE('',*,*,#60,.T.);
#68=ORIENTED_EDGE('',*,*,#63,.F.);
#69=ORIENTED_EDGE('',*,*,#37,.F.);
#70=EDGE_LOOP('',(#66,#67,#68,#69));
#71=FACE_OUTER_BOUND('',#70,.T.);
#72=ADVANCED_FACE('',(#71),#54,.T.);
#73=CARTESIAN_POINT('',(50.0,25.0,0.));
#74=DIRECTION('',(-1.0,0.,0.));
#75=AXIS2_PLACEMENT_3D('',#73,#52,#74);
#76=PLANE('',#75);
#77=VECTOR('',#74,100.0);
#78=LINE('',#18,#77);
#79=EDGE_CURVE('',#19,#23,#78,.T.);
#80=VECTOR('',#34,20.0);
#81=LINE('',#22,#80);
#82=EDGE_CURVE('',#23,#25,#81,.T.);
#83=VECTOR('',#74,100.0);
#84=LINE('',#20,#83);
#85=EDGE_CURVE('',#21,#25,#84,.T.);
#86=VECTOR('',#34,20.0);
#87=LINE('',#18,#86);
#88=ORIENTED_EDGE('',*,*,#79,.T.);
#89=ORIENTED_EDGE('',*,*,#82,.T.);
#90=ORIENTED_EDGE('',*,*,#85,.F.);
#91=ORIENTED_EDGE('',*,*,#60,.F.);
#92=EDGE_LOOP('',(#88,#89,#90,#91));
#93=FACE_OUTER_BOUND('',#92,.T.);
#94=ADVANCED_FACE('',(#93),#76,.T.);
#95=CARTESIAN_POINT('',(-50.0,25.0,0.));
#96=AXIS2_PLACEMENT_3D('',#95,#74,#27);
#97=PLANE('',#96);
#98=VECTOR('',#27,50.0);
#99=LINE('',#22,#98);
#100=EDGE_CURVE('',#23,#11,#99,.T.);
#101=VECTOR('',#34,20.0);
#102=LINE('',#10,#101);
#103=VECTOR('',#27,50.0);
#104=LINE('',#24,#103);
#105=EDGE_CURVE('',#25,#13,#104,.T.);
#106=VECTOR('',#34,20.0);
#107=LINE('',#22,#106);
#108=ORIENTED_EDGE('',*,*,#100,.T.);
#109=ORIENTED_EDGE('',*,*,#43,.T.);
#110=ORIENTED_EDGE('',*,*,#105,.F.);
#111=ORIENTED_EDGE('',*,*,#82,.F.);
#112=EDGE_LOOP('',(#108,#109,#110,#111));
#113=FACE_OUTER_BOUND('',#112,.T.);
#114=ADVANCED_FACE('',(#113),#97,.T.);
#115=CARTESIAN_POINT('',(0.,0.,10.0));
#116=AXIS2_PLACEMENT_3D('',#115,#34,#28);
#117=PLANE('',#116);
#118=ORIENTED_EDGE('',*,*,#40,.T.);
#119=ORIENTED_EDGE('',*,*,#63,.T.);
#120=ORIENTED_EDGE('',*,*,#85,.T.);
#121=ORIENTED_EDGE('',*,*,#105,.T.);
#122=EDGE_LOOP('',(#118,#119,#120,#121));
#123=FACE_OUTER_BOUND('',#122,.T.);
#124=ADVANCED_FACE('',(#123),#117,.T.);
#125=CARTESIAN_POINT('',(0.,0.,-10.0));
#126=DIRECTION('',(0.,0.,-1.0));
#127=AXIS2_PLACEMENT_3D('',#125,#126,#28);
#128=PLANE('',#127);
#129=ORIENTED_EDGE('',*,*,#100,.F.);
#130=ORIENTED_EDGE('',*,*,#79,.F.);
#131=ORIENTED_EDGE('',*,*,#57,.F.);
#132=ORIENTED_EDGE('',*,*,#33,.F.);
#133=EDGE_LOOP('',(#129,#130,#131,#132));
#134=FACE_OUTER_BOUND('',#133,.T.);
#135=ADVANCED_FACE('',(#134),#128,.T.);
#136=CLOSED_SHELL('',(#50,#72,#94,#114,#124,#135));
#137=MANIFOLD_SOLID_BREP('box_100x50x20',#136);
#138=ADVANCED_BREP_SHAPE_REPRESENTATION('box_100x50x20',(#137),#5);
#139=CARTESIAN_POINT('',(0.,0.,0.));
#140=AXIS2_PLACEMENT_3D('',#139,#34,#28);
#141=SHAPE_REPRESENTATION('box_100x50x20',(#140),#5);
#142=SHAPE_REPRESENTATION_RELATIONSHIP('SRR','None',#141,#138);
#143=PRODUCT('p01','box_100x50x20','',(#8));
#144=PRODUCT_RELATED_PRODUCT_CATEGORY('part',$,(#143));
#145=PRODUCT_DEFINITION_FORMATION('','',#143);
#146=PRODUCT_DEFINITION('design','',#145,#9);
#147=PRODUCT_DEFINITION_SHAPE('','',#146);
#148=SHAPE_DEFINITION_REPRESENTATION(#147,#141);
#149=CARTESIAN_POINT('',(0.,-30.0,0.));
#150=VERTEX_POINT('',#149);
#151=CARTESIAN_POINT('',(0.,30.0,0.));
#152=VERTEX_POINT('',#151);
#153=CARTESIAN_POINT('',(20.0,30.0,0.));
#154=VERTEX_POINT('',#153);
#155=CARTESIAN_POINT('',(-20.0,30.0,-2.4492935982947065E-15));
#156=VERTEX_POINT('',#155);
#157=CARTESIAN_POINT('',(20.0,-30.0,0.));
#158=VERTEX_POINT('',#157);
#159=CARTESIAN_POINT('',(-20.0,-30.0,-2.4492935982947065E-15));
#160=VERTEX_POINT('',#159);
#161=DIRECTION('',(0.,1.0,0.));
#162=DIRECTION('',(1.0,0.,0.));
#163=AXIS2_PLACEMENT_3D('',#151,#161,#162);
#164=PLANE('',#163);
#165=VECTOR('',#162,20.0);
#166=LINE('',#151,#165);
#167=EDGE_CURVE('',#152,#154,#166,.T.);
#168=CIRCLE('',#163,20.0);
#169=EDGE_CURVE('',#154,#156,#168,.T.);
#170=DIRECTION('',(-1.0,0.,-1.2246467991473532E-16));
#171=VECTOR('',#170,20.0);
#172=LINE('',#151,#171);
#173=EDGE_CURVE('',#152,#156,#172,.T.);
#174=ORIENTED_EDGE('',*,*,#167,.T.);
#175=ORIENTED_EDGE('',*,*,#169,.T.);
#176=ORIENTED_EDGE('',*,*,#173,.F.);
#177=EDGE_LOOP('',(#174,#175,#176));
#178=FACE_OUTER_BOUND('',#177,.T.);
#179=ADVANCED_FACE('',(#178),#164,.T.);
#180=VECTOR('',#170,20.0);
#181=LINE('',#151,#180);
#182=CIRCLE('',#163,20.0);
#183=EDGE_CURVE('',#156,#154,#182,.T.);
#184=VECTOR('',#162,20.0);
#185=LINE('',#151,#184);
#186=ORIENTED_EDGE('',*,*,#173,.T.);
#187=ORIENTED_EDGE('',*,*,#183,.T.);
#188=ORIENTED_EDGE('',*,*,#167,.F.);
#189=EDGE_LOOP('',(#186,#187,#188));
#190=FACE_OUTER_BOUND('',#189,.T.);
#191=ADVANCED_FACE('',(#190),#164,.T.);
#192=CARTESIAN_POINT('',(0.,0.,0.));
#193=AXIS2_PLACEMENT_3D('',#192,#161,#162);
#194=CYLINDRICAL_SURFACE('',#193,20.0);
#195=DIRECTION('',(0.,-1.0,0.));
#196=VECTOR('',#195,60.0);
#197=LINE('',#153,#196);
#198=EDGE_CURVE('',#154,#158,#197,.T.);
#199=AXIS2_PLACEMENT_3D('',#149,#161,#162);
#200=CIRCLE('',#199,20.0);
#201=EDGE_CURVE('',#158,#160,#200,.T.);
#202=VECTOR('',#195,60.0);
#203=LINE('',#155,#202);
#204=EDGE_CURVE('',#156,#160,#203,.T.);
#205=CIRCLE('',#163,20.0);
#206=ORIENTED_EDGE('',*,*,#198,.T.);
#207=ORIENTED_EDGE('',*,*,#201,.T.);
#208=ORIENTED_EDGE('',*,*,#204,.F.);
#209=ORIENTED_EDGE('',*,*,#169,.F.);
#210=EDGE_LOOP('',(#206,#207,#208,#209));
#211=FACE_OUTER_BOUND('',#210,.T.);
#212=ADVANCED_FACE('',(#211),#194,.T.);
#213=VECTOR('',#195,60.0);
#214=LINE('',#155,#213);
#215=CIRCLE('',#199,20.0);
#216=EDGE_CURVE('',#160,#158,#215,.T.);
#217=VECTOR('',#195,60.0);
#218=LINE('',#153,#217);
#219=CIRCLE('',#163,20.0);
#220=ORIENTED_EDGE('',*,*,#204,.T.);
#221=ORIENTED_EDGE('',*,*,#216,.T.);
#222=ORIENTED_EDGE('',*,*,#198,.F.);
#223=ORIENTED_EDGE('',*,*,#183,.F.);
#224=EDGE_LOOP('',(#220,#221,#222,#223));
#225=FACE_OUTER_BOUND('',#224,.T.);
#226=ADVANCED_FACE('',(#225),#194,.T.);
#227=PLANE('',#199);
#228=DIRECTION('',(-1.0,0.,0.));
#229=VECTOR('',#228,20.0);
#230=LINE('',#157,#229);
#231=EDGE_CURVE('',#158,#150,#230,.T.);
#232=DIRECTION('',(1.0,0.,1.2246467991473532E-16));
#233=VECTOR('',#232,20.0);
#234=LINE('',#159,#233);
#235=EDGE_CURVE('',#160,#150,#234,.T.);
#236=CIRCLE('',#199,20.0);
#237=ORIENTED_EDGE('',*,*,#231,.T.);
#238=ORIENTED_EDGE('',*,*,#235,.F.);
#239=ORIENTED_EDGE('',*,*,#201,.F.);
#240=EDGE_LOOP('',(#237,#238,#239));
#241=FACE_OUTER_BOUND('',#240,.T.);
#242=ADVANCED_FACE('',(#241),#227,.F.);
#243=VECTOR('',#232,20.0);
#244=LINE('',#159,#243);
#245=VECTOR('',#228,20.0);
#246=LINE('',#157,#245);
#247=CIRCLE('',#199,20.0);
#248=ORIENTED_EDGE('',*,*,#235,.T.);
#249=ORIENTED_EDGE('',*,*,#231,.F.);
#250=ORIENTED_EDGE('',*,*,#216,.F.);
#251=EDGE_LOOP('',(#248,#249,#250));
#252=FACE_OUTER_BOUND('',#251,.T.);
#253=ADVANCED_FACE('',(#252),#227,.F.);
#254=CLOSED_SHELL('',(#179,#191,#212,#226,#242,#253));
#255=MANIFOLD_SOLID_BREP('cylinder_d40x60',#254);
#256=ADVANCED_BREP_SHAPE_REPRESENTATION('cylinder_d40x60',(#255),#5);
#257=DIRECTION('',(0.,0.,1.0));
#258=AXIS2_PLACEMENT_3D('',#192,#257,#162);
#259=SHAPE_REPRESENTATION('cylinder_d40x60',(#258),#5);
#260=SHAPE_REPRESENTATION_RELATIONSHIP('SRR','None',#259,#256);
#261=PRODUCT('p02','cylinder_d40x60','',(#8));
#262=PRODUCT_RELATED_PRODUCT_CATEGORY('part',$,(#261));
#263=PRODUCT_DEFINITION_FORMATION('','',#261);
#264=PRODUCT_DEFINITION('design','',#263,#9);
#265=PRODUCT_DEFINITION_SHAPE('','',#264);
#266=SHAPE_DEFINITION_REPRESENTATION(#265,#259);
#267=CARTESIAN_POINT('',(0.,0.,0.));
#268=DIRECTION('',(0.,0.,1.0));
#269=DIRECTION('',(1.0,0.,0.));
#270=AXIS2_PLACEMENT_3D('',#267,#268,#269);
#271=AXIS2_PLACEMENT_3D('',#267,#268,#269);
#272=CARTESIAN_POINT('',(-30.0,0.,40.0));
#273=DIRECTION('',(0.,-1.0,0.));
#274=AXIS2_PLACEMENT_3D('',#272,#273,#269);
#275=CARTESIAN_POINT('',(30.0,0.,40.0));
#276=AXIS2_PLACEMENT_3D('',#275,#273,#269);
#277=SHAPE_REPRESENTATION('6_new_assembly',(#270,#271,#274,#276),#5);
#278=PRODUCT('6_new_assembly','6_new_assembly','',(#8));
#279=PRODUCT_RELATED_PRODUCT_CATEGORY('part',$,(#278));
#280=PRODUCT_DEFINITION_FORMATION('','',#278);
#281=PRODUCT_DEFINITION('design','',#280,#9);
#282=PRODUCT_DEFINITION_SHAPE('','',#281);
#283=SHAPE_DEFINITION_REPRESENTATION(#282,#277);
#284=NEXT_ASSEMBLY_USAGE_OCCURRENCE('NAUO1','box_100x50x20:1','',#281,#146,$);
#285=ITEM_DEFINED_TRANSFORMATION('','',#140,#271);
#286=(REPRESENTATION_RELATIONSHIP('','',#141,#277)
REPRESENTATION_RELATIONSHIP_WITH_TRANSFORMATION(#285)
SHAPE_REPRESENTATION_RELATIONSHIP());
#287=PRODUCT_DEFINITION_SHAPE('','',#284);
#288=CONTEXT_DEPENDENT_SHAPE_REPRESENTATION(#286,#287);
#289=NEXT_ASSEMBLY_USAGE_OCCURRENCE('NAUO2','cylinder_d40x60:1','',#281,#264,$);
#290=ITEM_DEFINED_TRANSFORMATION('','',#258,#274);
#291=(REPRESENTATION_RELATIONSHIP('','',#259,#277)
REPRESENTATION_RELATIONSHIP_WITH_TRANSFORMATION(#290)
SHAPE_REPRESENTATION_RELATIONSHIP());
#292=PRODUCT_DEFINITION_SHAPE('','',#289);
#293=CONTEXT_DEPENDENT_SHAPE_REPRESENTATION(#291,#292);
#294=NEXT_ASSEMBLY_USAGE_OCCURRENCE('NAUO3','cylinder_d40x60:2','',#281,#264,$);
#295=ITEM_DEFINED_TRANSFORMATION('','',#258,#276);
#296=(REPRESENTATION_RELATIONSHIP('','',#259,#277)
REPRESENTATION_RELATIONSHIP_WITH_TRANSFORMATION(#295)
SHAPE_REPRESENTATION_RELATIONSHIP());
#297=PRODUCT_DEFINITION_SHAPE('','',#294);
#298=CONTEXT_DEPENDENT_SHAPE_REPRESENTATION(#296,#297);
ENDSEC;
END-ISO-10303-21;
