ISO-10303-21;
HEADER;
FILE_DESCRIPTION(('Inventor 3D\X2\30C430FC30EB\X0\ \X2\3067\X0\ three.js \X2\306E5F62304B30894F5C6210\X0\'),
'2;1');
FILE_NAME('7_new_cylinder.stp','2026-09-30T12:21:40+00:00',(''),(''),
'Inventor 3D\X2\30C430FC30EB\X0\','Inventor 3D\X2\30C430FC30EB\X0\','');
FILE_SCHEMA(('AUTOMOTIVE_DESIGN { 1 0 10303 214 3 1 1 }'));
ENDSEC;
DATA;
#1=(LENGTH_UNIT()NAMED_UNIT(*)SI_UNIT(.MILLI.,.METRE.));
#2=(NAMED_UNIT(*)PLANE_ANGLE_UNIT()SI_UNIT($,.RADIAN.));
#3=(NAMED_UNIT(*)SI_UNIT($,.STERADIAN.)SOLID_ANGLE_UNIT());
#4=UNCERTAINTY_MEASURE_WITH_UNIT(LENGTH_MEASURE(1.E-05),#1,
'distance_accuracy_value','');
#5=(GEOMETRIC_REPRESENTATION_CONTEXT(3)GLOBAL_UNCERTAINTY_ASSIGNED_CONTEXT((#4))
GLOBAL_UNIT_ASSIGNED_CONTEXT((#1,#2,#3))REPRESENTATION_CONTEXT('','3D'));
#6=APPLICATION_CONTEXT('Core Data for Automotive Mechanical Design Process');
#7=APPLICATION_PROTOCOL_DEFINITION('international standard','automotive_design',
2009,#6);
#8=PRODUCT_CONTEXT('part definition',#6,'mechanical');
#9=PRODUCT_DEFINITION_CONTEXT('part definition',#6,'design');
#10=CARTESIAN_POINT('',(0.,-30.0,0.));
#11=VERTEX_POINT('',#10);
#12=CARTESIAN_POINT('',(0.,30.0,0.));
#13=VERTEX_POINT('',#12);
#14=CARTESIAN_POINT('',(20.0,30.0,0.));
#15=VERTEX_POINT('',#14);
#16=CARTESIAN_POINT('',(-20.0,30.0,-2.4492935982947065E-15));
#17=VERTEX_POINT('',#16);
#18=CARTESIAN_POINT('',(20.0,-30.0,0.));
#19=VERTEX_POINT('',#18);
#20=CARTESIAN_POINT('',(-20.0,-30.0,-2.4492935982947065E-15));
#21=VERTEX_POINT('',#20);
#22=DIRECTION('',(0.,1.0,0.));
#23=DIRECTION('',(1.0,0.,0.));
#24=AXIS2_PLACEMENT_3D('',#12,#22,#23);
#25=PLANE('',#24);
#26=VECTOR('',#23,20.0);
#27=LINE('',#12,#26);
#28=EDGE_CURVE('',#13,#15,#27,.T.);
#29=CIRCLE('',#24,20.0);
#30=EDGE_CURVE('',#15,#17,#29,.T.);
#31=DIRECTION('',(-1.0,0.,-1.2246467991473532E-16));
#32=VECTOR('',#31,20.0);
#33=LINE('',#12,#32);
#34=EDGE_CURVE('',#13,#17,#33,.T.);
#35=ORIENTED_EDGE('',*,*,#28,.T.);
#36=ORIENTED_EDGE('',*,*,#30,.T.);
#37=ORIENTED_EDGE('',*,*,#34,.F.);
#38=EDGE_LOOP('',(#35,#36,#37));
#39=FACE_OUTER_BOUND('',#38,.T.);
#40=ADVANCED_FACE('',(#39),#25,.T.);
#41=VECTOR('',#31,20.0);
#42=LINE('',#12,#41);
#43=CIRCLE('',#24,20.0);
#44=EDGE_CURVE('',#17,#15,#43,.T.);
#45=VECTOR('',#23,20.0);
#46=LINE('',#12,#45);
#47=ORIENTED_EDGE('',*,*,#34,.T.);
#48=ORIENTED_EDGE('',*,*,#44,.T.);
#49=ORIENTED_EDGE('',*,*,#28,.F.);
#50=EDGE_LOOP('',(#47,#48,#49));
#51=FACE_OUTER_BOUND('',#50,.T.);
#52=ADVANCED_FACE('',(#51),#25,.T.);
#53=CARTESIAN_POINT('',(0.,0.,0.));
#54=AXIS2_PLACEMENT_3D('',#53,#22,#23);
#55=CYLINDRICAL_SURFACE('',#54,20.0);
#56=DIRECTION('',(0.,-1.0,0.));
#57=VECTOR('',#56,60.0);
#58=LINE('',#14,#57);
#59=EDGE_CURVE('',#15,#19,#58,.T.);
#60=AXIS2_PLACEMENT_3D('',#10,#22,#23);
#61=CIRCLE('',#60,20.0);
#62=EDGE_CURVE('',#19,#21,#61,.T.);
#63=VECTOR('',#56,60.0);
#64=LINE('',#16,#63);
#65=EDGE_CURVE('',#17,#21,#64,.T.);
#66=CIRCLE('',#24,20.0);
#67=ORIENTED_EDGE('',*,*,#59,.T.);
#68=ORIENTED_EDGE('',*,*,#62,.T.);
#69=ORIENTED_EDGE('',*,*,#65,.F.);
#70=ORIENTED_EDGE('',*,*,#30,.F.);
#71=EDGE_LOOP('',(#67,#68,#69,#70));
#72=FACE_OUTER_BOUND('',#71,.T.);
#73=ADVANCED_FACE('',(#72),#55,.T.);
#74=VECTOR('',#56,60.0);
#75=LINE('',#16,#74);
#76=CIRCLE('',#60,20.0);
#77=EDGE_CURVE('',#21,#19,#76,.T.);
#78=VECTOR('',#56,60.0);
#79=LINE('',#14,#78);
#80=CIRCLE('',#24,20.0);
#81=ORIENTED_EDGE('',*,*,#65,.T.);
#82=ORIENTED_EDGE('',*,*,#77,.T.);
#83=ORIENTED_EDGE('',*,*,#59,.F.);
#84=ORIENTED_EDGE('',*,*,#44,.F.);
#85=EDGE_LOOP('',(#81,#82,#83,#84));
#86=FACE_OUTER_BOUND('',#85,.T.);
#87=ADVANCED_FACE('',(#86),#55,.T.);
#88=PLANE('',#60);
#89=DIRECTION('',(-1.0,0.,0.));
#90=VECTOR('',#89,20.0);
#91=LINE('',#18,#90);
#92=EDGE_CURVE('',#19,#11,#91,.T.);
#93=DIRECTION('',(1.0,0.,1.2246467991473532E-16));
#94=VECTOR('',#93,20.0);
#95=LINE('',#20,#94);
#96=EDGE_CURVE('',#21,#11,#95,.T.);
#97=CIRCLE('',#60,20.0);
#98=ORIENTED_EDGE('',*,*,#92,.T.);
#99=ORIENTED_EDGE('',*,*,#96,.F.);
#100=ORIENTED_EDGE('',*,*,#62,.F.);
#101=EDGE_LOOP('',(#98,#99,#100));
#102=FACE_OUTER_BOUND('',#101,.T.);
#103=ADVANCED_FACE('',(#102),#88,.F.);
#104=VECTOR('',#93,20.0);
#105=LINE('',#20,#104);
#106=VECTOR('',#89,20.0);
#107=LINE('',#18,#106);
#108=CIRCLE('',#60,20.0);
#109=ORIENTED_EDGE('',*,*,#96,.T.);
#110=ORIENTED_EDGE('',*,*,#92,.F.);
#111=ORIENTED_EDGE('',*,*,#77,.F.);
#112=EDGE_LOOP('',(#109,#110,#111));
#113=FACE_OUTER_BOUND('',#112,.T.);
#114=ADVANCED_FACE('',(#113),#88,.F.);
#115=CLOSED_SHELL('',(#40,#52,#73,#87,#103,#114));
#116=MANIFOLD_SOLID_BREP('cylinder_d40x60',#115);
#117=ADVANCED_BREP_SHAPE_REPRESENTATION('cylinder_d40x60',(#116),#5);
#118=DIRECTION('',(0.,0.,1.0));
#119=AXIS2_PLACEMENT_3D('',#53,#118,#23);
#120=SHAPE_REPRESENTATION('cylinder_d40x60',(#119),#5);
#121=SHAPE_REPRESENTATION_RELATIONSHIP('SRR','None',#120,#117);
#122=PRODUCT('p01','cylinder_d40x60','',(#8));
#123=PRODUCT_RELATED_PRODUCT_CATEGORY('part',$,(#122));
#124=PRODUCT_DEFINITION_FORMATION('','',#122);
#125=PRODUCT_DEFINITION('design','',#124,#9);
#126=PRODUCT_DEFINITION_SHAPE('','',#125);
#127=SHAPE_DEFINITION_REPRESENTATION(#126,#120);
ENDSEC;
END-ISO-10303-21;
