ISO-10303-21;
HEADER;
FILE_DESCRIPTION(('Inventor 3D\X2\30C430FC30EB\X0\ \X2\3067\X0\ three.js \X2\306E5F62304B30894F5C6210\X0\'),'2;1');
FILE_NAME('B4_faceted_box_part.stp','2026-09-30T11:13:09+00:00',(''),(''),'Inventor 3D\X2\30C430FC30EB\X0\','Inventor 3D\X2\30C430FC30EB\X0\','');
FILE_SCHEMA(('AUTOMOTIVE_DESIGN { 1 0 10303 214 3 1 1 }'));
ENDSEC;
DATA;
#1=(LENGTH_UNIT()NAMED_UNIT(*)SI_UNIT(.MILLI.,.METRE.));
#2=(NAMED_UNIT(*)PLANE_ANGLE_UNIT()SI_UNIT($,.RADIAN.));
#3=(NAMED_UNIT(*)SI_UNIT($,.STERADIAN.)SOLID_ANGLE_UNIT());
#4=UNCERTAINTY_MEASURE_WITH_UNIT(LENGTH_MEASURE(1.E-05),#1,'distance_accuracy_value',
'');
#5=(GEOMETRIC_REPRESENTATION_CONTEXT(3)GLOBAL_UNCERTAINTY_ASSIGNED_CONTEXT((#4))GLOBAL_UNIT_ASSIGNED_CONTEXT((#1,
#2,#3))REPRESENTATION_CONTEXT('','3D'));
#6=APPLICATION_CONTEXT('core data for automotive mechanical design processes');
#7=APPLICATION_PROTOCOL_DEFINITION('international standard','automotive_design',
2010,#6);
#8=PRODUCT_CONTEXT('part definition',#6,'mechanical');
#9=PRODUCT_DEFINITION_CONTEXT('part definition',#6,'design');
#10=CARTESIAN_POINT('',(-5.0,-10.0,-15.0));
#11=VERTEX_POINT('',#10);
#12=CARTESIAN_POINT('',(-5.0,-10.0,15.0));
#13=VERTEX_POINT('',#12);
#14=CARTESIAN_POINT('',(-5.0,10.0,-15.0));
#15=VERTEX_POINT('',#14);
#16=CARTESIAN_POINT('',(-5.0,10.0,15.0));
#17=VERTEX_POINT('',#16);
#18=CARTESIAN_POINT('',(5.0,-10.0,-15.0));
#19=VERTEX_POINT('',#18);
#20=CARTESIAN_POINT('',(5.0,-10.0,15.0));
#21=VERTEX_POINT('',#20);
#22=CARTESIAN_POINT('',(5.0,10.0,-15.0));
#23=VERTEX_POINT('',#22);
#24=CARTESIAN_POINT('',(5.0,10.0,15.0));
#25=VERTEX_POINT('',#24);
#26=DIRECTION('',(0.,0.,1.0));
#27=VECTOR('',#26,30.0);
#28=LINE('',#10,#27);
#29=EDGE_CURVE('',#11,#13,#28,.T.);
#30=DIRECTION('',(0.,1.0,0.));
#31=VECTOR('',#30,20.0);
#32=LINE('',#12,#31);
#33=EDGE_CURVE('',#13,#17,#32,.T.);
#34=VECTOR('',#26,30.0);
#35=LINE('',#14,#34);
#36=EDGE_CURVE('',#15,#17,#35,.T.);
#37=VECTOR('',#30,20.0);
#38=LINE('',#10,#37);
#39=EDGE_CURVE('',#11,#15,#38,.T.);
#40=DIRECTION('',(-1.0,0.,0.));
#41=AXIS2_PLACEMENT_3D('',#10,#40,#26);
#42=PLANE('',#41);
#43=ORIENTED_EDGE('',*,*,#29,.T.);
#44=ORIENTED_EDGE('',*,*,#33,.T.);
#45=ORIENTED_EDGE('',*,*,#36,.F.);
#46=ORIENTED_EDGE('',*,*,#39,.F.);
#47=EDGE_LOOP('',(#43,#44,#45,#46));
#48=FACE_OUTER_BOUND('',#47,.T.);
#49=ADVANCED_FACE('',(#48),#42,.T.);
#50=VECTOR('',#30,20.0);
#51=LINE('',#18,#50);
#52=EDGE_CURVE('',#19,#23,#51,.T.);
#53=VECTOR('',#26,30.0);
#54=LINE('',#22,#53);
#55=EDGE_CURVE('',#23,#25,#54,.T.);
#56=VECTOR('',#30,20.0);
#57=LINE('',#20,#56);
#58=EDGE_CURVE('',#21,#25,#57,.T.);
#59=VECTOR('',#26,30.0);
#60=LINE('',#18,#59);
#61=EDGE_CURVE('',#19,#21,#60,.T.);
#62=DIRECTION('',(1.0,0.,0.));
#63=DIRECTION('',(0.,0.,-1.0));
#64=AXIS2_PLACEMENT_3D('',#18,#62,#63);
#65=PLANE('',#64);
#66=ORIENTED_EDGE('',*,*,#52,.T.);
#67=ORIENTED_EDGE('',*,*,#55,.T.);
#68=ORIENTED_EDGE('',*,*,#58,.F.);
#69=ORIENTED_EDGE('',*,*,#61,.F.);
#70=EDGE_LOOP('',(#66,#67,#68,#69));
#71=FACE_OUTER_BOUND('',#70,.T.);
#72=ADVANCED_FACE('',(#71),#65,.T.);
#73=VECTOR('',#62,10.0);
#74=LINE('',#10,#73);
#75=EDGE_CURVE('',#11,#19,#74,.T.);
#76=VECTOR('',#26,30.0);
#77=LINE('',#18,#76);
#78=VECTOR('',#62,10.0);
#79=LINE('',#12,#78);
#80=EDGE_CURVE('',#13,#21,#79,.T.);
#81=VECTOR('',#26,30.0);
#82=LINE('',#10,#81);
#83=DIRECTION('',(0.,-1.0,0.));
#84=AXIS2_PLACEMENT_3D('',#10,#83,#63);
#85=PLANE('',#84);
#86=ORIENTED_EDGE('',*,*,#75,.T.);
#87=ORIENTED_EDGE('',*,*,#61,.T.);
#88=ORIENTED_EDGE('',*,*,#80,.F.);
#89=ORIENTED_EDGE('',*,*,#29,.F.);
#90=EDGE_LOOP('',(#86,#87,#88,#89));
#91=FACE_OUTER_BOUND('',#90,.T.);
#92=ADVANCED_FACE('',(#91),#85,.T.);
#93=VECTOR('',#26,30.0);
#94=LINE('',#14,#93);
#95=VECTOR('',#62,10.0);
#96=LINE('',#16,#95);
#97=EDGE_CURVE('',#17,#25,#96,.T.);
#98=VECTOR('',#26,30.0);
#99=LINE('',#22,#98);
#100=VECTOR('',#62,10.0);
#101=LINE('',#14,#100);
#102=EDGE_CURVE('',#15,#23,#101,.T.);
#103=AXIS2_PLACEMENT_3D('',#14,#30,#26);
#104=PLANE('',#103);
#105=ORIENTED_EDGE('',*,*,#36,.T.);
#106=ORIENTED_EDGE('',*,*,#97,.T.);
#107=ORIENTED_EDGE('',*,*,#55,.F.);
#108=ORIENTED_EDGE('',*,*,#102,.F.);
#109=EDGE_LOOP('',(#105,#106,#107,#108));
#110=FACE_OUTER_BOUND('',#109,.T.);
#111=ADVANCED_FACE('',(#110),#104,.T.);
#112=VECTOR('',#30,20.0);
#113=LINE('',#10,#112);
#114=VECTOR('',#62,10.0);
#115=LINE('',#14,#114);
#116=VECTOR('',#30,20.0);
#117=LINE('',#18,#116);
#118=VECTOR('',#62,10.0);
#119=LINE('',#10,#118);
#120=AXIS2_PLACEMENT_3D('',#10,#63,#30);
#121=PLANE('',#120);
#122=ORIENTED_EDGE('',*,*,#39,.T.);
#123=ORIENTED_EDGE('',*,*,#102,.T.);
#124=ORIENTED_EDGE('',*,*,#52,.F.);
#125=ORIENTED_EDGE('',*,*,#75,.F.);
#126=EDGE_LOOP('',(#122,#123,#124,#125));
#127=FACE_OUTER_BOUND('',#126,.T.);
#128=ADVANCED_FACE('',(#127),#121,.T.);
#129=VECTOR('',#62,10.0);
#130=LINE('',#12,#129);
#131=VECTOR('',#30,20.0);
#132=LINE('',#20,#131);
#133=VECTOR('',#62,10.0);
#134=LINE('',#16,#133);
#135=VECTOR('',#30,20.0);
#136=LINE('',#12,#135);
#137=AXIS2_PLACEMENT_3D('',#12,#26,#83);
#138=PLANE('',#137);
#139=ORIENTED_EDGE('',*,*,#80,.T.);
#140=ORIENTED_EDGE('',*,*,#58,.T.);
#141=ORIENTED_EDGE('',*,*,#97,.F.);
#142=ORIENTED_EDGE('',*,*,#33,.F.);
#143=EDGE_LOOP('',(#139,#140,#141,#142));
#144=FACE_OUTER_BOUND('',#143,.T.);
#145=ADVANCED_FACE('',(#144),#138,.T.);
#146=CLOSED_SHELL('',(#49,#72,#92,#111,#128,#145));
#147=MANIFOLD_SOLID_BREP('faceted_box_10x20x30',#146);
#148=ADVANCED_BREP_SHAPE_REPRESENTATION('faceted_box_10x20x30',(#147),#5);
#149=CARTESIAN_POINT('',(0.,0.,0.));
#150=AXIS2_PLACEMENT_3D('',#149,#26,#62);
#151=SHAPE_REPRESENTATION('faceted_box_10x20x30',(#150),#5);
#152=SHAPE_REPRESENTATION_RELATIONSHIP('','',#151,#148);
#153=PRODUCT('p01','faceted_box_10x20x30','',(#8));
#154=PRODUCT_RELATED_PRODUCT_CATEGORY('part',$,(#153));
#155=PRODUCT_DEFINITION_FORMATION('','',#153);
#156=PRODUCT_DEFINITION('design','',#155,#9);
#157=PRODUCT_DEFINITION_SHAPE('','',#156);
#158=SHAPE_DEFINITION_REPRESENTATION(#157,#151);
ENDSEC;
END-ISO-10303-21;
